<?xml version="1.0" encoding="UTF-8"?>
<svg width="666px" height="545px" viewBox="0 0 666 545" version="1.1" xmlns="http://www.w3.org/2000/svg" xmlns:xlink="http://www.w3.org/1999/xlink">
    <!-- Generator: Sketch 45.1 (43504) - http://www.bohemiancoding.com/sketch -->
    <title>Group 6</title>
    <desc>Created with Sketch.</desc>
    <defs>
        <path d="M108.915382,34.9379097 C92.2277032,34.9379097 78.6738062,48.4801857 78.6738062,65.1872328 C78.6738062,81.8942799 92.2141455,95.4346191 108.915382,95.4346191 L58.0272584,95.4346191 C41.3357059,95.4346191 27.7973035,108.976895 27.7973035,125.683942 C27.7973035,142.392926 41.3318322,155.931329 58.0272584,155.931329 L106.670603,155.931329 C89.980987,155.931329 76.4387109,169.473605 76.4387109,186.180652 C76.4387109,202.889636 89.9751765,216.428038 106.670603,216.428038 L109.424767,216.428038 L112.178931,216.428038 L121.638381,216.428038 C138.345428,216.428038 151.887705,229.968377 151.887705,246.677361 C151.887705,263.382471 138.343492,276.924747 121.638381,276.924747 L73.9440811,276.924747 L30.2299549,276.924747 C13.5403392,276.924747 0,290.46896 0,307.174071 C0,323.884991 13.5345288,337.421457 30.2299549,337.421457 L92.7700141,337.421457 C76.0823352,337.421457 62.541996,350.96567 62.541996,367.672717 C62.541996,384.379764 76.0765247,397.920103 92.7700141,397.920103 L74.9202406,397.920103 C58.2286881,397.920103 44.6728543,411.462379 44.6728543,428.16749 C44.6728543,444.87841 58.2151303,458.416813 74.9202406,458.416813 L528.662024,458.416813 C545.353577,458.416813 558.909411,444.874537 558.909411,428.16749 C558.909411,411.458506 545.367135,397.920103 528.662024,397.920103 L588.242616,397.920103 C604.934168,397.920103 618.472571,384.377827 618.472571,367.672717 C618.472571,350.961796 604.939979,337.421457 588.242616,337.421457 L566.852328,337.421457 L566.852328,337.101881 C565.40552,337.312995 563.923849,337.421457 562.418937,337.421457 L488.887399,337.421457 C472.184226,337.421457 458.643886,323.884991 458.643886,307.174071 C458.643886,290.46896 472.168731,276.924747 488.887399,276.924747 L562.418937,276.924747 C563.923849,276.924747 565.40552,277.035146 566.852328,277.248197 L566.852328,276.924747 L634.902652,276.924747 C651.592268,276.924747 665.132607,263.382471 665.132607,246.677361 C665.132607,229.968377 651.598078,216.428038 634.902652,216.428038 L590.435101,216.428038 L564.851588,216.428038 C548.13873,216.428038 534.58677,202.889636 534.58677,186.180652 C534.58677,169.473605 548.148415,155.931329 564.851588,155.931329 L566.852328,155.931329 L578.531379,155.931329 L590.21043,155.931329 C606.913603,155.931329 620.457816,142.389053 620.457816,125.683942 C620.457816,108.974958 606.91554,95.4346191 590.21043,95.4346191 L503.893914,95.4346191 L629.92695,95.4346191 C646.616566,95.4346191 660.166589,81.8904063 660.166589,65.1872328 C660.166589,48.4763121 646.628187,34.9379097 629.92695,34.9379097 L108.915382,34.9379097 Z" id="path-1"></path>
        <filter x="-2.9%" y="-47.1%" width="105.7%" height="194.2%" filterUnits="objectBoundingBox" id="filter-3">
            <feGaussianBlur stdDeviation="1.88337054" in="SourceGraphic"></feGaussianBlur>
        </filter>
    </defs>
    <g id="Page-1" stroke="none" stroke-width="1" fill="none" fill-rule="evenodd">
        <g id="Group-6">
            <mask id="mask-2" fill="white">
                <use xlink:href="#path-1"></use>
            </mask>
            <use id="Clip-2" fill="#FFFCF8" xlink:href="#path-1"></use>
            <circle id="Oval-3" stroke="#FFCB76" stroke-width="1.5" opacity="0.373584692" stroke-dasharray="8,8" cx="309.526894" cy="183.67878" r="90.6787801"></circle>
            <circle id="Oval-3" stroke="#FFCB76" stroke-width="1.5" opacity="0.373584692" stroke-dasharray="8,8" cx="309.237332" cy="183.389218" r="109.389218"></circle>
            <circle id="Oval-3" stroke="#FFCB76" stroke-width="1.5" opacity="0.373584692" stroke-dasharray="8,8" cx="309.962299" cy="184.114185" r="135.114185"></circle>
            <path d="M264.002438,161.238204 L264.002438,171.481752 C259.742714,173.981694 258.123285,178.783974 259.144151,185.888592 C259.737699,190.019333 262.223122,193.180933 265.792056,194.195148 C269.150266,195.149481 271.5508,195.588189 272.993658,195.511273 C273.563697,204.101974 278.105964,211.898727 286.620461,218.901533 C299.392205,229.405742 324.771617,225.565907 335.705536,217.957171 C342.994815,212.884681 347.495077,205.402714 349.206321,195.511273 C352.257826,196.546684 355.709352,195.741342 359.560898,193.095245 C364.944558,189.396551 364.700582,180.800604 363.867205,176.679387 C363.166507,173.214297 360.547014,170.654474 356.008727,168.999918 L349.206321,138.811107 L320.060762,129 L264.002438,161.238204 Z" id="Path-2" fill="#F4CD95"></path>
            <rect id="Rectangle" fill="#F4CD95" x="299.848114" y="223" width="17" height="15"></rect>
            <path d="M263.705551,104 C263.131399,108.23216 269.434427,110.527188 282.614636,110.885084 C295.794844,111.242981 308.105288,111.242981 319.545967,110.885084 C326.707694,110.580303 331.32083,113.090638 333.385376,118.41609 C336.482194,126.404268 336.673788,126.250613 341.874356,126.404268 C347.074923,126.557923 355.808613,129.765054 356.867128,140.788398 C357.572804,148.137293 357.336665,157.932102 356.158712,170.172823 L350.589076,178.545575 C350.14708,162.856928 349.773375,154.466275 349.467962,153.373615 C349.266694,152.653553 346.768733,146.206399 340.487664,142.645252 C338.3209,141.416772 334.009067,140.629209 327.552166,140.282565 C317.539222,150.128917 309.212779,156.209714 302.572838,158.524957 C295.932897,160.840199 285.709416,161.227467 271.902396,159.686761 L271.902396,182.275036 L263.705551,172.229584 L263.705551,142.645252 C264.035762,137.621944 264.648433,134.10894 265.543562,132.106241 C266.438692,130.103541 268.558303,127.503531 271.902396,124.306209 C266.473733,120.663513 263.283095,117.6622 262.33048,115.302269 C261.377866,112.942339 261.836223,109.174916 263.705551,104 Z" id="Path" fill="#484848"></path>
            <circle id="Oval-4" fill="#50E3C2" cx="400.097196" cy="184.249082" r="5.24908211"></circle>
            <circle id="Oval-4-Copy" fill="#50E3C2" cx="210.097196" cy="233.249082" r="5.24908211"></circle>
            <circle id="Oval-4-Copy-3" fill="#50E3C2" cx="369.097196" cy="93.2490821" r="5.24908211"></circle>
            <circle id="Oval-4-Copy-4" fill="#50E3C2" cx="412.097196" cy="272.249082" r="5.24908211"></circle>
            <circle id="Oval-4-Copy-5" fill="#50E3C2" cx="179.097196" cy="160.249082" r="5.24908211"></circle>
            <circle id="Oval-4-Copy-2" fill="#50E3C2" cx="228.097196" cy="109.249082" r="5.24908211"></circle>
            <path d="M307.848114,209.241416 C312.145358,210.569824 316.659297,209.156019 321.389929,205" id="Path-3" stroke="#000000" stroke-width="1.5"></path>
            <path d="M310.848114,185 L310.848114,202.957808 C313.481521,197.650575 314.695331,193.483432 314.489543,190.45638 C314.283754,187.429327 313.069945,185.610534 310.848114,185 Z" id="Path-4" fill="#DBAE6E"></path>
            <path d="" id="Path-5" stroke="#979797"></path>
            <path d="M274.848114,178.358072 C279.201747,175.833386 283.927066,174.732293 289.024071,175.054795 C294.121076,175.377296 298.846395,177.128519 303.200028,180.308463 L303.200028,188.161437 C302.213903,190.271055 300.233556,192.05979 297.258987,193.527644 C292.797134,195.729424 281.901581,194.825255 279.533424,193.527644 C277.954653,192.662569 276.392882,191.04507 274.848114,188.675146 L274.848114,178.358072 Z" id="Path-6" stroke="#000000" stroke-width="1.56" fill="#FCE3BA"></path>
            <path d="M317.848114,178.358072 C322.201747,175.833386 326.927066,174.732293 332.024071,175.054795 C337.121076,175.377296 341.846395,177.128519 346.200028,180.308463 L346.200028,188.161437 C345.213903,190.271055 343.233556,192.05979 340.258987,193.527644 C335.797134,195.729424 324.901581,194.825255 322.533424,193.527644 C320.954653,192.662569 319.392882,191.04507 317.848114,188.675146 L317.848114,178.358072 Z" id="Path-6-Copy" stroke="#000000" stroke-width="1.56" fill="#FCE3BA" transform="translate(332.024071, 184.930568) scale(-1, 1) translate(-332.024071, -184.930568) "></path>
            <path d="M280.848114,182.022632 L285.962499,182.022632 C285.976674,186.720768 288.184403,189.069836 292.585685,189.069836 C296.986968,189.069836 299.08307,186.379891 298.873991,181" id="Path-7" stroke="#000000" stroke-width="1.5"></path>
            <path d="M321.848114,182.022632 L326.962499,182.022632 C326.976674,186.720768 329.184403,189.069836 333.585685,189.069836 C337.986968,189.069836 340.08307,186.379891 339.873991,181" id="Path-7-Copy" stroke="#000000" stroke-width="1.5" transform="translate(330.868164, 185.034918) scale(-1, 1) translate(-330.868164, -185.034918) "></path>
            <path d="M302.848114,180.148368 C304.90685,177.950706 307.437554,176.903573 310.440227,177.006969 C313.4429,177.110365 315.835378,178.157498 317.61766,180.148368" id="Path-8" stroke="#000000" stroke-width="1.56"></path>
            <path d="M308.86652,237.538086 C304.355775,237.535431 300.414585,236.557063 297.042949,234.602981 C293.666727,232.646242 291.101432,230.111915 289.347064,227 L264.63829,227 C258.774277,227 254.764101,227.603858 252.607762,228.811574 C250.451423,230.01929 249.324042,232.423036 249.225619,236.022812 L249.225619,285.795245 C249.400345,292.109953 247.809728,297.841504 244.453767,302.989898 C241.097807,308.138292 234.562589,311.337379 224.848114,312.587159 L224.848114,330.594134 C239.736719,328.515553 250.571521,322.803969 257.35252,313.459383 C264.133519,304.114797 267.594964,294.086339 267.736854,283.374008 L267.736854,344.59049 L308.866524,344.59049 L349.996193,344.59049 L349.996193,283.374008 C350.138083,294.086339 353.599528,304.114797 360.380527,313.459383 C367.161526,322.803969 377.996328,328.515553 392.884933,330.594134 L392.884933,312.587159 C383.170458,311.337379 376.63524,308.138292 373.27928,302.989898 C369.923319,297.841504 368.332702,292.109953 368.507428,285.795245 L368.507428,236.022812 C368.409005,232.423036 367.281624,230.01929 365.125285,228.811574 C362.968946,227.603858 358.95877,227 353.094757,227 L328.385983,227 C326.631615,230.111915 324.06632,232.646242 320.690098,234.602981 C317.318462,236.557063 313.377272,237.535431 308.866527,237.538086 Z" id="Combined-Shape" fill="#A0C4E3"></path>
            <polygon id="Rectangle-4" fill="#7C9EB9" points="320.848114 260 340.848114 260 340.848114 274.506842 331.246163 281 320.848114 273.97343"></polygon>
            <rect id="Rectangle-2" fill="#9A735E" x="267.848114" y="331" width="32" height="14"></rect>
            <rect id="Rectangle-3" stroke="#6D7F9C" x="319.348114" y="259.5" width="23" height="1"></rect>
            <path d="M308.848114,239 L308.848114,346.074049" id="Line" stroke="#6D7F9C" stroke-linecap="square"></path>
            <rect id="Rectangle-2-Copy" fill="#9A735E" x="302.848114" y="331" width="48.6480853" height="14"></rect>
            <rect id="Rectangle-5" fill="#88A8BF" x="222.848114" y="309" width="2" height="24"></rect>
            <rect id="Rectangle-5-Copy" fill="#A0C4E3" x="215.848114" y="308" width="7" height="26.1101877"></rect>
            <rect id="Rectangle-5-Copy-2" fill="#F4CD95" x="165.848114" y="313" width="50" height="16.9151451"></rect>
            <path d="M145.722331,330.801489 C148.607225,332.767935 152.093415,333.917553 155.848114,333.917553 C165.789239,333.917553 173.848114,325.858678 173.848114,315.917553 C173.848114,306.561373 166.709721,298.872453 157.582141,298 C155.197968,300.560602 155.444974,303.175145 158.32316,305.843628 C162.855898,306.953468 166.219211,311.042738 166.219211,315.917553 C166.219211,321.645351 161.575912,326.28865 155.848114,326.28865 C150.120315,326.28865 145.477017,321.645351 145.477017,315.917553 C145.477017,311.044699 148.837625,306.956757 153.367599,305.844969 C154.436179,302.315082 152.072404,299.49408 148.541999,299.462083 L148.541999,299.462083 C148.503757,299.479088 148.465584,299.496222 148.427483,299.513485 C142.679707,302.117693 138.543571,307.654008 137.927692,314.213812 L129.129116,310.380613 C129.119019,310.376214 129.108901,310.371862 129.098763,310.367559 C127.31943,309.612277 125.264719,310.442434 124.509437,312.221767 L124.509437,312.221767 L124.27204,312.781039 C123.521795,314.548506 124.335589,316.590414 126.095895,317.357311 L139.327846,323.121961 L123.374848,323.000102 C123.365937,323.000034 123.357025,323 123.348114,323 C121.415117,323 119.848114,324.567003 119.848114,326.5 L119.848114,326.5 L119.848114,327.31313 L119.848114,327.31313 C119.848114,329.235695 121.398871,330.798343 123.321379,330.813028 L123.321379,330.813028 L144.602133,330.975584 C144.611044,330.975652 144.619956,330.975686 144.628867,330.975686 C145.010724,330.975686 145.378298,330.914534 145.722331,330.801489 Z" id="Combined-Shape" fill="#F4CD95"></path>
            <g id="Group" transform="translate(442.348114, 316.500000) scale(-1, 1) translate(-442.348114, -316.500000) translate(389.848114, 298.000000)">
                <rect id="Rectangle-5-Copy-3" fill="#88A8BF" x="103" y="11" width="2" height="24"></rect>
                <rect id="Rectangle-5-Copy-4" fill="#A0C4E3" x="96" y="10" width="7" height="26.1101877"></rect>
                <rect id="Rectangle-5-Copy-5" fill="#F4CD95" x="46" y="15" width="50" height="16.9151451"></rect>
                <path d="M28.6938854,1.4620833 C28.6556429,1.47908808 28.6174706,1.49622227 28.5793692,1.5134853 C22.3401878,4.34033978 18,10.6220936 18,17.9175526 C18,27.8586781 26.0588745,35.9175526 36,35.9175526 C45.9411255,35.9175526 54,27.8586781 54,17.9175526 C54,8.56137252 46.8616075,0.872453359 37.7340275,-1.76941795e-14 C35.3498543,2.56060186 35.5968606,5.1751446 38.4750463,7.84362823 C43.0077843,8.95346773 46.371097,13.0427383 46.371097,17.9175526 C46.371097,23.6453513 41.7277987,28.2886496 36,28.2886496 C30.2722013,28.2886496 25.628903,23.6453513 25.628903,17.9175526 C25.628903,13.0446989 28.9895108,8.95675718 33.5194852,7.84496878 C34.5880654,4.31508188 32.2242907,1.49407991 28.6938854,1.4620833 Z" id="Combined-Shape-Copy" fill="#F4CD95"></path>
                <path d="M14.5375567,7.78031454 L15.1451277,7.78031454 L15.1451277,7.78031454 C17.0781243,7.78031454 18.6451277,9.34731792 18.6451277,11.2803145 C18.6451277,11.2913284 18.6450757,11.3023421 18.6449717,11.3133555 L18.500711,26.594109 L18.500711,26.594109 C18.4825847,28.5141292 16.9209727,30.0610681 15.000867,30.0610681 L14.393296,30.0610681 L14.393296,30.0610681 C12.4602994,30.0610681 10.893296,28.4940647 10.893296,26.5610681 C10.893296,26.5500543 10.893348,26.5390405 10.893452,26.5280272 L11.0377127,11.2472736 L11.0377127,11.2472736 C11.055839,9.32725346 12.617451,7.78031454 14.5375567,7.78031454 Z" id="Rectangle-6-Copy-2" fill="#F4CD95" transform="translate(14.769212, 18.920691) rotate(-67.000000) translate(-14.769212, -18.920691) "></path>
                <path d="M13.8150894,14.8474661 L14.6282197,14.8474661 L14.6282197,14.8474661 C16.5612163,14.8474661 18.1282197,16.4144695 18.1282197,18.3474661 C18.1282197,18.3563777 18.1281857,18.3652892 18.1281176,18.3742005 L17.965562,39.6549541 L17.965562,39.6549541 C17.9508767,41.5774623 16.3882285,43.1282197 14.4656641,43.1282197 L13.6525339,43.1282197 L13.6525339,43.1282197 C11.7195372,43.1282197 10.1525339,41.5612163 10.1525339,39.6282197 C10.1525339,39.6193081 10.1525679,39.6103966 10.152636,39.6014853 L10.3151915,18.3207317 L10.3151915,18.3207317 C10.3298768,16.3982235 11.8925251,14.8474661 13.8150894,14.8474661 Z" id="Rectangle-6-Copy-3" fill="#F4CD95" transform="translate(14.140377, 28.987843) scale(-1, -1) rotate(90.000000) translate(-14.140377, -28.987843) "></path>
            </g>
            <path d="M267.35927,348 L226.35927,348 C188.527765,348 157.169814,374.720665 157.85927,416.5 C158.383716,448.280079 179.157732,475.906031 209.85927,482.744292 L209.85927,460.598666 C192.335474,454.162994 180.534917,438.127135 180.534917,418.371574 C180.534917,393.06447 197.971226,373 224.656167,372.439151 L262.86154,372.439151 C265.30775,372.439151 267.709191,372.630834 270.051661,373 L320.276835,373 C307.713502,357.734459 288.673188,348 267.35927,348 Z" id="Combined-Shape" fill="#738992"></path>
            <rect id="Rectangle-9" fill="#738992" x="267.848114" y="345" width="83.6480853" height="28"></rect>
            <rect id="Rectangle-8-Copy-4" fill="#FED283" x="235.848114" y="464" width="45" height="22"></rect>
            <rect id="Rectangle-8" fill="#F4CD95" x="235.848114" y="464" width="45" height="22"></rect>
            <rect id="Rectangle-8-Copy" fill="#E3E4E5" x="280.848114" y="464" width="7" height="22"></rect>
            <polygon id="Path-11" fill="#F3F3F3" points="294.848114 457.953692 298.826571 454 332.628239 487.696415 327.397581 492.882701"></polygon>
            <rect id="Rectangle-7" fill="#A0C4E3" x="209.848114" y="456" width="28" height="36"></rect>
            <path d="M287.848114,464.605137 L293.977549,458 L327.168337,492.509029 L315.171051,504.077048 C313.122402,504.47811 311.099723,504.678641 309.103013,504.678641 C307.106303,504.678641 305.275212,504.117636 303.609739,502.995626 L287.848114,486.148966 L287.848114,464.605137 Z" id="Path-10" fill="#E3E4E5"></path>
            <g id="Group-2" transform="translate(361.348114, 427.000000) scale(-1, 1) translate(-361.348114, -427.000000) translate(303.848114, 401.000000)">
                <rect id="Rectangle-8-Copy-2" fill="#F4CD95" x="26" y="11" width="37.7801248" height="22"></rect>
                <rect id="Rectangle-8-Copy-3" fill="#E3E4E5" x="63" y="11" width="7" height="22"></rect>
                <polygon id="Path-11-Copy" fill="#F3F3F3" points="76.1304811 5.25825985 80.2462222 0.78163735 114.050237 35.1081164 109.104073 39.6158619"></polygon>
                <rect id="Rectangle-7-Copy" fill="#A0C4E3" x="0" y="3" width="28" height="36"></rect>
                <path d="M70,11.0569835 L76.1294351,5 L109.320223,39.509029 L97.3229371,51.0770479 C95.2742887,51.4781097 93.2516095,51.6786406 91.2548996,51.6786406 C89.2581897,51.6786406 87.4270984,51.1176356 85.7616256,49.9956256 L70,32.9890585 L70,11.0569835 Z" id="Path-10-Copy" fill="#E3E4E5"></path>
            </g>
            <path d="M347.848114,349 L423.848114,349 L423.848114,373 L347.848114,373 L347.848114,349 Z M424.348114,349 C447.820216,349 467.18283,368.454903 465.848114,392.5 C464.513398,416.545097 443.152898,434.452614 420.243605,433.390005 C419.77615,433.368323 419.310951,433.340274 418.848114,433.305927 L418.848114,409.513726 C419.933111,409.720294 421.054891,409.851486 422.206293,409.902652 C432.800821,410.373446 442.276013,403.430042 442.833892,391.786103 C443.391771,380.142163 435.202916,373.02421 424.348114,373.02421 C424.262598,373.02421 423.933485,373.023112 423.848114,373.02421 L423.848114,349.003028 C424.014653,349.001011 424.181321,349 424.348114,349 Z" id="Combined-Shape" fill="#738992"></path>
            <path d="M123.284363,148.004255 C123.185727,148.014919 123.093579,148.058568 123.022843,148.128132 L116.416036,154.734939 C116.33204,154.819778 116.286077,154.935077 116.288672,155.054434 C116.291266,155.173791 116.342197,155.286984 116.4298,155.368092 L126.188605,164.961726 L115.989346,174.995814 C115.901743,175.076922 115.850813,175.190115 115.848218,175.309472 C115.845623,175.428829 115.891586,175.544128 115.975582,175.628967 L122.582389,182.235774 C122.753998,182.405432 123.030169,182.405432 123.201777,182.235774 L133.483621,172.1191 L141.535667,180.033505 C141.589449,180.086054 141.655787,180.123962 141.728365,180.143618 L150.537441,182.345887 C150.6915,182.387347 150.855936,182.342266 150.967311,182.228035 C151.078687,182.113804 151.119591,181.94828 151.074244,181.79532 L148.431522,172.986244 C148.411866,172.913666 148.373958,172.847327 148.321408,172.793545 L140.627231,165.099368 L150.509913,155.368092 C150.597517,155.286984 150.648447,155.173791 150.651042,155.054434 C150.653636,154.935077 150.607673,154.819778 150.523677,154.734939 L143.91687,148.128132 C143.819179,148.030999 143.681671,147.985163 143.545237,148.004255 C143.45148,148.017831 143.364598,148.061273 143.297482,148.128132 L133.401036,157.873173 L123.655995,148.128132 C123.558304,148.030999 123.420796,147.985163 123.284363,148.004255 Z M143.58653,149.064097 L149.573949,155.051516 L140.007843,164.47998 L134.020424,158.492561 L136.718203,155.849838 L138.87918,158.010815 C138.992272,158.121511 139.155836,158.16345 139.30824,158.120829 C139.460643,158.078208 139.578723,157.957504 139.617985,157.804201 C139.657247,157.650897 139.611723,157.488294 139.498568,157.377662 L137.351356,155.216686 L139.828908,152.780426 L141.962357,154.927638 C142.075456,155.040752 142.240311,155.084932 142.394819,155.043535 C142.549326,155.002139 142.67001,154.881455 142.711406,154.726948 C142.752803,154.57244 142.708623,154.407585 142.595509,154.294486 L140.448297,152.147273 L143.58653,149.064097 Z M123.339419,149.077861 L126.450124,152.188566 L120.503998,158.148456 L117.365765,155.051516 L123.339419,149.077861 Z M127.083277,152.821718 L132.946818,158.685259 C132.991593,158.79855 133.081283,158.88824 133.194573,158.933015 L139.553625,165.292066 C139.5984,165.405357 139.68809,165.495047 139.80138,165.539822 L147.37168,173.110121 L141.604488,178.877313 L133.937839,171.348306 C133.896059,171.201795 133.781538,171.087274 133.635027,171.045494 L127.19339,164.713971 C127.180554,164.699308 127.16676,164.685514 127.152097,164.672678 L127.110805,164.617622 C127.089763,164.597015 127.066707,164.57857 127.041984,164.562565 L121.13715,158.75408 L127.083277,152.821718 Z M126.807993,165.56735 L132.850469,171.499712 L122.91273,181.299809 L116.925311,175.31239 L123.600939,168.719348 L125.665566,170.783975 C125.778665,170.897089 125.943521,170.941269 126.098028,170.899872 C126.252535,170.858476 126.373219,170.737792 126.414616,170.583285 C126.456012,170.428777 126.411832,170.263922 126.298718,170.150822 L124.247855,168.099959 L126.807993,165.56735 Z M122.898965,173.550575 C121.931159,173.550575 121.13715,174.344584 121.13715,175.31239 C121.13715,176.280197 121.931159,177.060441 122.898965,177.060441 C123.866772,177.060441 124.647016,176.280197 124.647016,175.31239 C124.647016,174.344584 123.866772,173.550575 122.898965,173.550575 Z M147.798369,173.949737 L149.023381,178.065227 C149.018693,178.069713 149.014103,178.074302 149.009617,178.078991 L146.642178,180.460194 L142.361518,179.386588 L147.798369,173.949737 Z M122.898965,174.417719 C123.390694,174.417719 123.779873,174.820662 123.779873,175.31239 C123.779873,175.804119 123.390694,176.193298 122.898965,176.193298 C122.407237,176.193298 122.004294,175.804119 122.004294,175.31239 C122.004294,174.820662 122.407237,174.417719 122.898965,174.417719 Z M149.326193,179.028719 L150.000638,181.299809 L147.633199,180.70795 L149.326193,179.028719 Z" id="Shape" fill="#F6B250" fill-rule="nonzero"></path>
            <g id="Group-3" transform="translate(455.848114, 219.000000)" fill-rule="nonzero" fill="#F6B250">
                <path d="M23.1891843,0.46178214 L0.499441725,0.46178214 C0.224892019,0.46178214 0,0.686196682 0,0.961223865 L0,42.9358152 C0,43.2103649 0.224892019,43.435257 0.499441725,43.435257 L23.1891843,43.435257 C23.4689863,43.435257 23.688626,43.2108424 23.688626,42.9358152 L23.688626,0.961223865 C23.688626,0.686196682 23.4689863,0.46178214 23.1891843,0.46178214 Z M0.998883449,1.46018811 L22.6902201,1.46018811 L22.6902201,6.8914975 L0.998883449,6.8914975 L0.998883449,1.46018811 Z M22.6897426,42.4363735 L0.998883449,42.4363735 L0.998883449,36.6951811 L22.6902201,36.6951811 L22.6902201,42.4363735 L22.6897426,42.4363735 Z M4.47301154,35.6518922 L4.47301154,32.2570254 L9.91482544,32.2570254 L9.91482544,35.6518922 L4.47301154,35.6518922 Z M13.8086565,35.6518922 L13.8086565,32.2570254 L19.2499929,32.2570254 L19.2499929,35.6518922 L13.8086565,35.6518922 Z M22.6897426,35.6967751 L20.2483989,35.6967751 L20.2483989,31.7580611 C20.2483989,31.4835114 20.0239843,31.2586194 19.7489571,31.2586194 L13.3096922,31.2586194 C13.0351425,31.2586194 12.8102505,31.483034 12.8102505,31.7580611 L12.8102505,35.6967751 L10.9132314,35.6967751 L10.9132314,31.7580611 C10.9132314,31.4835114 10.6883394,31.2586194 10.4137897,31.2586194 L3.9740473,31.2586194 C3.69949759,31.2586194 3.47460557,31.483034 3.47460557,31.7580611 L3.47460557,35.6967751 L0.998405971,35.6967751 L0.998405971,7.89038095 L22.6897426,7.89038095 L22.6897426,35.6967751 Z" id="Shape"></path>
                <path d="M13.6759177,4.32553208 L10.5264744,4.32553208 C10.2509698,4.32553208 10.0270327,4.10207249 10.0270327,3.82609035 C10.0270327,3.55010822 10.2504923,3.32664863 10.5264744,3.32664863 L13.6759177,3.32664863 C13.9514223,3.32664863 14.1753594,3.55010822 14.1753594,3.82609035 C14.1753594,4.10207249 13.9514223,4.32553208 13.6759177,4.32553208 Z" id="Shape"></path>
                <path d="M11.899223,40.9719493 C10.8669161,40.9719493 10.0270327,40.1320659 10.0270327,39.099759 C10.0270327,38.0674521 10.8669161,37.2275687 11.899223,37.2275687 C12.9315299,37.2275687 13.7714132,38.0674521 13.7714132,39.099759 C13.7714132,40.1320659 12.9315299,40.9719493 11.899223,40.9719493 Z M11.899223,38.2259747 C11.4174479,38.2259747 11.0254387,38.617984 11.0254387,39.099759 C11.0254387,39.581534 11.4174479,39.9735433 11.899223,39.9735433 C12.380998,39.9735433 12.7730072,39.581534 12.7730072,39.099759 C12.7730072,38.617984 12.380998,38.2259747 11.899223,38.2259747 Z" id="Shape"></path>
                <path d="M17.9249921,18.1723868 L5.75169695,18.1723868 C5.47619229,18.1723868 5.25225523,17.9489272 5.25225523,17.6729451 C5.25225523,17.3969629 5.47571482,17.1735033 5.75169695,17.1735033 L17.9249921,17.1735033 C18.2004968,17.1735033 18.4244339,17.3969629 18.4244339,17.6729451 C18.4244339,17.9489272 18.2009743,18.1723868 17.9249921,18.1723868 Z" id="Shape"></path>
                <path d="M13.7747556,20.0822978 L10.5264744,20.0822978 C10.2509698,20.0822978 10.0270327,19.8588382 10.0270327,19.582856 C10.0270327,19.3073514 10.2504923,19.0834143 10.5264744,19.0834143 L13.7747556,19.0834143 C14.0502602,19.0834143 14.2741973,19.3068739 14.2741973,19.582856 C14.2741973,19.8588382 14.0502602,20.0822978 13.7747556,20.0822978 Z" id="Shape"></path>
                <path d="M10.5054654,29.8858709 L4.06715546,29.8858709 C3.7916508,29.8858709 3.56771373,29.6624113 3.56771373,29.3864292 L3.56771373,22.9481192 C3.56771373,22.6726146 3.79117332,22.4486775 4.06715546,22.4486775 L10.5054654,22.4486775 C10.7809701,22.4486775 11.0049071,22.6721371 11.0049071,22.9481192 L11.0049071,29.3864292 C11.0049071,29.6619338 10.7814476,29.8858709 10.5054654,29.8858709 Z M4.56611971,28.8869874 L10.0060237,28.8869874 L10.0060237,23.4475609 L4.56611971,23.4475609 L4.56611971,28.8869874 Z" id="Shape"></path>
                <path d="M19.8406329,29.8858709 L13.4023229,29.8858709 C13.1268183,29.8858709 12.9028812,29.6624113 12.9028812,29.3864292 L12.9028812,22.9481192 C12.9028812,22.6726146 13.1263408,22.4486775 13.4023229,22.4486775 L19.8406329,22.4486775 C20.1161375,22.4486775 20.3400746,22.6721371 20.3400746,22.9481192 L20.3400746,29.3864292 C20.3400746,29.6619338 20.116615,29.8858709 19.8406329,29.8858709 Z M13.9012872,28.8869874 L19.3411911,28.8869874 L19.3411911,23.4475609 L13.9012872,23.4475609 L13.9012872,28.8869874 Z" id="Shape"></path>
                <path d="M11.8175743,15.979809 C10.3034923,15.979809 9.07207722,14.7479164 9.07207722,13.2343119 C9.07207722,11.7207074 10.3039698,10.4888149 11.8175743,10.4888149 C13.3316562,10.4888149 14.5630713,11.7207074 14.5630713,13.2343119 C14.5630713,14.7479164 13.3311787,15.979809 11.8175743,15.979809 Z M11.8175743,11.4872208 C10.8540242,11.4872208 10.0704832,12.2712393 10.0704832,13.2343119 C10.0704832,14.1973845 10.8545016,14.981403 11.8175743,14.981403 C12.7811244,14.981403 13.5646653,14.1973845 13.5646653,13.2343119 C13.5646653,12.2712393 12.7806469,11.4872208 11.8175743,11.4872208 Z" id="Shape"></path>
            </g>
            <g id="Group-4" transform="translate(449.848114, 85.000000)" fill-rule="nonzero" fill="#F7B659">
                <rect id="Rectangle-path" transform="translate(12.598061, 4.839498) rotate(67.499572) translate(-12.598061, -4.839498) " x="11.3483405" y="4.33285499" width="2.49944118" height="1.01328696"></rect>
                <rect id="Rectangle-path" transform="translate(4.882940, 12.470127) rotate(22.489841) translate(-4.882940, -12.470127) " x="3.6333154" y="11.963522" width="2.49924992" height="1.01320943"></rect>
                <rect id="Rectangle-path" transform="translate(4.766794, 23.279559) rotate(-22.500428) translate(-4.766794, -23.279559) " x="3.517073" y="22.7729151" width="2.49944118" height="1.01328696"></rect>
                <rect id="Rectangle-path" transform="translate(30.895670, 23.460426) rotate(-157.492085) translate(-30.895670, -23.460426) " x="29.6460173" y="22.9538097" width="2.49930594" height="1.01323214"></rect>
                <rect id="Rectangle-path" transform="translate(30.992656, 12.631414) rotate(157.504865) translate(-30.992656, -12.631414) " x="29.7429835" y="12.1247902" width="2.49934554" height="1.01324819"></rect>
                <rect id="Rectangle-path" transform="translate(23.390703, 4.954406) rotate(22.520695) translate(-23.390703, -4.954406) " x="22.8840952" y="3.70477246" width="1.01321613" height="2.49926646"></rect>
                <rect id="Rectangle-path" x="17.4956465" y="0.0675507587" width="1.01326138" height="4.93120538"></rect>
                <rect id="Rectangle-path" transform="translate(7.069126, 6.961835) rotate(45.000000) translate(-7.069126, -6.961835) " x="4.60354705" y="6.4552094" width="4.93115809" height="1.01325166"></rect>
                <rect id="Rectangle-path" x="0" y="17.360545" width="4.93120538" height="1.01326138"></rect>
                <rect id="Rectangle-path" transform="translate(6.935389, 28.771300) rotate(-135.000000) translate(-6.935389, -28.771300) " x="6.42876328" y="26.3057211" width="1.01325166" height="4.93115809"></rect>
                <rect id="Rectangle-path" transform="translate(28.740713, 28.917716) rotate(-135.000000) translate(-28.740713, -28.917716) " x="26.2751342" y="28.4110906" width="4.93115809" height="1.01325166"></rect>
                <rect id="Rectangle-path" x="30.803146" y="17.5631973" width="4.93120538" height="1.01326138"></rect>
                <rect id="Rectangle-path" transform="translate(28.891878, 7.142837) rotate(45.000000) translate(-28.891878, -7.142837) " x="28.3852525" y="4.67725844" width="1.01325166" height="4.93115809"></rect>
                <path d="M29.0468262,17.8334003 C29.0468262,11.6187305 23.9805193,6.61997435 17.8334003,6.61997435 C11.6187305,6.61997435 6.61997435,11.6862813 6.61997435,17.8334003 C6.61997435,23.3050117 10.6054691,27.8984633 15.8068775,28.844174 L15.8068775,30.9382475 C14.8611669,31.0057982 14.1181086,31.7488566 14.1181086,32.6945672 L14.1181086,40.0575999 C14.1181086,42.1516734 15.8068775,43.7728916 17.8334003,43.7728916 C19.9274738,43.7728916 21.548692,42.0841227 21.548692,40.0575999 L21.548692,32.6945672 C21.548692,31.7488566 20.8056337,30.9382475 19.8599231,30.9382475 L19.8599231,28.844174 C25.0613315,27.8984633 29.0468262,23.3050117 29.0468262,17.8334003 Z M7.63323573,17.8334003 C7.63323573,12.2266873 12.2266873,7.63323573 17.8334003,7.63323573 C23.4401133,7.63323573 28.0335648,12.2266873 28.0335648,17.8334003 C28.0335648,23.4401133 23.4401133,28.0335648 17.8334003,28.0335648 C12.2266873,28.0335648 7.63323573,23.4401133 7.63323573,17.8334003 Z M19.7923723,31.9515089 C20.1976768,31.9515089 20.5354306,32.2892626 20.5354306,32.6945672 L20.5354306,40.0575999 C20.5354306,41.5437166 19.319517,42.7596302 17.8334003,42.7596302 C16.3472836,42.7596302 15.1313699,41.5437166 15.1313699,40.0575999 L15.1313699,32.6945672 C15.1313699,32.2892626 15.4691237,31.9515089 15.8744283,31.9515089 L16.8201389,31.9515089 L16.8201389,28.9792755 C17.1578927,28.9792755 17.4956465,29.0468262 17.8334003,29.0468262 C18.1711541,29.0468262 18.5089079,29.0468262 18.8466617,28.9792755 L18.8466617,31.9515089 L19.7923723,31.9515089 Z" id="Shape"></path>
                <rect id="Rectangle-path" x="17.2929942" y="37.0853665" width="1.01326138" height="1.01326138"></rect>
                <rect id="Rectangle-path" x="17.2929942" y="39.6522953" width="1.01326138" height="1.01326138"></rect>
                <rect id="Rectangle-path" x="17.2929942" y="34.5184377" width="1.01326138" height="1.01326138"></rect>
                <polygon id="Shape" points="22.2241996 20.9407352 25.196433 17.900951 22.2917504 14.7936161 21.548692 15.4691237 23.8454178 17.8334003 21.4811413 20.1976768"></polygon>
                <polygon id="Shape" points="13.442601 14.7260654 10.4028168 17.7658495 13.3750502 20.8731844 14.1181086 20.1301261 11.8213828 17.7658495 14.1181086 15.401573"></polygon>
                <rect id="Rectangle-path" transform="translate(17.828594, 17.772304) rotate(-63.276086) translate(-17.828594, -17.772304) " x="11.7826913" y="17.2656641" width="12.0918054" height="1.01327979"></rect>
            </g>
            <g id="Group-5" transform="translate(279.848114, 0.000000)" fill-rule="nonzero" fill="#F7B659">
                <path d="M14.2913798,0.148683718 C14.0951155,0.186132386 13.954308,0.35943401 13.9578288,0.559208094 L13.9578288,2.76577661 C13.5540653,2.94366093 13.1706351,3.16210506 12.8160579,3.42004984 L10.8917248,2.31676558 C10.7966537,2.26146237 10.6833684,2.24661689 10.5772577,2.27555618 C10.471147,2.30449547 10.3810843,2.37479949 10.3272538,2.47071222 L8.27463195,6.03714273 C8.16805003,6.23236693 8.23630887,6.47696112 8.42857859,6.58878486 L10.3144249,7.67924024 C10.2875159,7.90187171 10.2631094,8.12313614 10.2631094,8.35917123 C10.2631094,8.59075624 10.2883977,8.8075829 10.3144249,9.02627334 L8.63384078,10.0012687 L2.05262188,10.0012687 C0.923852676,10.0012687 0,10.925121 0,12.0538906 C0,12.3534461 0.0648283673,12.6321429 0.179604414,12.8877683 L0.192433301,12.913426 L5.36247466,26.1528371 C5.42163422,26.3144158 5.57527313,26.4219631 5.74734126,26.4222438 L27.0946088,26.4222438 C27.2426586,26.4243376 27.3803672,26.3465532 27.4550031,26.2186759 C27.529639,26.0907985 27.529639,25.9326402 27.4550031,25.8047629 C27.3803672,25.6768856 27.2426586,25.5991012 27.0946088,25.601195 L6.02957677,25.601195 L4.91346362,22.7275244 L28.544273,22.7275244 C28.7163411,22.7272437 28.86998,22.6196964 28.9291396,22.4581178 L32.6495168,12.913426 L32.6623456,12.8877683 C32.7771217,12.6321429 32.8419501,12.3534461 32.8419501,12.0538906 C32.8419501,10.925121 31.9180974,10.0012687 30.7893282,10.0012687 L24.2081093,10.0012687 L22.5275251,9.02627334 C22.5535524,8.8075829 22.5788407,8.59075624 22.5788407,8.35917123 C22.5788407,8.12313614 22.554435,7.90187171 22.5275251,7.67924024 L24.4133715,6.58878486 C24.6056412,6.47696112 24.6739,6.23236693 24.5673181,6.03714273 L22.5146962,2.47071222 C22.4608658,2.37479949 22.3708031,2.30449547 22.2646924,2.27555618 C22.1585816,2.24661689 22.0452964,2.26146237 21.9502252,2.31676558 L20.0258922,3.42004984 C19.6713149,3.16210506 19.2878847,2.94366093 18.8841213,2.76577661 L18.8841213,0.559208094 C18.8840986,0.332491132 18.7003139,0.148706387 18.4735969,0.148683718 L14.3683532,0.148683718 C14.342752,0.146273236 14.316981,0.146273236 14.2913798,0.148683718 Z M14.7788775,0.96973247 L18.0630725,0.96973247 L18.0630725,2.99669657 C18.068611,3.16404213 18.1752159,3.3112584 18.3324792,3.36873429 C18.8633393,3.57262533 19.3523822,3.85369084 19.7821434,4.20261193 C19.9134421,4.30940618 20.0968192,4.32468761 20.2439833,4.24109859 L22.0015408,3.22761654 L23.6436383,6.08845828 L21.8860808,7.10194033 C21.7355695,7.18597383 21.6535795,7.35507812 21.6808186,7.52529359 C21.7248042,7.80451585 21.7577919,8.07981761 21.7577919,8.35917123 C21.7577919,8.6384797 21.7248022,8.91385535 21.6808186,9.19304887 C21.6592189,9.35892809 21.7404176,9.52132546 21.8860808,9.60357325 L23.6436383,10.6170553 L22.0015408,13.477897 L20.2439833,12.464415 C20.0968192,12.380826 19.9134421,12.3961074 19.7821434,12.5029017 C19.3523925,12.8518268 18.8633578,13.1328677 18.3324792,13.3367793 C18.1709005,13.3959388 18.0633532,13.5495778 18.0630725,13.7216459 L18.0630725,15.74861 L14.7788775,15.74861 L14.7788775,13.7216459 C14.7785968,13.5495778 14.6710496,13.3959388 14.5094709,13.3367793 C13.9785923,13.1328677 13.4895576,12.8518268 13.0598067,12.5029017 C12.9285079,12.3961074 12.7451308,12.380826 12.5979668,12.464415 L10.8404093,13.477897 L9.19831179,10.6170553 L10.9558693,9.60357325 C11.1015325,9.52132546 11.1827311,9.35892809 11.1611315,9.19304887 C11.1171471,8.91383072 11.0841581,8.6384797 11.0841581,8.35917123 C11.0841581,8.07981761 11.1171438,7.80449533 11.1611315,7.52529359 C11.1883705,7.35507812 11.1063806,7.18597383 10.9558693,7.10194033 L9.19831179,6.08845828 L10.8404093,3.22761654 L12.5979668,4.24109859 C12.7451308,4.32468761 12.9285079,4.30940618 13.0598067,4.20261193 C13.4895678,3.85369084 13.9786107,3.57262533 14.5094709,3.36873429 C14.6667342,3.3112584 14.773339,3.16404213 14.7788775,2.99669657 L14.7788775,0.96973247 Z M16.420975,5.4855006 C14.8387525,5.4855006 13.5473044,6.77694871 13.5473044,8.35917123 C13.5473044,9.94138965 14.8387525,11.2328419 16.420975,11.2328419 C18.0031976,11.2328419 19.2946457,9.94138965 19.2946457,8.35917123 C19.2946457,6.77694871 18.0031976,5.4855006 16.420975,5.4855006 Z M16.420975,6.30654935 C17.55947,6.30654935 18.4735969,7.2206763 18.4735969,8.35917123 C18.4735969,9.49766206 17.55947,10.4117931 16.420975,10.4117931 C15.2824801,10.4117931 14.3683532,9.49766206 14.3683532,8.35917123 C14.3683532,7.2206763 15.2824801,6.30654935 16.420975,6.30654935 Z M2.05262188,10.8223175 L8.35160527,10.8223175 L10.3272538,14.2476302 C10.3832337,14.341375 10.4742492,14.40896 10.5801762,14.4354417 C10.6861032,14.4619235 10.7982157,14.4451205 10.8917248,14.388748 L12.8160579,13.2854637 C13.1706405,13.5434126 13.5540731,13.7618526 13.9578288,13.939737 L13.9578288,16.1591344 C13.9578514,16.3858513 14.1416362,16.5696361 14.3683532,16.5696587 L18.4735969,16.5696587 C18.7003139,16.5696361 18.8840986,16.3858513 18.8841213,16.1591344 L18.8841213,13.939737 C19.2878769,13.7618526 19.6713096,13.5434126 20.0258922,13.2854637 L21.9502252,14.388748 C22.0437344,14.4451205 22.1558469,14.4619235 22.2617739,14.4354417 C22.3677009,14.40896 22.4587164,14.341375 22.5146962,14.2476302 L24.4903448,10.8223175 L30.7893282,10.8223175 C31.4743698,10.8223175 32.0209013,11.3688486 32.0209013,12.0538906 C32.0209013,12.23868 31.9791153,12.4086001 31.9054413,12.5670461 C31.9008675,12.5754466 31.8965886,12.5840044 31.8926124,12.5927039 L28.2620375,21.9064756 L4.59274145,21.9064756 L0.949337619,12.5927039 C0.945361505,12.5840044 0.941082599,12.5754466 0.936508732,12.5670461 C0.862834796,12.4086001 0.821048751,12.23868 0.821048751,12.0538906 C0.821048751,11.3688486 1.36758026,10.8223175 2.05262188,10.8223175 Z M8.19765863,28.8725611 C7.06888655,28.8725611 6.15786564,29.8221861 6.15786564,30.9508408 C6.15786564,32.0796186 7.06888655,32.9906338 8.19765863,32.9906338 C9.3264307,32.9906338 10.2759383,32.0796186 10.2759383,30.9508408 C10.2759383,29.8221861 9.3264307,28.8725611 8.19765863,28.8725611 Z M24.6442914,28.8725611 C23.5155194,28.8725611 22.5660118,29.8221861 22.5660118,30.9508408 C22.5660118,32.0796186 23.5155194,32.9906338 24.6442914,32.9906338 C25.7730635,32.9906338 26.6840844,32.0796186 26.6840844,30.9508408 C26.6840844,29.8221861 25.7730635,28.8725611 24.6442914,28.8725611 Z M8.19765863,29.6936099 C8.88270394,29.6936099 9.45488953,30.2658398 9.45488953,30.9508408 C9.45488953,31.636006 8.88270394,32.169585 8.19765863,32.169585 C7.51261332,32.169585 6.9660855,31.636006 6.9660855,30.9508408 C6.9660855,30.2658398 7.51261332,29.6936099 8.19765863,29.6936099 Z M24.6442914,29.6936099 C25.3293367,29.6936099 25.8758646,30.2658398 25.8758646,30.9508408 C25.8758646,31.636006 25.3293367,32.169585 24.6442914,32.169585 C23.9592461,32.169585 23.3870605,31.636006 23.3870605,30.9508408 C23.3870605,30.2658398 23.9592461,29.6936099 24.6442914,29.6936099 Z" id="Shape"></path>
            </g>
            <ellipse id="Oval-5" fill="#D8D8D8" opacity="0.250169837" filter="url(#filter-3)" cx="330.618119" cy="535" rx="98.7700052" ry="6"></ellipse>
        </g>
    </g>
</svg>