<?xml version="1.0" encoding="UTF-8"?>
<svg width="1107px" height="335px" viewBox="0 0 1107 335" version="1.1" xmlns="http://www.w3.org/2000/svg" xmlns:xlink="http://www.w3.org/1999/xlink">
    <!-- Generator: Sketch 45.1 (43504) - http://www.bohemiancoding.com/sketch -->
    <title>Group 32</title>
    <desc>Created with Sketch.</desc>
    <defs>
        <filter x="-82.5%" y="-36.6%" width="264.9%" height="173.2%" filterUnits="objectBoundingBox" id="filter-1">
            <feGaussianBlur stdDeviation="7.50837054" in="SourceGraphic"></feGaussianBlur>
        </filter>
        <polygon id="path-2" points="0.516879442 0.107834152 85.6223426 0.107834152 85.6223426 62.9660894 0.516879442 62.9660894 0.516879442 0.107834152"></polygon>
        <polygon id="path-4" points="0 80.977017 0 0.144706334 50.4580917 0.144706334 50.4580917 80.977017"></polygon>
        <polygon id="path-6" points="0 80.977017 0 0.552304406 49.1326958 0.552304406 49.1326958 80.977017"></polygon>
        <polygon id="path-8" points="101.164923 105.192277 101.164923 0.999450721 -1.35525272e-20 0.999450721 -1.35525272e-20 105.192277 101.164383 105.192277 101.164383 1.00022242 -3.10517857e-05 1.00022242 -3.10517857e-05 105.192826 101.164383 105.192826"></polygon>
        <rect id="path-10" x="0" y="0" width="46.3126756" height="81.8190603" rx="4"></rect>
        <path d="M7.71877927,6.98060086 C7.71877927,5.87149212 8.60951411,4.97238184 9.72079243,4.97238184 L36.5918832,4.97238184 C37.6975645,4.97238184 38.5938964,5.86218409 38.5938964,6.98060086 L38.5938964,14.8025382 C38.5938964,15.911647 37.7031615,16.8107573 36.5918832,16.8107573 L9.72079243,16.8107573 C8.6151111,16.8107573 7.71877927,15.920955 7.71877927,14.8025382 L7.71877927,6.98060086 Z" id="path-12"></path>
        <rect id="path-13" x="7.71877927" y="21.612582" width="30.8751171" height="13.8938027" rx="2"></rect>
        <rect id="path-14" x="7.71877927" y="47.8564315" width="30.8751171" height="13.8938027" rx="2"></rect>
        <rect id="path-15" x="7.71877927" y="74.100281" width="30.8751171" height="13.8938027" rx="2"></rect>
        <rect id="path-16" x="0" y="129.080679" width="46.6887564" height="79.9038228" rx="4"></rect>
        <rect id="path-18" x="3.8907297" y="15.8300026" width="23.3443782" height="22.6142895" rx="2"></rect>
        <rect id="path-19" x="2.33443782" y="9.04571578" width="26.456962" height="25.6295281" rx="2"></rect>
        <rect id="path-20" x="0" y="0" width="31.1258376" height="30.1523859" rx="2"></rect>
        <rect id="path-21" x="0" y="129.080679" width="46.6887564" height="79.9038228" rx="4"></rect>
        <polygon id="path-23" points="1.90686123e-16 2.67899676 1.90686123e-16 1.41193875 1.52912126 1.41193875 1.52912126 2.67899676 0 2.67899676"></polygon>
    </defs>
    <g id="Page-1" stroke="none" stroke-width="1" fill="none" fill-rule="evenodd">
        <g id="Group-32" transform="translate(0.600917, 0.685176)">
            <path d="M779.669189,116.149671 L779.669189,102.814236" id="Stroke-1-Copy-3" stroke="#BEDDF9" stroke-width="5" opacity="0.569746377" stroke-linecap="round" stroke-linejoin="round"></path>
            <path d="M773.288095,109.19533 L786.62353,109.19533" id="Stroke-3-Copy-3" stroke="#BEDDF9" stroke-width="5" opacity="0.569746377" stroke-linecap="round" stroke-linejoin="round"></path>
            <path d="M733.40626,49.1481877 L733.40626,35.8127529" id="Stroke-6-Copy-3" stroke="#BEDDF9" stroke-width="5" opacity="0.569746377" stroke-linecap="round" stroke-linejoin="round"></path>
            <path d="M727.025166,42.9914832 L740.360601,42.9914832" id="Stroke-7-Copy-5" stroke="#BEDDF9" stroke-width="5" opacity="0.569746377" stroke-linecap="round" stroke-linejoin="round"></path>
            <path d="M654.079661,34.2145498 C653.466231,35.3613972 653.499569,36.7482824 654.173009,37.8617912 C654.83978,38.9753 656.046637,39.6554072 657.346842,39.6554072 L688.431741,39.6554072 C689.731946,39.6554072 690.938803,38.9753 691.605574,37.8617912 C692.272346,36.7482824 692.312352,35.3613972 691.698922,34.2145498 L676.156473,5.06995692 C675.509705,3.86310006 674.256174,3.10964799 672.889292,3.10964799 C671.522409,3.10964799 670.268879,3.86310006 669.62211,5.06995692 L654.079661,34.2145498 Z" id="Stroke-8-Copy-5" stroke="#BEDDF9" stroke-width="5" opacity="0.569746377" stroke-linecap="round" stroke-linejoin="round"></path>
            <path d="M686.345694,132.76118 L686.345694,126.386842 C686.345694,122.132839 689.792904,118.698964 694.04024,118.698964 L700.40791,118.698964 C704.661914,118.698964 708.102456,115.251754 708.102456,110.997751 L708.102456,104.623413 C708.102456,100.382744 711.549666,96.9355345 715.797002,96.9355345 L722.17134,96.9355345 C726.418676,96.9355345 729.859218,93.4883246 729.859218,89.2476563 L729.859218,82.8733184" id="Stroke-10-Copy-5" stroke="#BEDDF9" stroke-width="5" opacity="0.569746377" stroke-linecap="round" stroke-linejoin="round"></path>
            <path d="M992.958194,103.425735 C984.926354,85.2500768 955.674475,62.7653209 922.241206,80.7761953 C888.80931,98.7843233 903.508029,136.982592 907.354359,141.667946 C905.846587,148.7358 905.0927,153.590057 905.0927,153.590057 L916.363916,152.159184 C916.363916,152.159184 934.480526,174.946044 971.197114,159.214679 C1007.92194,143.483315 993.47177,104.588834 993.47177,104.588834 L992.958194,103.425735 Z" id="Fill-1-Copy-2" fill="#F8CA65"></path>
            <path d="M118.914475,4.37692977 C110.187797,0.424863862 91.6180309,-4.10669191 74.8883509,6.87203184 C62.7451546,14.8434504 54.2999825,30.4320022 56.7140659,44.9165023 C59.1281492,59.3996292 76.3906303,86.2154537 115.757491,70.9894264 L128.200045,73.4035097 L129.871228,59.1442142 C129.871228,59.1442142 135.442295,48.3343939 135.627677,32.5508479 C135.813058,16.7659286 127.642526,8.32899568 118.914475,4.37692977" id="Fill-1-Copy-3" fill="#79C4B4"></path>
            <g id="Group-23-Copy" transform="translate(595.968243, 270.520147)">
                <path d="M15.5370094,0 C14.2185272,1.31848223 14.2185272,3.45595341 15.5370094,4.77218567 L17.5147327,6.74990901 C18.830965,8.06839123 18.830965,10.2058624 17.5147327,11.5220947 L15.5370094,13.499818 C14.2185272,14.8183002 14.2185272,16.9557714 15.5370094,18.2720037" id="Stroke-156" stroke="#D7D7D7" stroke-linecap="round" stroke-linejoin="round"></path>
                <path d="M23.7940662,0 C22.475584,1.31848223 22.475584,3.45595341 23.7940662,4.77218567 L25.7717895,6.74990901 C27.0880218,8.06839123 27.0880218,10.2058624 25.7717895,11.5220947 L23.7940662,13.499818 C22.475584,14.8183002 22.475584,16.9557714 23.7940662,18.2720037" id="Stroke-158" stroke="#D7D7D7" stroke-linecap="round" stroke-linejoin="round"></path>
                <path d="M34.6451208,52.7613998 C34.6451208,53.4684458 27.5937159,54.0422802 18.8953331,54.0422802 C10.1969504,54.0422802 3.14554545,53.4684458 3.14554545,52.7613998 C3.14554545,52.0543538 10.1969504,51.4805194 18.8953331,51.4805194 C27.5937159,51.4805194 34.6451208,52.0543538 34.6451208,52.7613998" id="Fill-160" fill="#E3D0B1"></path>
                <path d="M8.99987868,47.9888389 C4.03644559,47.9888389 0,43.9523933 0,38.9889602 C0,34.0255271 4.03644559,29.9890815 8.99987868,29.9890815 L8.99987868,34.4890209 C6.51816213,34.4890209 4.49993934,36.5072437 4.49993934,38.9889602 C4.49993934,41.4706768 6.51816213,43.4888996 8.99987868,43.4888996 L8.99987868,47.9888389 L8.99987868,47.9888389 Z" id="Stroke-164" fill="#C87373"></path>
                <path d="M31.2618937,49.965835 C31.2618937,51.2078183 30.2539073,52.2158047 29.011924,52.2158047 L11.2934128,52.2158047 C10.0514296,52.2158047 9.04344318,51.2078183 9.04344318,49.965835 L9.04344318,26.3411535 C9.04344318,25.0991702 10.0514296,24.0911838 11.2934128,24.0911838 L29.011924,24.0911838 C30.2539073,24.0911838 31.2618937,25.0991702 31.2618937,26.3411535 L31.2618937,49.965835 Z" id="Fill-166" fill="#C87373"></path>
            </g>
            <path d="M1048.93202,297.644648 C1044.56214,296.583241 1041.63388,296.122634 1040.14724,296.262828 C1038.66059,296.403022 1034.88387,297.495923 1028.81707,299.541532 C1025.00166,300.657532 1022.40722,300.657532 1021.03373,299.541532 C1019.66024,298.425531 1017.0924,294.231018 1013.33021,286.957995 C1001.92134,261.381508 996.469396,244.875129 996.974375,237.438859 C997.545052,229.035129 1002.87896,224.69494 1008.1144,221.951808 C1016.24655,217.690935 1023.14744,218.236199 1028.81707,223.587602 L1037.23469,200.157241 L1056.25731,213.984012 L1042.16135,193.113992 C1048.8374,184.950644 1056.35482,179.137043 1064.7136,175.673191 C1077.25177,170.477411 1093.42794,182.274417 1101.58084,190.633451 C1107.0161,196.20614 1107.17582,207.225738 1102.05999,223.692244 L1074.75508,289.472208 C1071.49758,295.367821 1068.57763,298.724262 1065.99524,299.541532 C1063.41286,300.358801 1057.72511,299.726507 1048.93202,297.644648 Z" id="Path-33-Copy" stroke="#64CA90" fill="#6BDA9B"></path>
            <path d="M1049.76483,298.005593 C1050.50783,280.548119 1051.27415,268.753126 1052.0638,262.620612 C1053.86467,248.634738 1055.71012,240.768606 1056.41394,237.991794 C1059.13121,227.27109 1062.43404,216.87618 1063.52082,214.822355 C1065.67056,210.759741 1067.44622,204.939935 1068.84783,202.43941 C1071.41437,197.860594 1076.57222,189.886068 1084.32138,178.515833 C1077.41451,187.879532 1072.25666,195.311639 1068.84783,200.812155 C1063.73459,209.062928 1054.58892,226.142051 1050.08547,261.157797 C1047.08317,284.501628 1046.97629,296.784227 1049.76483,298.005593 Z" id="Path-34-Copy" fill="#5BBC83"></path>
            <path d="M1053.24342,185.381827 L1067.78156,204.04381 C1064.63322,198.69663 1062.09856,194.593193 1060.17758,191.7335 C1058.2566,188.873807 1055.94521,186.756583 1053.24342,185.381827 Z" id="Path-35-Copy" fill="#5BBC83"></path>
            <path d="M1068.3486,201.516469 L1104.25855,200.487013 L1104.49142,200.847018 C1089.95589,201.765973 1080.67413,202.178402 1076.64614,202.084307 C1072.61816,201.990211 1069.85231,201.800931 1068.3486,201.516469 Z" id="Path-36-Copy" fill="#5BBC83"></path>
            <path d="M1057.36301,229.613801 C1066.7935,226.163387 1073.92698,223.826453 1078.76344,222.603 C1083.59991,221.379547 1092.00898,219.387325 1103.99067,216.626333 L1103.99067,215.592199 C1092.19412,218.271992 1083.41332,220.354139 1077.64826,221.838639 C1071.88321,223.32314 1065.12146,225.243201 1057.36301,227.59882 L1057.36301,229.613801 Z" id="Path-37-Copy" fill="#5BBC83"></path>
            <path d="M1055.9946,231.866968 L1035.39183,208.726205 C1047.20208,219.560029 1053.70342,226.555448 1054.89586,229.712463 C1056.0883,232.869478 1056.45455,233.587647 1055.9946,231.866968 Z" id="Path-38-Copy" fill="#5BBC83"></path>
            <path d="M1089.74636,245.80257 C1082.75378,250.372809 1076.84063,253.881029 1072.0069,256.32723 C1065.30177,259.72049 1055.65197,262.787666 1052.30707,265.353695 C1047.95801,268.690053 1048.98397,265.033743 1050.06856,263.430484 C1050.50296,262.788338 1063.72889,256.912366 1089.74636,245.80257 Z" id="Path-39-Copy-4" fill="#5BBC83"></path>
            <path d="M1075.01422,276.773946 C1070.2867,280.640222 1066.28895,283.608064 1063.02098,285.677472 C1058.48779,288.548061 1054.18293,290.761529 1051.47174,292.375959 C1047.59946,294.681778 1049.22507,292.10529 1049.95833,290.748984 C1050.25202,290.205748 1058.60398,285.547402 1075.01422,276.773946 Z" id="Path-39-Copy-5" fill="#5BBC83" transform="translate(1062.000962, 285.036517) rotate(10.000000) translate(-1062.000962, -285.036517) "></path>
            <path d="M1053.0267,241.557857 C1046.03413,246.128096 1040.12098,249.636316 1035.28725,252.082516 C1028.58212,255.475776 1018.93232,258.542952 1015.58741,261.108982 C1011.23836,264.445339 1012.26432,260.78903 1013.3489,259.185771 C1013.78331,258.543624 1027.00924,252.667653 1053.0267,241.557857 Z" id="Path-39-Copy-6" fill="#5BBC83" transform="translate(1032.715435, 252.013065) scale(-1, 1) rotate(-12.000000) translate(-1032.715435, -252.013065) "></path>
            <path d="M1025.63383,272.002464 C1029.38145,275.958137 1032.59772,279.07033 1035.28265,281.339043 C1039.00707,284.4861 1044.60741,287.828979 1046.34983,289.969268 C1048.61533,292.752078 1048.46049,290.221631 1047.99754,289.023939 C1047.81211,288.544232 1040.35755,282.870407 1025.63383,272.002464 Z" id="Path-39-Copy-7" fill="#5BBC83" transform="translate(1036.956886, 281.614855) rotate(-8.000000) translate(-1036.956886, -281.614855) "></path>
            <path d="M1070.42346,333.687288 L1080.01828,307.596513 L1007.92786,307.596513 L1017.08943,333.687288 L1070.42346,333.687288 Z" id="Combined-Shape" fill="#FF8E70"></path>
            <path d="M253.008744,333.687288 L261.988205,307.596513 L190.874622,307.596513 L199.937359,333.687288 L253.008744,333.687288 Z" id="Combined-Shape" fill="#976B8E"></path>
            <path d="M228.232299,303.783744 C216.631358,302.621498 209.589914,296.224853 207.107967,284.593809 C204.62602,272.962766 206.540801,263.260463 212.852309,255.4869 C206.67265,252.06332 201.352875,246.454823 196.892984,238.661407 C192.433092,230.867992 189.981995,223.150924 189.539692,215.510204 C189.159612,204.4648 191.610709,195.158939 196.892984,187.59262 C202.175258,180.026301 208.274961,173.653924 215.192092,168.475488 L216.026761,143.207725 C216.65851,137.982419 218.064289,133.863965 220.244099,130.852363 C222.423909,127.840762 225.597145,126.334961 229.763806,126.334961 C234.000511,126.28928 237.290168,128.549616 239.632777,133.115968 C241.975386,137.682321 244.004629,145.151821 245.720505,155.52447 L247.838288,189.994592 C253.275864,201.808601 256.758669,211.43383 258.286701,218.87028 C260.57875,230.024955 261.0669,247.797334 255.642372,275.174974 C252.02602,293.426734 242.889329,302.96299 228.232299,303.783744 Z" id="Path-42-Copy" stroke="#64CA90" fill="#6BDA9B"></path>
            <path d="M227.950987,302.188443 L227.950987,196.367417" id="Path-43-Copy" stroke="#5BBC83"></path>
            <path d="M228.030983,214.055241 C230.135359,212.074585 231.712785,210.575894 232.763261,209.559169 C233.813736,208.542444 236.43626,205.976125 240.63083,201.860211 C238.582095,204.517281 236.761042,206.819421 235.167672,208.766634 C233.656773,210.61306 230.962068,213.091986 228.030983,215.166599 C227.924322,215.242093 227.924322,215.939269 228.030983,217.258127 L228.030983,214.055241 Z" id="Path-44-Copy" fill="#5BBC83"></path>
            <path d="M227.643763,238.670193 C221.373492,232.753747 217.153018,228.29011 214.982343,225.279281 C212.811668,222.268453 208.437624,215.377562 201.860211,204.606609 C208.375975,213.571946 213.338919,220.187347 216.749042,224.452811 C220.159166,228.718275 223.94431,233.045192 228.104475,237.433563 L227.643763,238.670193 Z" id="Path-45-Copy" fill="#5BBC83"></path>
            <path d="M229.324186,272.272407 C232.878728,269.742718 235.474163,267.781555 237.110492,266.388918 C238.746821,264.996281 243.291634,260.880562 250.744932,254.041763 C245.692259,260.093614 241.629477,264.618528 238.556587,267.616504 C235.483696,270.614481 232.406229,272.825836 229.324186,274.250572 L229.324186,272.272407 Z" id="Path-46-Copy" fill="#5BBC83"></path>
            <path d="M321.354219,333.687288 L318.310792,245.80257 L297.336081,248.761599 L282.520333,262.293569 L278.75934,303.881631 L291.287437,333.687288 L321.354219,333.687288 Z" id="Combined-Shape" fill="#B2B2B2"></path>
            <polygon id="Path-57-Copy-3" fill="#7F7A7A" filter="url(#filter-1)" points="324.541722 245.80257 326.673137 307.35121 309.683379 307.35121 299.35732 282.784434 301.752134 256.30322 311.186067 247.686733"></polygon>
            <path d="M295.192738,333.687288 C286.691535,324.975533 281.749024,309.007584 280.365205,285.783441 C281.603688,268.900969 286.533817,258.073386 295.155594,253.300691 C303.777371,248.527996 310.408638,246.929349 315.049396,248.504751 L318.80088,241.730841 C311.825159,238.864266 303.943397,240.334535 295.155594,246.141648 C281.97389,254.852319 277.970405,260.163355 272.370914,275.944314 C267.163428,290.620492 261.72898,310.530085 263.238534,333.68728 L295.192738,333.687288 Z" id="Combined-Shape" fill="#E2E2E2"></path>
            <path d="M347.566031,236.2486 C342.793839,235.94925 338.355805,236.800309 334.251928,238.801775 C328.096114,241.803975 323.169896,240.378583 318.825844,241.803975 C314.481791,243.229367 305.712758,247.737888 306.246627,259.685337 C306.60254,267.650303 306.780497,273.910107 306.780497,278.464748 L334.251928,278.464748 L334.251928,304.920529 L384.207939,304.920529 C391.062908,307.02186 394.583068,311.391045 394.768422,318.028081 C394.953775,324.665118 400.303353,323.644627 410.817156,314.966607 L410.817156,253.973326 C409.785965,245.860425 406.018858,241.803975 399.515832,241.803975 C393.012807,241.803975 375.696206,239.952183 347.566031,236.2486 Z" id="Path-53-Copy" fill="#ED7654"></path>
            <path d="M307.596513,277.386141 L307.596513,308.705396 C307.596513,314.463473 308.717505,318.226446 310.959491,319.994316 C313.201476,321.762186 315.40253,323.016393 317.562654,323.756939 L400.427199,323.756939 C401.504938,319.89436 399.900437,315.952412 395.613699,311.931095 C391.32696,307.909778 387.632218,305.517468 384.529475,304.754164 L335.021843,304.754164 L335.021843,277.386141 L307.596513,277.386141 Z" id="Path-54-Copy" fill="#F7D5A5"></path>
            <path d="M400.974026,278.75934 L411.239488,278.75934 L411.239488,310.489161 L434.929551,310.489161 C440.506431,310.49637 444.64821,312.312064 447.354888,315.936243 C450.061566,319.560423 451.814563,322.126967 452.61388,323.635876 L400.974026,323.635876 L400.974026,278.75934 Z" id="Path-55-Copy" fill="#F7D5A5"></path>
            <rect id="Rectangle-16-Copy" fill="#F7D5A5" x="344.672878" y="212.845801" width="27.4639744" height="39.8227628" rx="13.7319872"></rect>
            <path d="M354.89762,188.187278 C358.682658,186.112738 361.504297,183.762306 363.362536,181.135983 C365.220775,178.50966 365.46929,175.668979 364.108081,172.61394 C374.879549,175.724929 383.45285,176.596006 389.827983,175.227171 C396.203115,173.858336 404.298991,168.836105 414.115608,160.160478 L404.430748,158.623435 L410.584578,153.965211 C404.610634,152.440123 393.005032,152.047662 375.767771,152.78783 C358.53051,153.527998 349.081012,163.718329 347.419276,183.358823 L354.89762,188.187278 Z" id="Path-47-Copy" fill="#AD8351"></path>
            <path d="M402.347224,168.476122 C404.016467,173.165187 405.011572,176.347047 405.332538,178.021703 C405.653504,179.696359 405.850137,181.59737 405.922438,183.724735 L406.349692,187.873528 C407.461182,184.34884 408.095028,181.349306 408.251232,178.874925 C408.407436,176.400545 407.554621,172.161252 405.692789,166.157045 L402.347224,168.476122 Z" id="Path-48-Copy" fill="#B08362"></path>
            <path d="M347.419276,182.61248 L347.419276,212.001938 C351.192329,214.882802 353.93798,216.805133 355.656228,217.768931 C357.374476,218.73273 359.724587,219.581904 362.706561,220.316454 C368.809203,221.059848 373.024519,221.059848 375.352508,220.316454 C377.680496,219.57306 379.808144,217.54757 381.735452,214.239982 C382.079657,212.523942 382.524073,211.33466 383.068699,210.672134 C383.613325,210.009608 384.605419,209.451409 386.044981,208.997535 C389.79676,209.467355 392.77775,209.702265 394.98795,209.702265 C397.198151,209.702265 399.100183,209.467355 400.694046,208.997535 C403.746957,210.132156 406.048133,209.886687 407.597572,208.261127 C409.147012,206.635568 408.923207,204.076583 406.926158,200.584172 L405.849516,197.745337 C406.441692,188.856307 406.441692,182.803664 405.849516,179.587408 C405.257339,176.371151 404.169293,172.809829 402.585376,168.903442 C397.867652,172.89015 390.917677,174.869206 381.735452,174.84061 C372.553226,174.812015 366.210263,173.749625 362.706561,171.653441 C363.512444,175.393858 363.512444,178.038514 362.706561,179.587408 C361.900678,181.136302 359.248476,183.589131 354.749956,186.945897 L347.419276,182.61248 Z" id="Path-49-Copy" fill="#F7D5A5"></path>
            <rect id="Rectangle-14-Copy-2" fill="#9B6F48" x="377.629647" y="184.008628" width="13.3433358" height="4.32333501" rx="2.16166751"></rect>
            <rect id="Rectangle-14-Copy-3" fill="#9B6F48" x="398.227628" y="184.008628" width="8.42212092" height="4.32333501" rx="2.16166751"></rect>
            <path d="M382.642875,210.099404 C379.525149,215.272077 374.909248,217.985485 368.795172,218.239628 C362.681095,218.493771 357.313015,216.573055 352.690931,212.47748 L343.299679,215.555506 L344.170957,220.493235 C349.191623,227.466504 353.682731,232.299126 357.64428,234.991103 C359.896338,236.521435 363.128065,238.141981 367.339461,239.852741 C370.536248,241.151344 383.417019,243.556471 390.304263,241.298959 C393.31316,240.312697 395.937202,238.902033 398.176389,237.066965 C398.611916,236.710041 402.079509,233.671898 403.732679,228.009166 C404.617454,224.978477 404.903032,219.008556 404.589413,210.099404 L382.642875,210.099404 Z" id="Path-51-Copy" fill="#AD8351"></path>
            <path d="M381.749243,211.314901 C382.851072,208.7764 384.44573,207.507149 386.533218,207.507149 C387.635673,207.507149 389.890071,207.160328 393.230091,207.507149 C394.250354,207.613091 395.566534,207.613091 397.178632,207.507149 L400.832424,207.507149 C402.096468,207.594084 403.111901,208.026144 403.878723,208.803327 C404.645546,209.58051 404.882442,210.417702 404.589413,211.314901 C404.107312,211.604066 401.065894,211.783365 395.465157,211.852799 C391.933923,211.896577 388.811647,211.841478 386.098329,211.687501 C385.038224,211.627341 383.588529,211.503141 381.749243,211.314901 Z" id="Path-50-Copy" fill="#9B6F48"></path>
            <circle id="Oval-12-Copy-2" fill="#6D5263" cx="383.692817" cy="195.564593" r="1.94357395"></circle>
            <circle id="Oval-12-Copy-3" fill="#6D5263" cx="402.917599" cy="195.564593" r="1.94357395"></circle>
            <ellipse id="Oval-13-Copy" fill="#9E5555" cx="346.046077" cy="204.017713" rx="16.4783846" ry="21.382284"></ellipse>
            <ellipse id="Oval-13-Copy-2" fill="#CC6464" cx="344.672878" cy="204.606609" rx="13.7319872" ry="16.4783846"></ellipse>
            <path d="M344.912239,182.614325 C343.826456,174.858732 346.434648,167.708833 352.736815,161.164628 C359.038982,154.620423 367.949341,151.751452 379.467891,152.557714 C367.869554,155.403957 360.491572,159.815275 357.333948,165.791667 C354.176323,171.768059 352.643945,177.832574 352.736815,183.985211 L344.912239,182.614325 Z" id="Path-52-Copy" fill="#9E5555"></path>
            <path d="M317.895503,324.074897 L643.343599,324.074897 L643.343599,324.074897 C645.997988,324.074897 648.149795,326.226704 648.149795,328.881093 L648.149795,328.881093 L648.149795,328.881093 C648.149795,331.535481 645.997988,333.687288 643.343599,333.687288 L317.895503,333.687288 L317.895503,333.687288 C315.241115,333.687288 313.089308,331.535481 313.089308,328.881093 L313.089308,328.881093 L313.089308,328.881093 C313.089308,326.226704 315.241115,324.074897 317.895503,324.074897 Z" id="Rectangle-17-Copy-2" fill="#A87858"></path>
            <path d="M728.48192,324.074897 L914.94509,324.074897 L914.94509,324.074897 C917.599478,324.074897 919.751285,326.226704 919.751285,328.881093 L919.751285,328.881093 L919.751285,328.881093 C919.751285,331.535481 917.599478,333.687288 914.94509,333.687288 L728.48192,333.687288 L728.48192,333.687288 C725.827531,333.687288 723.675724,331.535481 723.675724,328.881093 L723.675724,328.881093 L723.675724,328.881093 C723.675724,326.226704 725.827531,324.074897 728.48192,324.074897 Z" id="Rectangle-17-Copy-3" fill="#A87858"></path>
            <rect id="Rectangle-19-Copy-2" fill="#EDEDED" x="416.079211" y="186.755026" width="174.396237" height="110.440627" rx="5"></rect>
            <rect id="Rectangle-19-Copy-3" fill="#E2E2E2" x="421.572006" y="186.755026" width="174.396237" height="110.440627" rx="5"></rect>
            <polygon id="Path-58-Copy" fill="#D8D8D8" points="506.002343 278.75934 498.471134 324.074897 529.534344 324.074897 517.280839 278.75934"></polygon>
            <g id="Group-24-Copy" transform="translate(498.471134, 225.204590)" fill="#FFFFFF">
                <path d="M14.9764112,21.5951208 C20.5528104,28.2535079 16.3080887,31.2497821 10.981379,31.2497821 C5.65466933,31.2497821 1.32671773,26.9218305 1.32671773,21.5951208 C1.32671773,16.2684111 5.65466933,11.9404595 10.981379,11.9404595 C16.3080887,11.9404595 18.8049838,16.7677902 14.9764112,21.5951208" id="Path" stroke="#EAEAEA"></path>
                <path d="M11.1527984,12.8634273 C6.65838708,12.8634273 2.99627419,16.5255402 2.99627419,21.0199515 C2.99627419,25.5143627 6.65838708,29.1764756 11.1527984,29.1764756 C13.6496935,29.1764756 15.6472096,28.4274071 16.1465887,27.2621894 C16.7291975,26.0969716 15.980129,24.1826853 14.0658427,21.9354797 C13.6496935,21.4361007 13.5664637,20.6038023 14.0658427,20.0211934 C15.5639798,18.190137 15.980129,16.2758507 15.2310604,14.8609434 C14.6484516,13.6957257 13.0670846,12.8634273 11.1527984,12.8634273 M11.1527984,32.2559797 C4.99379031,32.2559797 0,27.2621894 0,21.1031813 C0,14.9441733 4.99379031,9.95038295 11.1527984,9.95038295 C14.2323024,9.95038295 16.7291975,11.3652902 17.8944153,13.6957257 C18.9764032,15.8597015 18.6434838,18.5230563 17.0621169,21.0199515 C19.2260927,23.9329958 19.8919314,26.5131208 18.8931733,28.5938668 C17.8111854,30.9243022 14.8981411,32.2559797 11.1527984,32.2559797" id="Shape" fill-rule="nonzero"></path>
                <path d="M9.45844345,7.72164184 C8.62614507,7.72164184 7.96030636,7.05580313 7.96030636,6.22350475 C7.96030636,6.05704507 7.96030636,5.97381523 8.0435362,5.80735555 C8.12676604,5.64089588 9.37521361,1.1464846 13.1205563,0.0644966975 C13.8696249,-0.185192818 14.7019233,0.314186213 14.9516128,1.1464846 C15.1180725,1.89555314 14.7019233,2.72785153 13.9528547,2.89431121 C11.8721088,3.56014991 10.8733507,6.5564241 10.8733507,6.63965394 C10.706891,7.30549265 10.1242822,7.72164184 9.45844345,7.72164184" id="Shape" fill-rule="nonzero"></path>
            </g>
            <g id="Beats_Electronics_logo-Copy" transform="translate(341.545888, 205.514823) rotate(9.000000) translate(-341.545888, -205.514823) translate(336.045888, 198.514823)" fill-rule="nonzero">
                <path d="M10.8016154,6.76760881 C10.8016155,9.17961183 9.77222733,11.4083945 8.10121158,12.6143961 C6.43019583,13.8203976 4.37141952,13.8203976 2.70040377,12.6143961 C1.02938802,11.4083945 -1.12759086e-07,9.17961183 -7.20974311e-08,6.76760881 C-1.12759082e-07,4.3556058 1.02938802,2.12682308 2.70040377,0.920821562 C4.37141952,-0.285179959 6.43019583,-0.285179959 8.10121158,0.920821562 C9.77222733,2.12682308 10.8016155,4.3556058 10.8016154,6.76760881 L10.8016154,6.76760881 Z" id="path3005" fill="#FFFFFF"></path>
                <path d="M5.4009434,4.70969853 C4.49168662,4.70969853 3.75463648,5.63101137 3.75463648,6.76758235 C3.75463648,7.90410793 4.49168662,8.825466 5.4009434,8.825466 C6.310164,8.825466 7.0471419,7.90410793 7.0471419,6.76758235 C7.0471419,5.63101137 6.310164,4.70969853 5.4009434,4.70969853 Z" id="path22" fill="#9E5555"></path>
                <path d="M3.91797541,0.27619068 L3.91797541,3.9254771 C4.34437418,3.57715014 4.85350915,3.37390289 5.4009434,3.37390289 C6.90025438,3.37390289 8.11582365,4.89330811 8.11582365,6.76758235 C8.11582365,8.64185659 6.90025438,10.161273 5.4009434,10.161273 C3.90152401,10.161273 2.68596378,8.64185659 2.68596378,6.76758235 C2.68596378,6.7072906 2.68733775,6.6474056 2.68976919,6.58785967 L2.68596378,0.9323262 C1.08008021,2.10234226 0,4.27662885 0,6.76758235 C0,10.4961767 2.41817634,13.5188971 5.40105182,13.5188971 C8.38389126,13.5188971 10.8016157,10.4961767 10.8016157,6.76758235 C10.8016157,3.03903305 8.38389126,0.0163126488 5.40105182,0.0163126488 C4.88648432,0.0163126488 4.38943488,0.108173882 3.91797541,0.27619068 Z" id="path24" fill="#9E5555"></path>
            </g>
            <g id="Group-26-Copy" transform="translate(587.729051, 245.802570)">
                <rect id="Rectangle-15-Copy-2" fill="#BEDDF9" transform="translate(48.581163, 80.045961) rotate(90.000000) translate(-48.581163, -80.045961) " x="40.3005468" y="32.2023979" width="16.5612332" height="95.6871253"></rect>
                <rect id="Rectangle-15" fill="#66B0ED" x="89.0641779" y="0" width="14.7210962" height="88.3265772"></rect>
                <rect id="Rectangle-15-Copy" fill="#BEDDF9" x="103.785274" y="14.7210962" width="14.7210962" height="73.605481"></rect>
                <polygon id="Path-59" fill="#66B0ED" points="55.9417115 68.0271026 62.2705673 72.1704292 66.5045219 72.1704292 90.1154414 31.0160189 80.8434992 25.7619183"></polygon>
                <rect id="Rectangle-18" fill="#FFFFFF" opacity="0.34522192" x="94.584589" y="7.3605481" width="5.52041107" height="12.8809592"></rect>
                <rect id="Rectangle-18-Copy" fill="#FFFFFF" opacity="0.34522192" x="94.584589" y="34.9626035" width="5.52041107" height="33.0448282"></rect>
                <rect id="Rectangle-18-Copy-2" fill="#FFFFFF" opacity="0.511379076" x="107.465548" y="20.2415073" width="6.7418991" height="8.69291002"></rect>
                <rect id="Rectangle-18-Copy-3" fill="#FFFFFF" opacity="0.511379076" x="78.0233558" y="75.445618" width="6.7418991" height="8.69291002"></rect>
                <rect id="Rectangle-18-Copy-4" fill="#FFFFFF" opacity="0.511379076" x="6.25801181" y="75.445618" width="12.8809592" height="8.69291002"></rect>
            </g>
            <path d="M896.013631,279.715559 C896.013631,279.715559 907.668014,298.583079 906.591055,297.443217 C905.512714,296.304737 889.133674,313.842303 887.474687,314.8847 C885.815009,315.927097 833.138025,308.541148 833.138025,308.541148 C833.138025,308.541148 829.282955,309.510964 827.237562,310.478707 C825.19286,311.446449 816.294469,310.780781 814.569123,310.587924 C812.843085,310.395066 811.595389,308.460273 811.595389,308.460273 L808.153682,308.264651 L806.706216,306.150133 C806.706216,306.150133 804.800455,306.157737 804.315201,305.993221 C803.829947,305.828013 802.695615,302.458196 802.695615,302.458196 L806.267967,294.45151 L800.946766,294.737686 L795.788008,298.064646 C795.788008,298.064646 790.439849,301.401975 788.807129,299.393218 C787.173718,297.384461 800.429024,288.665793 800.429024,288.665793 C800.429024,288.665793 811.971426,287.092521 812.901841,286.661184 C813.831565,286.230539 824.883183,293.260496 828.226733,295.177317 C831.569592,297.09483 880.699108,296.951742 880.699108,296.951742 C880.699108,296.951742 894.636672,282.458417 896.013631,279.715559 Z" id="Fill-1" fill="#E6C3B4"></path>
            <path d="M885.88123,287.895747 C885.150584,288.661646 895.848976,310.081241 895.848976,310.081241 C895.848976,310.081241 922.781247,280.675698 922.590464,279.53307 C922.400371,278.391134 921.067652,250.983979 921.067652,250.983979 L885.88123,287.895747 Z" id="Fill-3" fill="#E48A1E"></path>
            <path d="M976.68523,333.687288 C983.978386,277.849156 972.842345,249.079039 940.813851,239.850241 C939.330045,240.586207 926.080184,245.827466 922.547471,250.606575 C915.541605,260.083737 923.523802,296.583636 923.520911,333.687288 L976.68523,333.687288 Z" id="Combined-Shape" fill="#F7941E"></path>
            <path d="M916.214977,229.571296 C919.872352,242.371071 921.289403,252.938818 920.403228,260.595734 C924.693783,261.295965 949.056006,245.90817 942.099321,241.941808 C938.06107,239.640655 935.709456,236.329594 935.057612,220.054241 L916.214977,229.571296 Z" id="Fill-7" fill="#EFCAB9"></path>
            <path d="M883.332957,188.787867 C883.332957,188.787867 875.908299,210.16737 875.640096,212.321288 C875.371893,214.475897 879.335489,220.684656 879.335489,220.684656 C879.335489,220.684656 873.430878,227.738806 873.620279,228.687885 C873.810372,229.636273 880.709684,232.630744 880.709684,232.630744 C880.709684,232.630744 882.854616,241.097108 888.442637,245.738815 C894.030658,250.380522 910.220988,248.250798 915.305783,246.436281 C931.816159,240.545494 943.238284,225.090649 943.659252,206.097322 C943.966856,192.254458 931.03367,183.259984 918.407397,180.696158 C905.781815,178.133023 883.332957,188.787867 883.332957,188.787867" id="Fill-9" fill="#FBD2C0"></path>
            <path d="M873.617031,228.6283 C873.615648,228.649729 873.617031,228.670466 873.620487,228.687747 C873.809888,229.636135 880.709891,232.630606 880.709891,232.630606 C881.111504,232.807565 881.565652,232.085214 881.851136,231.609638 C882.135929,231.134061 879.852748,230.420006 878.520719,229.849038 C877.192147,229.279452 873.63915,228.632447 873.617031,228.6283" id="Fill-11" fill="#FBCDBA"></path>
            <path d="M886.675055,244.032132 C887.22183,244.638354 887.809387,245.212778 888.442567,245.738815 C894.030589,250.380522 910.220919,248.251489 915.305714,246.436972 C929.1389,241.500794 939.39766,229.850559 942.610565,215.031658 C940.908721,212.465067 938.564019,211.500089 938.564019,211.500089 L930.483371,217.392949 C935.228764,239.966923 908.851563,250.575453 886.675055,244.032132" id="Fill-13" fill="#FBCDBA"></path>
            <g id="Group-17" transform="translate(864.876036, 165.367257)">
                <mask id="mask-3" fill="white">
                    <use xlink:href="#path-2"></use>
                </mask>
                <g id="Clip-16"></g>
                <path d="M75.855865,12.5881856 C72.6650801,-3.77149946 36.6152936,7.1232061 26.2486989,6.14647753 C16.4883257,5.22781351 8.57564917,1.32228172 9.01320698,1.93126818 C9.45145603,2.54025464 13.3438542,6.181731 12.4327938,5.85891979 C11.5217335,5.53541734 6.96366685,4.4086887 4.92449539,2.47804263 C2.88601517,0.547396569 2.51481684,0.107765027 2.51481684,0.107765027 C2.51481684,0.107765027 3.88140735,10.819982 4.465509,13.7695226 C5.04891941,16.7183719 6.22680015,18.6980963 5.74638518,18.1050085 C5.26597021,17.5126119 0.553064775,11.0653738 0.553064775,11.0653738 C0.553064775,11.0653738 -0.145783478,16.416298 4.5989192,23.9280527 C9.34293064,31.4398073 15.4874036,33.1105454 15.4874036,33.1105454 C15.4874036,33.1105454 34.1586104,23.9342739 42.7051582,24.2598501 C51.2510148,24.5854262 54.2821222,28.2745985 54.9194497,30.3718345 C55.5553947,32.467688 54.270371,46.484054 54.8344266,50.8603233 C55.3977909,55.2365927 57.6795892,54.2875139 57.3208333,52.70802 C57.2365014,52.337513 60.1701434,36.2197635 63.1521724,34.6616982 C66.2973352,33.0179187 70.6113925,45.5812886 72.2558633,48.1513359 C74.3150808,51.3697706 72.5019464,62.9660894 72.5019464,62.9660894 C86.7146258,46.5690771 91.6017249,19.8524747 75.855865,12.5881856" id="Fill-15" fill="#A15641" mask="url(#mask-3)"></path>
            </g>
            <path d="M879.761918,198.272917 C880.146941,198.41877 880.363301,198.478217 880.363301,198.478217 C880.363301,198.478217 899.034508,189.301254 907.581056,189.62683 C916.126912,189.953098 919.15802,193.64227 919.795347,195.738814 C920.431292,197.834668 919.14696,211.851725 919.710324,216.227995 C920.273688,220.604264 922.555487,219.655185 922.196731,218.075 C922.11309,217.704493 925.046041,201.586744 928.02807,200.028678 C931.173233,198.384899 935.48729,210.94896 937.131761,213.519007 C938.548121,215.731681 938.255724,222.049656 937.733835,225.565326 C940.500195,220.349195 942.541441,207.669696 941.758261,202.108633 C940.711025,194.686049 931.955721,179.459314 931.86033,178.983738 C931.764938,178.508161 931.670237,189.928213 931.574846,191.25955 C931.479454,192.592269 926.530834,178.792954 926.530834,178.792954 C926.530834,178.792954 927.197194,185.359777 926.91171,190.022913 C926.626917,194.68674 923.961478,197.921765 923.961478,197.921765 C922.345348,182.220836 903.131514,179.51254 902.359394,175.843413 C902.197643,175.07475 908.069074,187.358165 908.640042,187.739041 C909.21101,188.119917 905.975295,187.548258 901.216767,185.930745 C896.458931,184.313233 885.324363,178.413461 884.944179,177.366225 C884.563303,176.31899 890.558467,190.403098 890.558467,190.403098 C890.558467,190.403098 889.702015,190.403098 885.45017,187.837889 C881.197633,185.271989 872.763067,173.46415 872.763067,173.46415 C872.763067,173.46415 872.857768,175.938805 874.666063,181.363001 C876.474359,186.787197 880.376435,192.877753 881.607541,193.7978 C882.839339,194.717846 871.240255,187.833742 870.763988,187.358857 C870.288411,186.882589 870.954771,187.833742 873.428736,191.355633 C874.782192,193.28144 877.303853,195.977294 879.761918,198.272917" id="Fill-18" fill="#AB5D49"></path>
            <path d="M899.908656,290.191578 C898.462572,292.727063 891.035149,304.447805 891.035149,304.447805 C891.035149,304.447805 841.264158,306.109557 838.186046,304.120156 C835.107243,302.131445 824.968068,294.899644 824.063229,295.261856 C823.157698,295.623377 812.118523,296.536511 812.118523,296.536511 C812.118523,296.536511 799.092019,304.146423 800.54225,306.136516 C801.991098,308.126609 807.237645,305.227529 807.237645,305.227529 L812.303776,302.32845 L817.37129,302.324993 L817.369216,302.329141 C814.701703,303.030754 811.959536,303.929372 811.510919,304.097344 C810.786494,304.369004 801.284646,312.874768 801.284646,313.102187 C801.284646,313.327533 801.012987,314.006335 803.681883,314.233063 C806.35216,314.4591 807.121516,313.373155 807.393175,313.281911 C807.664834,313.191358 813.279122,308.933983 813.279122,308.933983 L817.273824,307.574996 L809.560226,312.769007 L804.661376,318.072927 C806.652852,320.960256 811.986495,317.127304 813.474053,314.937442 C814.262072,314.337441 818.863687,312.604491 818.735807,313.545966 C818.146866,317.883526 821.246407,317.536521 824.440648,318.066015 C826.06922,318.336291 834.485123,319.416706 836.475216,318.601038 C838.466,317.785369 842.17591,317.058871 842.17591,317.058871 C842.17591,317.058871 890.939758,326.15012 896.375014,323.911179 C901.809578,321.672929 909.505204,305.705871 910.470873,306.842277 C911.437233,307.977991 899.908656,290.191578 899.908656,290.191578" id="Fill-20" fill="#FBD2C0"></path>
            <path d="M949.183402,246.931419 C947.815429,245.392709 944.057133,238.044088 934.238004,246.146857 C924.418183,254.249625 893.278307,296.469461 893.278307,296.469461 L907.469558,314.084446 C907.469558,314.084446 941.02879,276.518069 947.026028,268.566683 C953.023266,260.615296 949.183402,246.931419 949.183402,246.931419" id="Fill-22" fill="#F7941E"></path>
            <path d="M926.397977,204.627805 C924.488068,204.976883 887.230677,218.013065 887.230677,218.013065 L883.269846,215.998778 L885.107865,212.954537 C885.107865,212.954537 926.123553,201.358218 926.086917,201.781951 C926.050281,202.205684 926.397977,204.627805 926.397977,204.627805" id="Fill-24" fill="#404041"></path>
            <path d="M885.107589,212.954468 C884.250446,213.123823 879.357125,214.551934 877.340074,215.190644 C876.498138,215.456773 875.60505,215.445022 876.139382,216.99894 C876.790534,218.891567 878.116341,222.669219 879.283162,225.516455 C881.788233,231.627057 890.589158,232.218071 888.04054,220.725439 C887.331323,217.52705 885.107589,212.954468 885.107589,212.954468" id="Fill-26" fill="#404041"></path>
            <path d="M884.156506,213.665966 C883.187381,213.886473 879.945444,214.682786 878.068715,215.480483 C876.746364,216.042465 876.370327,216.189008 876.790603,217.457442 C877.419636,219.358365 878.60512,222.907214 879.616411,225.379796 C880.169407,226.733253 881.08738,227.976802 882.27079,228.774498 C883.185307,229.390397 884.323787,229.765052 885.346137,229.447079 C888.236231,228.545696 887.511807,223.473344 886.950516,221.096845 C886.398903,218.761821 885.212727,215.886935 884.156506,213.665966" id="Fill-28" fill="#E6E7E8"></path>
            <path d="M933.568326,196.457087 C937.583766,197.385428 940.148283,202.824832 939.295287,208.60571 C938.444365,214.387279 934.498741,218.321152 930.483301,217.392811 C926.468553,216.463778 923.904036,211.025066 924.755649,205.244188 C925.607262,199.463309 929.552886,195.528745 933.568326,196.457087" id="Fill-30" fill="#FBD2C0"></path>
            <path d="M928.635743,203.257482 C929.238508,202.199186 931.047495,199.534438 933.591275,200.265775 C936.134364,200.996421 937.665471,204.05656 936.876761,207.76647 C936.087359,211.477071 934.533442,215.625921 931.589431,216.112557 C928.646803,216.599193 926.630442,213.678685 927.817309,212.285827 C929.004868,210.892969 930.071458,208.42177 928.908093,207.552875 C927.743346,206.68329 926.929751,206.699188 927.180673,205.780524 C927.430212,204.862551 928.658554,203.217389 928.635743,203.257482" id="Fill-32" fill="#EAB096"></path>
            <path d="M928.635743,203.257482 C929.176296,202.307712 930.688048,200.067388 932.828141,200.142734 C934.911552,201.212089 936.072152,204.017851 935.363626,207.346193 C934.574916,211.056103 933.020998,215.205644 930.076988,215.691589 C929.776296,215.74205 929.485283,215.755183 929.206711,215.739285 C927.710166,214.949192 926.994728,213.250804 927.817309,212.285827 C929.004868,210.892969 930.071458,208.42177 928.908093,207.552875 C927.743346,206.68329 926.929751,206.699188 927.180673,205.780524 C927.430212,204.862551 928.658554,203.217389 928.635743,203.257482" id="Fill-34" fill="#EEB69D"></path>
            <g id="Group-38" transform="translate(708.654764, 242.095403)">
                <mask id="mask-5" fill="white">
                    <use xlink:href="#path-4"></use>
                </mask>
                <g id="Clip-37"></g>
                <path d="M0.407557794,4.54977171 L45.0384542,79.5546455 C45.8582703,80.9329872 47.6568887,81.3892086 49.0359216,80.5693925 C50.4142632,79.7488852 50.8704846,77.9502669 50.0499773,76.571234 L5.41977212,1.56774267 C4.59926482,0.188709766 2.80064647,-0.267511646 1.42230481,0.552304406 C0.0446543988,1.37212046 -0.412949502,3.17143005 0.407557794,4.54977171" id="Fill-36" fill="#D3D3D3" mask="url(#mask-5)"></path>
            </g>
            <g id="Group-41" transform="translate(708.654764, 242.095403)">
                <mask id="mask-7" fill="white">
                    <use xlink:href="#path-6"></use>
                </mask>
                <g id="Clip-40"></g>
                <path d="M0.407557794,4.54977171 L45.0384542,79.5546455 C45.8582703,80.9329872 47.6568887,81.3892086 49.0359216,80.5693925 C49.0684101,80.5493464 49.1002073,80.5286091 49.1326958,80.508563 L1.42230481,0.552304406 C0.0446543988,1.37212046 -0.412949502,3.17143005 0.407557794,4.54977171" id="Fill-39" fill="#D3D3D3" mask="url(#mask-7)"></path>
            </g>
            <polygon id="Fill-42" fill="#58595B" points="765.827602 320.20379 773.586822 320.20379 773.586822 318.648665 765.827602 318.648665"></polygon>
            <polygon id="Fill-44" fill="#58595B" points="774.18544 320.20379 781.94466 320.20379 781.94466 318.648665 774.18544 318.648665"></polygon>
            <polygon id="Fill-45" fill="#58595B" points="782.543278 320.20379 790.302499 320.20379 790.302499 318.648665 782.543278 318.648665"></polygon>
            <polygon id="Fill-46" fill="#58595B" points="790.901808 320.20379 798.661028 320.20379 798.661028 318.648665 790.901808 318.648665"></polygon>
            <path d="M845.118745,319.324425 L757.840133,319.324425 C756.235754,319.324425 754.923772,320.636407 754.923772,322.240786 C754.923772,323.845165 756.235754,325.157147 757.840133,325.157147 L845.118745,325.157147 C846.722433,325.157147 848.035106,323.845165 848.035106,322.240786 C848.035106,320.636407 846.722433,319.324425 845.118745,319.324425" id="Fill-47" fill="#D3D3D3"></path>
            <polygon id="Fill-48" fill="#939393" points="818.276475 323.582077 826.017031 323.582077 826.017031 321.603735 818.276475 321.603735"></polygon>
            <polygon id="Fill-49" fill="#939393" points="828.658968 323.582077 836.399525 323.582077 836.399525 321.603735 828.658968 321.603735"></polygon>
            <path d="M942.017901,333.687288 C940.867667,309.260305 939.807685,278.111493 940.712408,276.232861 C941.053882,274.249681 917.563318,299.48149 911.400873,304.793704 C910.919767,305.208451 910.441426,305.579649 909.967923,305.911447 C907.397876,307.710065 904.955709,308.34048 902.880593,308.388176 L906.169534,312.470666 L907.469765,314.084722 C907.469765,314.084722 913.240275,307.625042 920.422997,299.496697 C921.31029,310.116495 922.105301,321.733129 922.065393,333.687282 L942.017901,333.687288 Z" id="Combined-Shape" fill="#E48A1E"></path>
            <path d="M887.230608,218.013203 C887.561023,218.940162 887.85342,219.880946 888.040747,220.725646 C889.409411,226.89846 887.50365,229.585328 885.058027,229.80307 C888.54812,230.354683 890.399273,227.490166 890.654343,224.853759 C890.939827,221.904218 890.654343,219.238779 890.654343,219.238779 L919.667951,208.059281 C919.683158,207.635548 919.699057,207.210433 919.714955,206.784626 C908.491909,210.573338 887.230608,218.013203 887.230608,218.013203" id="Fill-51" fill="#EFBFAC"></path>
            <path d="M919.715094,206.784557 C919.699195,207.210364 919.683296,207.635479 919.668089,208.059212 L924.65058,206.138243 C924.676847,205.841699 924.712101,205.543082 924.755649,205.243773 C924.762561,205.198151 924.769474,205.152529 924.776386,205.106215 C923.583989,205.487091 921.827537,206.071193 919.715094,206.784557" id="Fill-52" fill="#A0523F"></path>
            <g id="Page-1-Copy" transform="translate(403.720423, 272.266545)">
                <mask id="mask-9" fill="white">
                    <use xlink:href="#path-8"></use>
                </mask>
                <g id="Clip-2"></g>
                <path d="M72.2888881,5.98745774 C52.3898655,-4.16597358 30.4763604,2.23862524 15.7021154,15.7097047 C5.37840742,25.1312211 -7.20970523,47.3715475 5.0749305,71.3173867 C17.3623126,95.2659724 54.7929633,97.6292474 54.7929633,97.6292474 L66.5049751,105.192826 L70.1480713,96.8863468 C70.1480713,96.8863468 93.9277535,86.2234588 100.29253,58.8624744 C105.31569,37.2606853 87.6591014,13.8297956 72.2888881,5.98745774" id="Fill-1" fill="#FE6A3C" mask="url(#mask-9)"></path>
            </g>
            <g id="Group-30" transform="translate(119.095090, 127.707481)">
                <g id="Path-3-+-Path-5" transform="translate(41.798229, 41.876927) rotate(-495.000000) translate(-41.798229, -41.876927) translate(36.798229, 36.876927)" fill="#BEDDF9">
                    <path d="M8.70003971,8.69744162 C8.88691064,8.51011823 9.00175731,8.25163607 9.00175731,7.9661777 L9.00175731,1.72802249 C9.00175731,1.16299551 8.53673146,0.69244287 7.96309301,0.69244287 C7.38545525,0.69244287 6.9244287,1.15608766 6.9244287,1.72802249 L6.9244287,6.9244287 L1.72802249,6.9244287 C1.16299551,6.9244287 0.69244287,7.38945455 0.69244287,7.96309301 C0.69244287,8.54073076 1.15608766,9.00175731 1.72802249,9.00175731 L7.9661777,9.00175731 C8.2481852,9.00175731 8.50665865,8.88591691 8.69484038,8.69854881 Z" id="Rectangle-10"></path>
                </g>
                <path d="M14.0411821,42.6796439 L35.285719,42.7574493 C35.285719,42.7574493 41.838668,42.3794447 41.6590801,49.1312746 C41.838668,55.8701369 41.6590801,70.3773587 41.6590801,70.3773587" id="Path-5" stroke="#BEDDF9" stroke-linecap="round" stroke-linejoin="round" stroke-dasharray="4,4,4,4" transform="translate(27.890040, 56.528501) rotate(-270.000000) translate(-27.890040, -56.528501) "></path>
                <circle id="Oval-2" fill="#BEDDF9" transform="translate(10.244855, 69.525112) rotate(-270.000000) translate(-10.244855, -69.525112) " cx="10.2448546" cy="69.5251119" r="2.76977148"></circle>
                <g id="Path-3-+-Path-5" transform="translate(7.453115, 29.698861) scale(-1, -1) rotate(-495.000000) translate(-7.453115, -29.698861) translate(2.453115, 25.198861)" fill="#BEDDF9">
                    <path d="M8.70003971,8.00499875 C8.88691064,7.81767536 9.00175731,7.5591932 9.00175731,7.27373483 L9.00175731,1.03557962 C9.00175731,0.470552642 8.53673146,3.58824082e-13 7.96309301,3.58824082e-13 C7.38545525,3.58824082e-13 6.9244287,0.463644787 6.9244287,1.03557962 L6.9244287,6.23198583 L1.72802249,6.23198583 C1.16299551,6.23198583 0.69244287,6.69701168 0.69244287,7.27065014 C0.69244287,7.84828789 1.15608766,8.30931444 1.72802249,8.30931444 L7.9661777,8.30931444 C8.2481852,8.30931444 8.50665865,8.19347404 8.69484038,8.00610594 Z" id="Rectangle-10"></path>
                </g>
                <path d="M7.22441385,3.53755162 L30.9667152,3.53755162 C30.9667152,3.53755162 37.5196642,3.15954698 37.3400763,9.91137685 C37.5196642,16.6502391 37.3400762,33.2278596 37.3400762,33.2278596" id="Path-5" stroke="#BEDDF9" stroke-linecap="round" stroke-linejoin="round" transform="translate(22.322153, 18.380789) scale(-1, -1) rotate(-270.000000) translate(-22.322153, -18.380789) "></path>
                <circle id="Oval-2" fill="#BEDDF9" transform="translate(38.697950, 2.769771) scale(-1, -1) rotate(-270.000000) translate(-38.697950, -2.769771) " cx="38.6979505" cy="2.76977148" r="2.76977148"></circle>
            </g>
            <g id="Group-28" transform="translate(57.674346, 127.334282)">
                <g id="Group-27" transform="translate(0.000000, 0.263833)">
                    <mask id="mask-11" fill="white">
                        <use xlink:href="#path-10"></use>
                    </mask>
                    <g id="Borders-3">
                        <use fill="#E6F3FF" fill-rule="evenodd" xlink:href="#path-10"></use>
                        <rect stroke="#BEDDF9" stroke-width="1" x="0.5" y="0.5" width="45.3126756" height="80.8190603" rx="4"></rect>
                    </g>
                    <g id="Rectangle-33" opacity="0.555083786">
                        <use fill="#FFFFFF" fill-rule="evenodd" xlink:href="#path-12"></use>
                        <path stroke="#BEDDF9" stroke-width="1" d="M8.21877927,6.98060086 L8.21877927,14.8025382 C8.21877927,15.6415854 8.88802588,16.3107573 9.72079243,16.3107573 L36.5918832,16.3107573 C37.4245218,16.3107573 38.0938964,15.6380086 38.0938964,14.8025382 L38.0938964,6.98060086 C38.0938964,6.1415537 37.4246498,5.47238184 36.5918832,5.47238184 L9.72079243,5.47238184 C8.88815386,5.47238184 8.21877927,6.1451305 8.21877927,6.98060086 Z"></path>
                    </g>
                    <rect id="Rectangle-39" fill="#BEDDF9" x="7.71877927" y="38.5938964" width="30.8751171" height="1.54375585"></rect>
                    <rect id="Rectangle-39" fill="#BEDDF9" x="7.71877927" y="64.8377459" width="30.8751171" height="1.54375585"></rect>
                    <rect id="Rectangle-38" fill="#BEDDF9" x="7.71877927" y="41.6814081" width="15.4375585" height="1.54375585"></rect>
                    <rect id="Rectangle-38" fill="#BEDDF9" x="7.71877927" y="67.9252576" width="15.4375585" height="1.54375585"></rect>
                    <g id="Rectangle-33" opacity="0.555083786">
                        <use fill="#FFFFFF" fill-rule="evenodd" xlink:href="#path-13"></use>
                        <rect stroke="#BEDDF9" stroke-width="1" x="8.21877927" y="22.112582" width="29.8751171" height="12.8938027" rx="2"></rect>
                    </g>
                    <g id="Rectangle-33" opacity="0.555083786">
                        <use fill="#FFFFFF" fill-rule="evenodd" xlink:href="#path-14"></use>
                        <rect stroke="#BEDDF9" stroke-width="1" x="8.21877927" y="48.3564315" width="29.8751171" height="12.8938027" rx="2"></rect>
                    </g>
                    <g id="Rectangle-33" opacity="0.899739583">
                        <use fill="#FFFFFF" fill-rule="evenodd" xlink:href="#path-15"></use>
                        <rect stroke="#BEDDF9" stroke-width="1" x="8.21877927" y="74.600281" width="29.8751171" height="12.8938027" rx="2"></rect>
                    </g>
                    <g id="Line-+-Oval-20" transform="translate(25.130857, 11.407612)" stroke="#A4CBEF" stroke-linecap="round">
                        <path d="M0.562824551,0.650313355 L2.29178715,2.48415513" id="Line"></path>
                    </g>
                    <circle id="Oval-20" stroke="#A4CBEF" cx="23.8258925" cy="10.1549067" r="2.41045317"></circle>
                </g>
            </g>
            <path d="M165.742885,134.493994 L168.181357,137.539487 L171.905897,137.539487 L164.687635,133.426599 C169.43973,131.01284 172.429642,130.069005 173.657371,130.595095 C174.885101,131.121185 176.836429,132.420818 179.511356,134.493994 C179.793045,138.795829 179.793045,141.716089 179.511356,143.254775 C179.229668,144.793461 178.259924,147.170289 176.602127,150.385259 L176.602127,216.725229 C176.602127,218.011276 176.210243,219.461865 175.426475,221.076996 C174.642707,222.692126 171.414844,226.0776 165.742885,231.233417 L152.425058,217.782246 L160.164834,211.802217 L168.824391,151.845227 C167.160183,148.314984 166.133014,145.451501 165.742885,143.254775 C165.352756,141.05805 165.352756,138.137789 165.742885,134.493994 Z" id="Path-60" fill="#F6D5A2"></path>
            <path d="M86.5115192,229.133242 L129.95199,226.577788 C125.809351,230.970817 121.868236,233.642145 118.128646,234.591773 C114.389056,235.541401 107.810606,235.541401 98.3932972,234.591773 C94.425484,233.702766 91.7850475,232.95665 90.4719878,232.353425 C89.1589281,231.750201 87.8387719,230.676806 86.5115192,229.133242 Z" id="Path-64" fill="#5F80BC"></path>
            <path d="M89.2579166,232.515178 C92.3044031,229.841365 94.5162013,227.720009 95.8933113,226.15111 C97.2704213,224.58221 98.5612986,222.713074 99.7659432,220.543702 L99.7659432,211.086367 L99.7659432,205.979808 L121.417552,205.979808 L121.417552,218.761725 C121.393977,221.755759 121.776388,223.850544 122.564784,225.046079 C123.35318,226.241614 124.971833,227.181268 127.420741,227.865042 C124.221881,231.03338 121.689255,233.028688 119.822864,233.850966 C117.956473,234.673244 114.937147,235.123966 110.764888,235.203131 C104.093787,235.537587 99.420203,235.537587 96.7441365,235.203131 C94.06807,234.868674 91.5726634,233.97269 89.2579166,232.515178 Z" id="Path-63" fill="#F6D5A2"></path>
            <path d="M52.9842685,277.386141 L43.5346052,295.695832 C42.7911361,298.671963 42.4770646,300.80159 42.5923906,302.084712 C42.7077167,303.367834 43.3823628,305.249974 44.6163289,307.73113 L64.2198782,332.834762 L68.3709172,317.858748 L60.0701281,303.200785 L68.3709172,288.049846 L52.9842685,277.386141 Z" id="Path-61" fill="#F6D5A2"></path>
            <path d="M63.4586316,333.687288 L90.0854603,320.786704 L79.7842684,276.012942 L50.8185192,293.954039 C47.1909941,296.433287 45.3571652,299.604377 45.3170324,303.467308 C45.2768996,307.330239 46.055895,310.516902 47.6540187,313.027298 L54.3378638,333.687288 L63.4586316,333.687288 Z" id="Combined-Shape" fill="#D8D8D8"></path>
            <path d="M74.0407743,302.103718 L142.422294,308.174038 L144.005632,333.156065 L65.9135384,333.156065 C67.03461,324.682445 68.0026308,318.888725 68.8176009,315.774907 C69.6325711,312.661089 71.3736288,308.104026 74.0407743,302.103718 Z" id="Combined-Shape" fill="#5F80BC"></path>
            <path d="M50.8083525,275.307135 C59.8672961,254.072731 68.0810511,240.63964 75.4496177,235.007864 C82.8181843,229.376087 86.826039,227.576534 87.4731817,229.609206 C87.9177957,231.012667 90.3586894,232.308535 94.7958629,233.496809 C101.451623,235.27922 116.937699,234.970441 120.414171,233.496809 C122.731819,232.514387 125.607042,230.34195 129.03984,226.979496 L152.901844,216.965397 L167.190408,232.124993 L151.29981,250.43486 C149.205372,253.007126 147.83883,254.985738 147.200185,256.370694 C146.561539,257.755651 145.957117,260.05124 145.386919,263.257464 L142.314969,307.653196 L115.252852,309.801109 C113.646335,309.801109 108.61476,309.801109 100.158129,309.801109 C91.7014974,309.801109 82.212444,306.960432 71.6909684,301.279078 L76.8127313,278.752498 L64.3297272,286.522582 L50.8083525,275.307135 Z" id="Path-62" fill="#6C92D8"></path>
            <path d="M88.6571452,157.791619 C91.5601303,152.375398 95.3246584,148.477237 99.9507293,146.097136 C106.889836,142.526983 132.050649,142.80956 137.506477,157.105647 C142.962305,171.401734 138.549937,188.98831 134.872423,194.640426 C132.420746,198.408503 127.597545,202.831246 120.402817,207.908653 L110.204388,217.173592 C105.693134,215.288138 99.3965593,210.287656 91.3146646,202.172145 C83.7255297,194.551443 78.4019542,186.925554 76.8405932,180.926178 C73.1942223,166.915357 77.1330729,159.203837 88.6571452,157.791619 Z" id="Path-66" fill="#E19C4B"></path>
            <mask id="mask-17" fill="white">
                <use xlink:href="#path-16"></use>
            </mask>
            <g id="Base">
                <use fill="#E6F3FF" fill-rule="evenodd" xlink:href="#path-16"></use>
                <rect stroke="#79818F" stroke-width="1" x="0.5" y="129.580679" width="45.6887564" height="78.9038228" rx="4"></rect>
            </g>
            <g id="Ticket-Center-3-+-Ticket-Center-2-+-Ticket-Center" opacity="0.833389946" transform="translate(8.239192, 155.171455)">
                <g id="Ticket-Center-3" opacity="0.514549366">
                    <use fill="#FFFFFF" fill-rule="evenodd" xlink:href="#path-18"></use>
                    <rect stroke="#CFE7FC" stroke-width="1" x="4.3907297" y="16.3300026" width="22.3443782" height="21.6142895" rx="2"></rect>
                </g>
                <g id="Ticket-Center-2" opacity="0.705502717">
                    <use fill="#FFFFFF" fill-rule="evenodd" xlink:href="#path-19"></use>
                    <rect stroke="#CFE7FC" stroke-width="1" x="2.83443782" y="9.54571578" width="25.456962" height="24.6295281" rx="2"></rect>
                </g>
                <g id="Ticket-Center">
                    <use fill="#FFFFFF" fill-rule="evenodd" xlink:href="#path-20"></use>
                    <rect stroke="#BEDDF9" stroke-width="1" x="0.5" y="0.5" width="30.1258376" height="29.1523859" rx="2"></rect>
                </g>
            </g>
            <rect id="Price" fill="#BEDDF9" x="34.3299679" y="140.066269" width="3.8907297" height="1.5076193"></rect>
            <rect id="Product" fill="#BEDDF9" x="8.23919231" y="140.066269" width="7.7814594" height="1.5076193"></rect>
            <rect id="Date" fill="#BEDDF9" x="8.23919231" y="135.946673" width="15.5629188" height="1.5076193"></rect>
            <path d="M159.291051,141.669283 C159.291051,141.669283 160.798781,143.122724 162.883051,141.562566 L165.884982,138.574504 L164.22521,135.946673 L159.291051,141.669283 Z" id="Fill-1" fill="#F6D5A2"></path>
            <path d="M162.037449,143.225303 C162.037449,143.225303 164.091615,143.835498 165.36308,141.594621 L166.870134,137.72712 L163.488523,137.319872 L162.037449,143.225303 Z" id="Fill-3" fill="#F6D5A2"></path>
            <mask id="mask-22" fill="white">
                <use xlink:href="#path-21"></use>
            </mask>
            <rect stroke="#BEDDF9" x="0.5" y="129.580679" width="45.6887564" height="78.9038228" rx="4"></rect>
            <g id="Group-29" transform="translate(173.600773, 135.649623) scale(-1, -1) rotate(-12.000000) translate(-173.600773, -135.649623) translate(157.100773, 130.649623)">
                <path d="M4.81516123,5.54256703 C3.76902516,5.31083904 3.2283922,4.48695164 3.19326234,3.07090482 C3.15813247,1.654858 4.03966666,0.740796107 5.8378649,0.32871913 L30.4257491,4.82935092 L32.5435478,7.48781996 L29.5708096,9.18924619 L4.81516123,5.54256703 Z" id="Fill-1" fill="#929292"></path>
                <mask id="mask-24" fill="white">
                    <use xlink:href="#path-23"></use>
                </mask>
                <g id="Clip-8"></g>
            </g>
            <polygon id="Fill-4" fill="#BEDDF9" points="160.590806 137.634099 156.544654 135.660185 156.544654 135.091828 160.487977 133.200276"></polygon>
            <g id="Page-1" transform="translate(162.037449, 130.453878)" fill="#F6D5A2">
                <path d="M1.21878541,2.9371508e-05 C-1.46459556,2.53699337 1.11995028,5.35239927 1.11995028,5.35239927 C1.11995028,5.35239927 3.03232917,8.88417624 3.43266282,9.4384166 C3.83343705,9.99206952 4.25814905,11.3333194 4.53761895,13.0465595 C5.03766887,16.1094203 9.9330181,21.7161475 9.9330181,21.7161475 L8.92072908,9.63079997 L1.21878541,2.9371508e-05 Z" id="Fill-1"></path>
            </g>
            <path d="M511.195593,48.0619551 C494.064939,48.0619551 450.387607,64.7174824 454.846383,113.590998 C458.948128,158.548151 517.81853,161.44972 517.81853,161.44972 L530.008415,169.528248 L538.801007,156.614687 C538.801007,156.614687 576.569464,141.252713 576.569464,100.655466 C576.569464,66.2417329 550.789031,48.0619551 511.195593,48.0619551" id="Fill-1-Copy-4" fill="#E98282"></path>
            <path d="M89.3458014,50.500756 C89.3458014,50.7058214 89.1920046,50.8083525 88.8844066,50.8083525 L88.4999109,50.8083525 C88.3461119,50.731453 86.6030824,50.6930039 83.2707702,50.6930039 C82.629941,50.6930039 81.9891213,50.7186366 81.348292,50.769903 C81.0150608,50.7955362 80.5024051,50.8083525 79.8103095,50.8083525 C79.4770782,50.8083525 79.3104651,50.693005 79.3104651,50.4623065 C79.3104651,50.2572411 79.6436914,50.1418936 80.3101538,50.1162604 C81.3354806,50.0906272 81.9378511,49.9688715 82.1172833,49.7509895 C82.2967155,49.5331076 82.3864303,48.796165 82.3864303,47.5401396 L82.3864303,27.3156689 C82.3864303,26.0596435 82.3223483,25.3547419 82.1941824,25.2009429 C82.0403834,24.9446112 81.3354818,24.7908144 80.0794564,24.7395481 C79.5924262,24.7139149 79.3489147,24.6113838 79.3489147,24.4319516 C79.3489147,24.201253 79.5027114,24.0859055 79.8103095,24.0859055 L85.0010006,24.1628046 C85.3854982,24.1628046 86.128849,24.1499882 87.2310753,24.1243551 L88.6921588,24.0859055 C89.1022895,24.0859055 89.3073518,24.201253 89.3073518,24.4319516 C89.3073518,24.6370169 88.7434305,24.7651809 87.615571,24.8164472 C86.9747417,24.8420804 86.5838417,24.9574279 86.4428593,25.1624933 C86.3018768,25.3675587 86.2313867,25.9058472 86.2313867,26.777375 L86.2313867,47.3094422 C86.2313867,48.770533 86.2954686,49.5651493 86.4236345,49.6933152 C86.7055994,49.9752801 87.5386649,50.1418932 88.9228562,50.1931595 C89.204821,50.1931595 89.3458014,50.2956907 89.3458014,50.500756 Z M115.259631,50.5392056 C115.259631,50.7699041 115.067385,50.8852517 114.682887,50.8852517 C114.426555,50.8852517 114.19586,50.8724353 113.990795,50.8468021 L109.1077,50.769903 L104.224606,50.8468021 C104.045173,50.8724353 103.852928,50.8852517 103.647862,50.8852517 C103.135199,50.8852517 102.878871,50.7570877 102.878871,50.500756 C102.878871,50.2187912 103.224914,50.0778108 103.917009,50.0778108 C106.172728,50.0521777 107.300571,49.8214826 107.300571,49.3857187 C107.300571,49.3600855 107.274938,49.2575544 107.223672,49.0781222 L106.916075,48.0399839 L106.723827,47.50169 C106.493129,46.7070617 105.929207,44.9512159 105.032046,42.2340998 L96.8038398,42.2340998 C95.2658495,46.3354071 94.4968659,48.6936234 94.4968659,49.3088195 C94.4968659,49.6676839 94.6506627,49.8855626 94.9582607,49.9624621 C95.0351602,49.9880953 95.6759799,50.0393609 96.8807389,50.1162604 C97.6241009,50.1418936 97.9957763,50.2700575 97.9957763,50.500756 C97.9957763,50.7570877 97.66255,50.8852517 96.9960876,50.8852517 C95.8169617,50.8852517 94.4456077,50.8339861 92.8819842,50.7314534 C92.4974867,50.7058202 92.1001785,50.6930039 91.6900478,50.6930039 C91.279917,50.6930039 90.8826088,50.7186366 90.4981113,50.769903 C90.2930459,50.7955362 90.1264328,50.8083525 89.9982669,50.8083525 C89.6394025,50.8083525 89.459973,50.693005 89.459973,50.4623065 C89.459973,50.2316079 89.8636894,50.103444 90.6711343,50.0778108 C91.4785792,50.0521777 92.0617251,49.9304219 92.4205895,49.71254 C92.7794539,49.494658 93.0614145,49.0781252 93.2664799,48.4629291 C96.5731589,39.0299223 99.2646015,31.4554339 101.340888,25.7392368 C101.392155,25.4316387 101.494686,25.0855961 101.648485,24.7010985 L101.840733,24.0090064 C101.917632,23.7270415 102.020163,23.5860612 102.148329,23.5860612 C102.225229,23.5860612 102.289311,23.6629595 102.340577,23.8167586 C102.673808,24.8164522 103.429975,26.9055243 104.609101,30.0840375 C105.531895,32.5704551 107.82603,38.8120386 111.491573,48.8089752 C111.696639,49.372905 111.959375,49.731764 112.279789,49.885563 C112.600204,50.039362 113.260248,50.1290768 114.259942,50.15471 C114.926404,50.1803431 115.259631,50.3085071 115.259631,50.5392056 Z M104.801349,41.3497598 C104.391218,40.1962671 103.71195,38.2866245 102.763522,35.6207747 L100.917943,30.3531845 C99.84135,33.1728332 98.5468942,36.8383217 97.0345372,41.3497598 L104.801349,41.3497598 Z" id="IA-Copy" fill="#FFFFFF"></path>
            <path d="M496.732665,95.5375544 C496.732665,95.6913534 496.550031,95.7778641 496.184759,95.7970889 C495.338864,95.8163138 494.771739,95.9412736 494.483365,96.1719722 C494.194992,96.4026707 493.897011,96.9409592 493.589413,97.7868539 L492.608949,100.468711 C490.244289,106.947495 488.581362,111.917051 487.620118,115.377529 C487.562444,115.608228 487.466321,115.723576 487.331746,115.723576 C487.177947,115.723576 486.860742,115.002653 486.38012,113.560788 C485.515,110.926979 484.84214,108.946846 484.361518,107.62033 C483.842446,106.159239 483.073462,103.977248 482.054544,101.074292 L480.670359,97.1812732 C480.478111,96.6429766 480.26664,96.2825156 480.035942,96.0998792 C479.805243,95.9172429 479.420751,95.8163138 478.882455,95.7970889 C478.248034,95.7778641 477.868348,95.7586395 477.743386,95.7394146 C477.618425,95.7201897 477.555945,95.6432913 477.555945,95.5087172 C477.555945,95.3356933 477.748191,95.2491826 478.132688,95.2491826 L478.392223,95.2491826 C478.738271,95.2491826 479.339039,95.2636011 480.194546,95.2924384 C481.050053,95.3212757 481.660434,95.3356942 482.025707,95.3356942 C482.121831,95.3356942 482.491904,95.3212757 483.135938,95.2924384 C483.779971,95.2636011 484.697945,95.2491826 485.889888,95.2491826 L486.293608,95.2491826 C486.639656,95.2491826 486.812677,95.3453056 486.812677,95.5375544 C486.812677,95.749028 486.466635,95.8643756 485.774539,95.8836005 L484.015472,95.9412748 C483.611749,95.9604997 483.409891,96.0854595 483.409891,96.316158 C483.409891,96.3546078 483.429116,96.4315062 483.467565,96.5468554 L483.698263,97.2966219 C483.736712,97.450421 484.669105,100.161088 486.495468,105.428705 C486.803066,106.332274 487.389416,108.052875 488.254536,110.590559 C491.426641,101.612541 493.01267,96.8929038 493.01267,96.4315067 C493.01267,95.9701097 492.541667,95.7586392 491.599648,95.7970889 L490.705696,95.8259261 C490.474997,95.8259261 490.35965,95.7490277 490.35965,95.5952287 C490.35965,95.4029799 490.648018,95.306857 491.224765,95.306857 L492.205229,95.306857 C492.743525,95.3260819 493.137629,95.3356942 493.387553,95.3356942 L494.310342,95.3356942 L496.213596,95.306857 C496.559644,95.306857 496.732665,95.3837553 496.732665,95.5375544 Z M502.422023,115.175669 C502.422023,115.291019 502.335513,115.348692 502.162489,115.348692 L501.874117,115.348692 L501.268536,115.319855 L500.51877,115.319855 C500.364971,115.319855 500.201562,115.310243 500.028538,115.291018 L499.711329,115.291018 C499.51908,115.291018 499.158619,115.30063 498.629935,115.319855 C498.101251,115.33908 497.702341,115.348692 497.433192,115.348692 L497.317844,115.348692 C496.991021,115.348692 496.827612,115.291019 496.827612,115.175669 C496.827612,115.02187 497.039082,114.93536 497.46203,114.916135 C498.038776,114.877685 498.341563,114.810399 498.370401,114.714274 C498.399238,114.61815 498.413656,114.204821 498.413656,113.474276 L498.413656,104.188706 C498.413656,103.438936 498.394432,103.001577 498.355982,102.876615 C498.317532,102.751653 498.173348,102.679561 497.923424,102.660336 L497.346681,102.631499 L497.058309,102.631499 C496.885285,102.631499 496.798775,102.564213 496.798775,102.429639 C496.798775,102.295065 496.923734,102.227779 497.173658,102.227779 L497.346681,102.227779 C497.481255,102.247003 497.692726,102.256616 497.981099,102.256616 L500.057375,102.256616 C500.172724,102.256616 500.345746,102.247003 500.576444,102.227779 L501.931791,102.227779 C502.239389,102.227779 502.393186,102.304677 502.393186,102.458476 C502.393186,102.573825 502.066368,102.641111 501.412722,102.660336 C501.143574,102.660336 500.980165,102.703591 500.92249,102.790103 C500.864816,102.876615 500.835979,103.140953 500.835979,103.583126 L500.835979,114.45474 C500.835979,114.646989 500.908071,114.771949 501.052258,114.829623 C501.196444,114.887298 501.537681,114.935359 502.075977,114.973809 C502.306676,114.993034 502.422023,115.06032 502.422023,115.175669 Z M512.92719,111.657534 C512.92719,112.734127 512.4658,113.656908 511.543005,114.425903 C510.620211,115.194898 509.505185,115.57939 508.197893,115.57939 C507.217425,115.57939 506.208134,115.271796 505.16999,114.6566 C505.054641,114.61815 504.977743,114.598926 504.939293,114.598926 C504.823944,114.598926 504.756657,114.695049 504.737433,114.887298 C504.718208,115.079546 504.689371,115.247761 504.650921,115.391948 C504.612471,115.536135 504.516348,115.608227 504.362549,115.608227 C504.170301,115.608227 504.074178,115.512104 504.074178,115.319855 C504.074178,115.281405 504.103014,114.993036 504.160689,114.45474 C504.218364,113.916443 504.247201,113.455053 504.247201,113.070556 C504.247201,112.897532 504.237588,112.652418 504.218363,112.335208 C504.199139,112.017997 504.189526,111.772884 504.189526,111.59986 C504.189526,111.234587 504.285649,111.051953 504.477898,111.051953 C504.670147,111.051953 504.814331,111.349935 504.910456,111.945906 C505.275728,114.060642 506.409979,115.117995 508.313242,115.117995 C509.928132,115.117995 510.735565,114.310562 510.735565,112.695672 C510.735565,111.984352 510.543319,111.407614 510.158821,110.965442 C509.774324,110.52327 509.024565,110.02343 507.909522,109.465909 C506.448431,108.735364 505.516038,108.158626 505.112316,107.735679 C504.593244,107.178157 504.333712,106.486072 504.333712,105.659402 C504.333712,104.602034 504.718204,103.732121 505.487199,103.049638 C506.256194,102.367155 507.227036,102.025918 508.399754,102.025918 C509.130299,102.025918 509.908895,102.247001 510.735565,102.689173 C510.831689,102.746848 510.908587,102.775685 510.966262,102.775685 C511.100836,102.775685 511.187347,102.636307 511.225797,102.357546 C511.264246,102.078785 511.379594,101.939407 511.571843,101.939407 C511.764091,101.939407 511.860214,102.03553 511.860214,102.227779 C511.860214,102.266228 511.850602,102.343127 511.831377,102.458476 C511.792927,102.766074 511.773703,103.160178 511.773703,103.6408 C511.773703,103.929173 511.80254,104.448237 511.860214,105.198007 C511.879439,105.274907 511.889052,105.361418 511.889052,105.457542 C511.889052,105.68824 511.812153,105.803588 511.658354,105.803588 C511.48533,105.803588 511.36037,105.630567 511.283471,105.284519 C511.110447,104.438624 510.759598,103.760957 510.230914,103.251498 C509.70223,102.742039 509.082237,102.487313 508.370916,102.487313 C506.986725,102.487313 506.29464,103.22746 506.29464,104.707775 C506.29464,105.361421 506.477274,105.89971 506.842546,106.322657 C507.034795,106.553356 507.246265,106.735989 507.476964,106.870563 C507.707663,107.005138 508.380523,107.341568 509.495566,107.879864 C510.745183,108.495061 511.629514,109.086217 512.148586,109.653351 C512.667658,110.220484 512.92719,110.888539 512.92719,111.657534 Z M527.123514,102.458476 C527.123514,102.59305 526.969718,102.660336 526.662119,102.660336 L526.517934,102.660336 C526.325685,102.641111 526.133439,102.631499 525.94119,102.631499 C525.633592,102.631499 525.479795,102.823745 525.479795,103.208242 L525.479795,108.543119 C525.479795,110.407933 525.441346,111.609469 525.364447,112.147766 C525.287547,112.686063 525.085689,113.224351 524.758866,113.762648 C524.009096,114.973815 522.682599,115.57939 520.779336,115.57939 C519.202896,115.57939 517.943686,115.214122 517.001667,114.483577 C516.136547,113.810706 515.703994,112.513047 515.703994,110.590559 L515.703994,104.505915 C515.703994,103.467772 515.670351,102.900646 515.603064,102.804522 C515.535777,102.708398 515.252214,102.660336 514.752367,102.660336 C514.348645,102.660336 514.146786,102.583438 514.146786,102.429639 C514.146786,102.295065 514.281359,102.227779 514.550507,102.227779 L515.444459,102.227779 C515.636708,102.247003 515.780892,102.256616 515.877017,102.256616 L518.299339,102.256616 C518.433913,102.256616 518.597322,102.247003 518.789571,102.227779 L519.10678,102.227779 C519.452828,102.227779 519.625849,102.304677 519.625849,102.458476 C519.625849,102.650725 519.270194,102.737235 518.558874,102.71801 C518.3474,102.71801 518.22244,102.751653 518.183991,102.818941 C518.145541,102.886228 518.126316,103.102504 518.126316,103.467777 L518.126316,110.388699 C518.126316,112.272737 518.366624,113.493498 518.847246,114.051019 C519.385542,114.68544 520.183363,115.002646 521.240731,115.002646 C522.721047,115.002646 523.730338,114.387459 524.268634,113.157067 C524.537782,112.541871 524.672355,111.551805 524.672355,110.186838 L524.672355,109.869629 C524.65313,109.658156 524.643517,109.437073 524.643517,109.206374 L524.643517,103.208242 C524.643517,102.958319 524.595456,102.804522 524.499332,102.746848 C524.403207,102.689173 524.138869,102.660336 523.706309,102.660336 C523.273749,102.660336 523.057473,102.573825 523.057473,102.400802 C523.057473,102.266227 523.17282,102.198941 523.403519,102.198941 C523.499643,102.198941 523.595766,102.208554 523.691891,102.227779 L525.018401,102.256616 L525.33561,102.256616 C525.547083,102.237391 525.854677,102.227779 526.258399,102.227779 L526.662119,102.227779 C526.969718,102.227779 527.123514,102.304677 527.123514,102.458476 Z M541.00263,115.204506 C541.00263,115.319856 540.810384,115.377529 540.425886,115.377529 L540.224026,115.377529 L538.436121,115.319855 L537.628681,115.319855 C537.301858,115.319855 536.85008,115.329467 536.273334,115.348692 L535.408218,115.377529 L534.889149,115.406367 L534.744963,115.406367 C534.398916,115.406367 534.225894,115.329468 534.225894,115.175669 C534.225894,115.02187 534.571937,114.93536 535.264032,114.916135 C536.090702,114.89691 536.504031,114.800787 536.504031,114.627763 C536.504031,114.589313 536.446357,114.40668 536.331008,114.079857 C536.292558,113.926058 536.071475,113.282034 535.667753,112.147766 L535.321707,111.167302 L531.197991,111.167302 C530.409771,113.147465 530.015667,114.291328 530.015667,114.598926 C530.015667,114.77195 530.131014,114.868073 530.361713,114.887298 L530.736596,114.916135 L531.169154,114.916135 L531.428688,114.944972 C531.659387,114.944972 531.774735,115.012258 531.774735,115.146832 C531.774735,115.300631 531.572876,115.377529 531.169154,115.377529 C531.111479,115.377529 530.770243,115.363111 530.145434,115.334274 C529.520626,115.305436 528.967919,115.291018 528.487297,115.291018 L528.227762,115.291018 L527.968228,115.319855 L527.651019,115.348692 L527.593344,115.348692 C527.285746,115.348692 527.13195,115.291019 527.13195,115.175669 C527.13195,115.041095 527.256909,114.964197 527.506833,114.944972 C527.852881,114.925747 528.083576,114.906522 528.198925,114.887298 C528.525748,114.829623 528.737218,114.743112 528.833343,114.627763 C528.948692,114.570088 529.419695,113.474287 530.246364,111.340325 C530.573187,110.475206 530.890393,109.667773 531.197991,108.918003 C531.31334,108.648854 531.390239,108.446996 531.428688,108.312422 C531.467138,108.177848 531.544037,107.97599 531.659386,107.706841 C531.986209,106.918621 532.447599,105.726697 533.04357,104.131032 L533.476128,102.919871 L533.677988,102.400802 C533.793337,102.112428 533.908685,101.968244 534.024034,101.968244 C534.081709,101.968244 534.206668,102.237388 534.398917,102.775685 C534.975664,104.179101 536.465569,107.889447 538.868679,113.906834 C539.099378,114.502805 539.32046,114.820011 539.531934,114.85846 C539.589609,114.877685 539.897202,114.906522 540.454724,114.944972 C540.819996,114.964197 541.00263,115.050707 541.00263,115.204506 Z M535.148684,110.648233 L533.274268,105.717076 C532.81287,106.870569 532.178459,108.514272 531.371014,110.648233 L535.148684,110.648233 Z M551.88268,112.753347 C551.88268,113.82994 551.863455,114.733496 551.825005,115.464041 C551.709656,115.483266 551.565471,115.492878 551.392448,115.492878 C551.373223,115.492878 551.224232,115.47846 550.945471,115.449622 C550.666711,115.420785 550.30625,115.406367 549.864077,115.406367 L548.50873,115.377529 L543.577574,115.319855 L541.212925,115.348692 C540.963002,115.348692 540.838042,115.281406 540.838042,115.146832 C540.838042,115.031483 541.212922,114.944972 541.962692,114.887298 C542.174166,114.868073 542.303932,114.820011 542.351994,114.743112 C542.400056,114.666212 542.424087,114.454742 542.424087,114.108694 L542.424087,104.448241 C542.424087,103.371648 542.337576,102.804522 542.164552,102.746848 C542.087653,102.708398 541.919438,102.689173 541.659902,102.689173 C541.400366,102.689173 541.232151,102.679561 541.155251,102.660336 C540.943777,102.660336 540.838042,102.583438 540.838042,102.429639 C540.838042,102.295065 540.963002,102.227779 541.212925,102.227779 L545.192455,102.256616 C545.403929,102.237391 545.625012,102.227779 545.85571,102.227779 C546.220983,102.227779 546.403617,102.314289 546.403617,102.487313 C546.403617,102.602662 546.086411,102.669948 545.45199,102.689173 C545.144392,102.708398 544.961758,102.775684 544.904084,102.891034 C544.846409,103.006383 544.817572,103.419711 544.817572,104.131032 L544.817572,114.829623 C545.586567,114.848848 546.14408,114.85846 546.490128,114.85846 C548.566415,114.85846 549.864075,114.656602 550.383147,114.25288 C550.806094,113.926057 551.075238,113.233972 551.190587,112.176603 C551.229037,111.715206 551.334772,111.484511 551.507796,111.484511 C551.75772,111.484511 551.88268,111.907452 551.88268,112.753347 Z" id="Visual-Copy" fill="#FFFFFF"></path>
            <path d="M943.598992,116.35662 C943.598992,119.740199 942.416679,122.373967 940.052019,124.258006 C938.32178,125.642197 936.005217,126.334282 933.102261,126.334282 C933.025361,126.334282 932.684125,126.32467 932.078541,126.305445 C931.472957,126.28622 930.593432,126.276608 929.43994,126.276608 L927.998081,126.276608 L925.719944,126.305445 C925.58537,126.32467 925.441186,126.334282 925.287387,126.334282 C924.922114,126.334282 924.73948,126.238159 924.73948,126.04591 C924.73948,125.872886 925.047074,125.786376 925.66227,125.786376 C926.45049,125.786376 926.940717,125.642191 927.132966,125.353818 C927.209865,125.219244 927.248314,124.853977 927.248314,124.258006 L927.248314,108.714769 C927.248314,107.77275 927.176222,107.224849 927.032036,107.07105 C926.887849,106.917251 926.392816,106.840353 925.546921,106.840353 C925.104749,106.840353 924.883666,106.734618 924.883666,106.523144 C924.883666,106.369345 925.047075,106.292447 925.373898,106.292447 C925.354673,106.292447 925.566144,106.302059 926.008316,106.321284 C926.450488,106.340509 926.883041,106.350121 927.305989,106.350121 L930.391566,106.350121 C933.852044,106.350121 936.30318,106.590428 937.745045,107.07105 C939.494509,107.647797 940.907517,108.786854 941.98411,110.488255 C943.060703,112.189657 943.598992,114.145759 943.598992,116.35662 Z M940.369228,116.241271 C940.369228,113.049942 939.744429,110.709348 938.494812,109.21942 C937.245195,107.729492 935.293899,106.984539 932.640866,106.984539 C931.352799,106.984539 930.574203,107.119111 930.305055,107.388259 C930.189705,107.522833 930.132032,107.984224 930.132032,108.772444 L930.132032,124.11382 C930.132032,124.652116 930.14645,124.978934 930.175287,125.094284 C930.204125,125.209633 930.285829,125.305756 930.420403,125.382655 C930.881801,125.613354 931.852642,125.728701 933.332958,125.728701 C935.409245,125.728701 937.081784,124.998167 938.350626,123.537076 C939.696368,121.999086 940.369228,119.567175 940.369228,116.241271 Z M956.439969,123.219867 C956.439969,123.239092 956.430357,123.359246 956.411132,123.580332 C956.391907,123.801418 956.382295,123.99847 956.382295,124.171494 L956.353457,125.815213 C956.353457,126.007462 956.36307,126.218932 956.382295,126.449631 L951.595324,126.363119 L946.116261,126.391956 C945.712539,126.391956 945.51068,126.32467 945.51068,126.190096 C945.51068,126.036297 945.626028,125.959399 945.856726,125.959399 C946.471923,125.959399 946.832384,125.916143 946.93812,125.829631 C947.043857,125.74312 947.096725,125.43072 947.096725,124.892423 L947.096725,114.972436 C947.096725,114.184216 947.029439,113.766081 946.894865,113.718019 C946.76029,113.669957 946.42386,113.645926 945.885564,113.645926 C945.654865,113.645926 945.539518,113.57864 945.539518,113.444066 C945.539518,113.290267 945.664477,113.213368 945.914401,113.213368 L947.183236,113.213368 L947.500445,113.242205 L948.221375,113.242205 C948.317499,113.242205 948.798114,113.232593 949.663233,113.213368 L954.536716,113.213368 C955.036562,113.213368 955.449891,113.194144 955.776714,113.155694 L955.776714,113.357554 L955.805551,113.790112 C955.844001,114.078485 955.920899,114.943591 956.036249,116.385457 C956.055473,116.481582 956.065086,116.596929 956.065086,116.731503 C956.065086,116.981427 955.9978,117.106387 955.863225,117.106387 C955.690202,117.106387 955.565242,116.914141 955.488342,116.529643 C955.219194,115.068552 954.709742,114.213058 953.959972,113.963135 C953.537025,113.828561 952.537346,113.761275 950.960906,113.761275 L949.49021,113.761275 L949.49021,119.153826 L950.182302,119.153826 C951.412695,119.153826 952.172066,119.052897 952.460439,118.851036 C952.748812,118.649174 952.941058,118.096467 953.037183,117.192898 C953.094857,116.654602 953.210205,116.385457 953.383229,116.385457 C953.575477,116.385457 953.6716,116.577703 953.6716,116.962201 C953.6716,117.192899 953.657182,117.548554 953.628345,118.029176 C953.599507,118.509798 953.585089,118.875065 953.585089,119.124989 C953.585089,120.374606 953.613926,121.2301 953.6716,121.691497 C953.690825,121.845296 953.700437,121.970256 953.700437,122.06638 C953.700437,122.373978 953.604315,122.527775 953.412066,122.527775 C953.239042,122.527775 953.123694,122.287468 953.06602,121.806846 C952.95067,120.768702 952.758425,120.148709 952.489276,119.946848 C952.220128,119.744987 951.460757,119.644058 950.21114,119.644058 L949.49021,119.644058 L949.49021,125.872887 C952.316267,125.853662 953.979194,125.776764 954.479041,125.64219 C955.248036,125.430716 955.699814,124.507936 955.834388,122.873821 C955.853613,122.585448 955.959348,122.441264 956.151597,122.441264 C956.343846,122.441264 956.439969,122.700796 956.439969,123.219867 Z M970.492108,113.415228 C970.492108,113.588252 970.328699,113.655538 970.001876,113.617089 C969.463579,113.636314 969.098312,113.698793 968.906063,113.80453 C968.713814,113.910267 968.550405,114.136156 968.415831,114.482204 L968.242808,114.943599 C967.166215,117.673531 965.801269,121.316591 964.14793,125.872887 C963.99413,126.353509 963.840334,126.593817 963.686535,126.593817 C963.532736,126.593817 963.378939,126.372734 963.22514,125.930562 C962.456145,123.815825 961.331506,120.855238 959.851191,117.048712 C959.658942,116.548865 959.380185,115.799106 959.014913,114.799413 C958.803439,114.203442 958.606387,113.852593 958.423751,113.746856 C958.241114,113.641119 957.774918,113.588252 957.025148,113.588252 C956.813674,113.588252 956.707939,113.530578 956.707939,113.415228 C956.707939,113.242205 956.842511,113.155694 957.111659,113.155694 C957.515382,113.155694 957.885455,113.165306 958.22189,113.184531 C958.558326,113.203756 959.197543,113.213368 960.139562,113.213368 C960.312586,113.213368 960.610568,113.203756 961.033515,113.184531 L962.734908,113.184531 C963.234755,113.184531 963.484675,113.261429 963.484675,113.415228 C963.484675,113.549803 963.34049,113.636313 963.052117,113.674763 L962.619559,113.674763 L961.985142,113.7036 C961.38917,113.722825 961.091189,113.799723 961.091189,113.934298 C961.091189,114.011197 961.591029,115.356918 962.590722,117.971502 C962.629172,118.048401 963.225134,119.653655 964.378627,122.78731 C964.513201,122.422037 964.916917,121.364685 965.589788,119.615221 L966.800949,116.443132 C967.358471,115.020491 967.637227,114.193833 967.637227,113.963135 C967.637227,113.770886 967.473818,113.665151 967.146996,113.645926 L966.483741,113.617089 L966.022346,113.617089 C965.868547,113.617089 965.791648,113.569027 965.791648,113.472903 C965.791648,113.299879 966.070405,113.213368 966.627926,113.213368 L968.012111,113.213368 C968.377383,113.232593 968.588854,113.242205 968.646529,113.242205 C968.742653,113.242205 968.925287,113.232593 969.194435,113.213368 L970.05955,113.213368 C970.347923,113.213368 970.492108,113.280654 970.492108,113.415228 Z" id="Dev-Copy" fill="#FFFFFF"></path>
            <path d="M341.335622,29.4015103 L341.335622,18.9028361" id="Stroke-8-Copy-2" stroke="#BEDDF9" stroke-width="4" opacity="0.564990942" stroke-linecap="round" stroke-linejoin="round"></path>
            <path d="M336.0038,24.234658 L346.502474,24.234658" id="Stroke-9-Copy" stroke="#BEDDF9" stroke-width="4" opacity="0.564990942" stroke-linecap="round" stroke-linejoin="round"></path>
            <path d="M256.78816,8.23919231 L263.013874,8.23919231 C266.772399,8.23919231 269.822264,11.2890571 269.822264,15.0475825 L269.822264,20.6906199 C269.822264,24.4491452 272.872129,27.4990101 276.630654,27.4990101 L282.273692,27.4990101 C286.032217,27.4990101 289.082082,30.5436256 289.082082,34.3074003 L289.082082,39.9451883 C289.082082,43.708963 292.126697,46.7588278 295.890472,46.7588278" id="Stroke-14-Copy" stroke="#BEDDF9" stroke-width="4" opacity="0.564990942" stroke-linecap="round" stroke-linejoin="round"></path>
        </g>
    </g>
</svg>