<?xml version="1.0" encoding="UTF-8"?>
<svg width="1118px" height="547px" viewBox="0 0 1118 547" version="1.1" xmlns="http://www.w3.org/2000/svg" xmlns:xlink="http://www.w3.org/1999/xlink">
    <!-- Generator: Sketch 45.1 (43504) - http://www.bohemiancoding.com/sketch -->
    <title>Illustration</title>
    <desc>Created with Sketch.</desc>
    <defs>
        <linearGradient x1="50%" y1="5.26763522%" x2="50%" y2="98.044882%" id="linearGradient-1">
            <stop stop-color="#A7DEF3" offset="0%"></stop>
            <stop stop-color="#CBF1FF" stop-opacity="0" offset="100%"></stop>
        </linearGradient>
        <filter x="0.0%" y="-0.0%" width="100.0%" height="100.0%" filterUnits="objectBoundingBox" id="filter-2">
            <feGaussianBlur stdDeviation="0" in="SourceGraphic"></feGaussianBlur>
        </filter>
    </defs>
    <g id="Page-1" stroke="none" stroke-width="1" fill="none" fill-rule="evenodd">
        <g id="Illustration" transform="translate(0.000000, 4.000000)">
            <circle id="Oval-10" fill="url(#linearGradient-1)" cx="574.5" cy="321" r="111.556741"></circle>
            <path d="M397.611926,247.0717 C407.010104,251.551627 414.139311,251.551627 418.999549,247.0717 C426.289905,240.35181 433.3893,228.703194 438.501734,243.083276 C441.005824,250.126694 456.041005,292.81555 482.903981,321.709158 C489.370603,328.664607 500.541345,332.282141 516.416205,332.56176 C535.046735,332.56176 549.579311,325.938552 560.013934,312.692136 C570.448557,299.445721 572.766469,282.12388 566.967668,260.726614 C556.501641,265.822907 549.101001,267.688201 544.765747,266.322494 C540.430494,264.956788 533.382564,258.539857 523.621958,247.0717 C478.47783,176.719121 443.603694,149.494702 418.999549,165.398442 C394.395403,181.302183 369.618829,201.253973 344.669825,225.253812 C342.409875,236.895316 341.584674,245.425709 342.194224,250.844991 C342.803774,256.264274 345.168748,261.423441 349.289146,266.322494 C356.082857,276.761084 361.619794,282.891977 365.899955,284.715173 C370.180116,286.538369 377.746851,287.535935 388.600162,287.707873 C382.31801,279.530297 377.984457,273.535611 375.599501,269.723818 C373.214546,265.912024 371.773459,259.619082 371.27624,250.844991 L397.611926,247.0717 Z" id="Path-14" fill="#844747"></path>
            <path d="M431.359869,310 C428.733802,319.113353 425.755044,324.995245 422.423597,327.645677 C419.09215,330.296108 411.950951,332.465449 401,334.153698 C408.384088,348.723205 418.504045,356.079736 431.359869,356.223291 C444.215694,356.366845 456.476152,349.880614 468.141242,336.764596 C463.999905,336.083034 461.379393,334.865773 460.279707,333.112811 C459.180021,331.359849 457.616942,325.908232 455.590471,316.75796 C449.091561,319.172772 444.631115,320.042431 442.209134,319.366936 C439.787153,318.691441 436.170732,315.569129 431.359869,310 Z" id="Path-15" fill="#844747"></path>
            <path d="M388.672198,287.649426 C407.240678,310.886368 421.101914,323.095349 430.255905,324.276367 C439.409897,325.457386 452.500463,318.541569 469.527604,303.528917 C458.535804,284.505698 450.794213,269.482668 446.30283,258.459828 C439.565756,241.925569 438.788654,231.338111 430.255905,238.040062 C421.723156,244.742013 414.828027,250.802965 402.534897,248.62752 C394.339477,247.177223 384.161178,248.100763 372,251.398141 C372.996554,258.898263 374.242578,264.408127 375.73807,267.927733 C377.233561,271.44734 381.544938,278.021237 388.672198,287.649426 Z" id="Path-16" fill="#FBB9B9"></path>
            <g id="Page-1" transform="translate(758.000000, 213.853222)">
                <polygon id="Fill-6" fill="#E1F1F7" points="0 176.225874 3.95968785 199.986377 12.275864 210.678604 12.275864 233.251082 3.95968785 242.755283 3.95968785 260.57566 17.0279646 270.079862 17.0279646 283.148138 6.33573817 283.148138 13.4638891 298.592465 106.129852 298.592465 109.693927 285.524189 109.693927 276.019987 102.565776 276.019987 103.753801 255.82356 103.753801 242.755283 93.0615748 236.813969 103.753801 223.74688 99.0017006 223.74688 97.8136754 216.61873 104.941826 207.114528 99.0017006 190.482176 94.2495999 190.482176 101.377751 176.225874 27.4490691 176.225874"></polygon>
                <path d="M0,176.225874 L3.95968785,199.986377 L3.51417842,178.750428 L101.377751,176.225874 L0,176.225874 Z M41.8279898,190.482176 L99.9022236,193.003165 L99.0017006,190.482176 L41.8279898,190.482176 Z M25.7896501,207.114528 L60.6878892,208.005547 L104.941826,207.114528 L60.6878892,206.073818 L25.7896501,207.114528 Z M12.8698765,211.718126 L47.174103,211.718126 L12.275864,210.678604 L12.8698765,211.718126 Z M37.0758892,223.74688 L102.417273,225.380415 L103.753801,223.74688 L37.0758892,223.74688 Z M12.275864,233.251082 L11.1721886,234.512764 L67.8160401,233.251082 L12.275864,233.251082 Z M65.3663323,248.249899 L103.753801,248.249899 L103.753801,242.755283 L65.3663323,248.249899 Z M3.95968785,242.755283 L3.95968785,244.685824 L19.1070086,242.755283 L3.95968785,242.755283 Z M63.8064552,276.019987 L109.693927,277.802025 L109.693927,276.019987 L63.8064552,276.019987 Z M6.33573817,283.148138 L7.4703022,285.604974 L51.6291973,283.148138 L6.33573817,283.148138 Z" id="Fill-7" fill="#FFFFFF"></path>
                <path d="M4.967846,201.282038 L53.2622567,199.985902 L3.95921264,199.985902 L4.967846,201.282038 Z M94.8431373,189.293676 L38.4119422,190.481701 L94.2491247,190.481701 L94.8431373,189.293676 Z M103.632147,257.903317 L61.1329234,257.903317 L103.535917,259.540415 L103.632147,257.903317 Z M99.2756592,214.671081 L51.6287221,216.618254 L97.8132002,216.618254 L99.2756592,214.671081 Z M3.95921264,242.754808 L59.3508857,242.754808 L5.487013,241.008411 L3.95921264,242.754808 Z M6.33526296,262.302574 L51.6287221,260.575185 L3.95921264,260.575185 L6.33526296,262.302574 Z M109.693452,285.523714 L59.3508857,286.860242 L109.329916,286.860242 L109.693452,285.523714 Z M17.0274894,280.771613 L57.8658542,283.147663 L17.0274894,283.147663 L17.0274894,280.771613 Z" id="Fill-8" fill="#BAC6C6"></path>
                <polygon id="Fill-9" fill="#FFFFFF" points="83.7928401 0.253211543 79.634752 21.0293955 90.0299722 33.800666 70.1305508 33.800666 70.1305508 55.1851188 87.0599093 64.6893201 78.6082983 76.866578 78.6082983 97.0630057 96.2671042 111.319308 87.1585154 127.456253 87.1585154 154.38522 97.8507418 166.265471 87.1585154 177.75011 87.1585154 218.935379 94.6834667 233.19168 94.6834667 248.723921 86.762903 264.475947 86.762903 279.127861 94.6834667 291.404913 94.6834667 308.037265 83.5944399 315.083443 83.5944399 322.71294 142.600085 322.71294 218.336689 322.71294 226.652865 305.466379 213.584589 305.466379 213.584589 271.99971 207.347457 265.465572 207.347457 243.487106 219.376211 231.458352 219.376211 213.414626 206.456438 193.59005 206.456438 147.257069 220.71274 137.455861 207.347457 116.665421 207.347457 66.4713578 197.047278 43.6018735 196.65523 24.6920771 210.71432 15.7830764 215.366626 0.253211543"></polygon>
                <path d="M211.22529,14.0746962 L149.431349,15.7818884 L210.713251,15.7818884 L211.22529,14.0746962 Z M196.655349,24.6932651 L148.935942,24.6932651 L196.694554,26.5739089 L196.655349,24.6932651 Z M80.7385462,22.3849322 L145.867273,21.0293955 L79.6348708,21.0293955 L80.7385462,22.3849322 Z M213.584707,304.07639 L174.082871,305.466379 L213.584707,305.466379 L213.584707,304.07639 Z M207.347575,265.465572 L175.419399,265.465572 L208.796966,266.983868 L207.347575,265.465572 Z M219.37633,231.458352 L170.964305,231.458352 L218.039802,232.79488 L219.37633,231.458352 Z M206.456557,193.59005 L137.254091,193.59005 L207.512711,195.211704 L206.456557,193.59005 Z M220.712858,137.455861 L156.5595,137.455861 L218.633814,138.885055 L220.712858,137.455861 Z M207.347575,116.665421 L156.5595,119.041471 L208.874188,119.041471 L207.347575,116.665421 Z M207.347575,66.4713578 L133.393009,66.4713578 L207.347575,67.659383 L207.347575,66.4713578 Z M197.047397,43.6018735 L140.818167,43.6018735 L197.576068,44.7768304 L197.047397,43.6018735 Z M92.8468986,309.203906 L155.816984,308.037265 L94.6823975,308.037265 L92.8468986,309.203906 Z M94.6823975,291.404913 L162.054116,291.404913 L93.5062526,289.580107 L94.6823975,291.404913 Z M86.7630218,265.762578 L159.975072,264.475947 L86.7630218,264.475947 L86.7630218,265.762578 Z M87.1586342,218.935379 L162.054116,218.935379 L87.1586342,216.905044 L87.1586342,218.935379 Z M96.5178964,167.697041 L155.371475,166.265471 L97.8508606,166.265471 L96.5178964,167.697041 Z M87.1586342,127.456253 L145.570267,127.456253 L88.3894282,125.275039 L87.1586342,127.456253 Z M95.0542494,113.468445 L130.12594,111.319308 L96.267223,111.319308 L95.0542494,113.468445 Z M81.487002,99.3867829 L153.143928,97.0630057 L78.6084171,97.0630057 L81.487002,99.3867829 Z M85.9991216,66.2171205 L133.393009,64.6893201 L87.0600281,64.6893201 L85.9991216,66.2171205 Z M88.5521877,31.9853635 L130.12594,33.800666 L90.030091,33.800666 L88.5521877,31.9853635 Z" id="Fill-10" fill="#D4DDDD"></path>
                <path d="M83.7928401,0.253211543 L79.634752,21.0293955 L84.6838589,1.72398669 L215.366626,0.253211543 L83.7928401,0.253211543 Z M149.43123,15.7830764 L208.789719,17.0019902 L210.71432,15.7830764 L149.43123,15.7830764 Z M70.1305508,33.800666 L70.1305508,35.2856974 L136.808463,33.800666 L70.1305508,33.800666 Z M198.666557,47.1968377 L197.57595,44.7768304 L140.818048,43.6018735 L198.666557,47.1968377 Z M70.1305508,55.1851188 L72.3319614,56.420665 L136.808463,55.1851188 L70.1305508,55.1851188 Z M207.347457,69.4414207 L207.347457,67.659383 L156.559381,66.4713578 L207.347457,69.4414207 Z M78.6082983,76.866578 L78.6082983,78.2031063 L154.62884,76.866578 L78.6082983,76.866578 Z M137.253972,147.257069 L206.456438,149.930125 L206.456438,147.257069 L137.253972,147.257069 Z M87.1585154,154.38522 L179.131859,154.38522 L87.1585154,152.157672 L87.1585154,154.38522 Z M87.1585154,177.75011 L87.1585154,179.185245 L146.461167,177.75011 L87.1585154,177.75011 Z M208.796847,197.18145 L207.51378,195.211704 L155.371356,194.008235 L208.796847,197.18145 Z M170.964186,213.414626 L219.376211,215.271509 L219.376211,213.414626 L170.964186,213.414626 Z M94.6834667,235.61644 L173.191733,235.61644 L94.6834667,233.19168 L94.6834667,235.61644 Z M151.80728,243.487106 L207.347457,244.823635 L207.347457,243.487106 L151.80728,243.487106 Z M94.6834667,248.723921 L94.1215308,249.838289 L161.014475,248.723921 L94.6834667,248.723921 Z M168.142626,271.99971 L213.584589,273.930251 L213.584589,271.99971 L168.142626,271.99971 Z M86.762903,279.127861 L87.566008,280.372912 L159.974953,279.127861 L86.762903,279.127861 Z M161.014475,305.466379 L225.694129,307.453945 L226.652865,305.466379 L161.014475,305.466379 Z M83.5944399,315.083443 L83.5944399,316.699157 L169.776161,315.083443 L83.5944399,315.083443 Z" id="Fill-11" fill="#FFFFFF"></path>
            </g>
            <path d="M441,323.128085 C446.114355,333.769339 450.266433,341.511788 453.456233,346.355429 C456.646033,351.199071 469.923575,345.401957 493.288859,328.964086 C482.365502,319.41515 474.416139,312.057807 469.440771,306.892057 C464.465403,301.726308 454.985146,307.138317 441,323.128085 Z" id="Path-17" fill="#FBB9B9"></path>
            <path d="M443.374762,326.291412 C461.729401,318.746668 470.864339,313.348032 470.779577,310.095506 C470.694815,306.842979 469.19507,305.144477 466.280343,305 C453.704314,316.310554 444.696693,322.163309 439.25748,322.558265 C433.818266,322.953221 435.190694,324.197603 443.374762,326.291412 Z" id="Path-18" fill="#E9ADAD"></path>
            <path d="M574.115775,304.633706 L708.907116,355.874437 L766.729489,295 C784.631479,309.574732 793.522065,317.597547 793.401248,319.068444 C793.220023,321.27479 747.145651,392.617144 735.521344,398.623468 C729.380164,401.796639 726.274706,410.922089 676.407381,398.623468 C667.700632,396.47615 644.841315,388.161841 607.829431,373.68054 C608.28166,384.13283 609.526266,392.447139 611.563248,398.623468 C613.60023,404.799797 629.741745,449.20191 659.987795,531.829807 L346.853512,541.103939 L274.780503,418.05197 C272.406499,415.685827 272.406499,408.280029 274.780503,395.834576 C277.154508,383.389123 284.682041,354.071848 297.363104,307.882752 L337.329117,304.633706 C328.340726,360.988058 324.789094,390.741607 326.67422,393.894351 C328.559347,397.047096 363.677739,384.373791 432.029397,355.874437 C478.748949,350.982846 512.472894,344.799412 533.201232,337.324134 C553.929569,329.848856 567.56775,318.952047 574.115775,304.633706 Z" id="Path-20" fill="#ADE1F9"></path>
            <path d="M436,357.373938 C449.544429,362.13319 459.585982,363.282955 466.124657,360.823234 C472.663333,358.363512 479.65248,351.846707 487.092099,341.272819 C511.316334,344.966051 527.317455,345.574816 535.095461,343.099113 C542.873467,340.62341 553.7699,329.590372 567.784758,310 C553.324034,321.728358 540.89794,328.462623 530.506477,330.202797 C520.115013,331.94297 506.863172,330.876152 490.750952,327.002344 C483.980448,335.072828 477.882777,340.438418 472.45794,343.099113 C467.033102,345.759807 459.210465,347.269315 448.99003,347.627636 L436,357.373938 Z" id="Path-19" fill="#FFFFFF"></path>
            <g id="Group-18" transform="translate(0.000000, 399.000000)">
                <path d="M1094.87121,134.510619 C1090.79294,134.434109 1086.94124,134.434109 1082.86297,134.395854 C1077.42528,134.357598 1071.98759,134.319343 1066.77647,134.242833 C1053.18225,134.013301 1039.81459,133.515983 1026.44693,133.20994 C1012.17299,132.865643 997.445916,132.750877 982.718837,132.750877 C979.999992,131.717985 974.788871,130.991135 968.671469,130.532072 C960.514933,129.346158 950.998975,129.346158 939.897023,129.728711 C938.5376,129.766966 936.951607,129.843477 935.592184,129.881732 C921.091676,130.187774 906.817738,130.838114 892.5438,131.258922 C875.777587,131.75624 858.784803,132.138793 841.79202,132.48309 C825.478948,132.789132 807.579883,132.674367 791.719952,133.362961 C750.484131,132.444835 708.568598,132.253559 666.879636,132.100538 C612.955871,131.871006 558.805534,132.291814 505.108339,132.827388 C451.184573,133.362961 397.713948,134.281088 343.790182,135.046193 C317.50801,135.428746 290.999268,135.696533 264.490526,135.505256 C238.434925,135.31398 213.059035,134.319343 187.003434,133.93679 C157.549276,133.515983 129.22797,134.281088 100.226953,135.199214 C86.6327266,135.620022 73.2650703,136.002575 59.4442732,136.193851 C45.1703351,136.423383 30.6698267,136.308617 16.3958886,136.499893 C-0.370324317,136.729425 -5.35487411,140.899249 10.505057,142.046907 C34.9746651,143.806649 62.1631185,143.23282 87.7655788,142.620736 C112.914898,142.008652 138.290788,141.205291 163.893248,141.205291 C188.362856,141.205291 212.832465,142.238183 237.302073,142.697247 C264.943667,143.23282 292.811832,143.23282 320.679996,143.003289 C375.056903,142.582481 429.20724,141.549589 483.584146,141.090525 C537.507912,140.631462 505.288429,142.850268 559.212195,142.697247 C598.862023,142.582481 666.879636,140.516696 764.758069,139.522059 C765.43778,139.636825 766.344062,139.713336 767.023773,139.789846 C775.63345,140.746228 784.922838,141.396567 794.891938,141.855631 C814.830137,142.735502 835.901189,142.544225 855.839388,141.817375 C871.246178,141.243546 885.746686,140.363675 900.247195,139.407294 C914.521133,138.986486 928.568501,138.642188 943.069009,138.527422 C956.210095,138.450912 969.577751,138.527422 982.492266,138.87172 C996.539634,139.292528 1010.13386,139.981123 1023.95466,140.516696 C1037.54888,141.05227 1051.36968,141.664354 1065.41705,141.893886 C1073.34701,142.008652 1081.50355,142.085162 1089.43352,141.893886 C1093.28521,141.817375 1097.36348,141.70261 1100.98861,141.473078 C1106.19973,141.128781 1109.14515,140.478441 1112.99684,139.828102 C1121.83309,138.565678 1116.62197,136.079085 1107.33258,135.275725 C1104.61374,135.046193 1099.62919,134.58713 1094.87121,134.510619 Z" id="Shape" fill="#E0E7EE" fill-rule="nonzero" filter="url(#filter-2)"></path>
                <path d="M476.526438,13.2995327 L476.526438,126.721962 C476.526438,132.618925 471.758681,137.386682 465.861718,137.386682 L273.645831,137.386682 C267.748868,137.386682 262.981111,132.618925 262.981111,126.721962 L262.981111,13.1740654 C262.981111,7.27710279 267.748868,2.50934579 273.645831,2.50934579 L465.861718,2.50934579 C471.758681,2.63481308 476.526438,7.40257008 476.526438,13.2995327" id="Shape" fill="#E4E6E9" fill-rule="nonzero"></path>
                <path d="M476.526438,114.300701 L476.526438,126.721962 C476.526438,132.618925 471.758681,137.386682 465.861718,137.386682 L273.645831,137.386682 C267.748868,137.386682 262.981111,132.618925 262.981111,126.721962 L262.981111,114.175233 L476.526438,114.300701 Z" id="Shape" fill="#CDCFD2" fill-rule="nonzero"></path>
                <path d="M273.394896,139.394159 C266.24326,139.394159 260.471765,133.622663 260.471765,126.471028 L260.471765,83.4357475 C260.471765,82.1810746 261.600971,81.3028035 262.730176,81.3028035 C263.859382,81.3028035 264.86312,82.3065419 264.86312,83.4357475 L264.86312,126.471028 C264.86312,131.113317 268.627139,135.002803 273.269429,135.002803 L465.610783,135.002803 C470.253073,135.002803 474.017092,131.238785 474.017092,126.471028 L474.017092,12.9231308 C474.017092,8.2808411 470.253073,4.39135513 465.610783,4.39135513 L273.394896,4.39135513 C268.752606,4.39135513 264.988588,8.15537381 264.988588,12.9231308 L264.988588,35.2563083 C264.988588,36.5109812 263.984849,37.5147195 262.730176,37.5147195 C261.475503,37.5147195 260.471765,36.5109812 260.471765,35.2563083 L260.471765,12.9231308 C260.471765,5.77149531 266.24326,0 273.394896,0 L465.610783,0 C472.762419,0 478.533914,5.77149531 478.533914,12.9231308 L478.533914,126.34556 C478.533914,133.497196 472.762419,139.394159 465.610783,139.394159 L273.394896,139.394159 Z" id="Shape" fill="#979797" fill-rule="nonzero"></path>
                <path d="M376.403541,78.5425232 C384.809849,88.5799063 378.411017,93.0967287 370.381111,93.0967287 C362.351204,93.0967287 355.826905,86.5724297 355.826905,78.5425232 C355.826905,70.5126166 362.351204,63.9883176 370.381111,63.9883176 C378.411017,63.9883176 382.175036,71.2654204 376.403541,78.5425232" id="Path" stroke="#EAEAEA" fill="#FFFFFF"></path>
                <path d="M370.130176,65.8703269 C363.354942,65.8703269 357.834382,71.3908877 357.834382,78.1661213 C357.834382,84.9413549 363.354942,90.4619157 370.130176,90.4619157 C373.894195,90.4619157 376.90541,89.3327101 377.658213,87.576168 C378.536484,85.819626 377.407279,82.9338783 374.521531,79.5462615 C373.894195,78.7934578 373.768727,77.5387849 374.521531,76.6605138 C376.779942,73.9002335 377.407279,71.0144858 376.278073,68.8815419 C375.399802,67.1249998 373.015924,65.8703269 370.130176,65.8703269 M370.130176,95.1042054 C360.845597,95.1042054 353.317559,87.576168 353.317559,78.2915886 C353.317559,69.0070092 360.845597,61.4789718 370.130176,61.4789718 C374.772466,61.4789718 378.536484,63.6119157 380.293027,67.1249998 C381.924101,70.3871494 381.422232,74.4021026 379.038354,78.1661213 C382.300503,82.5574764 383.304241,86.4469624 381.798634,89.5836446 C380.167559,93.0967287 375.776204,95.1042054 370.130176,95.1042054" id="Shape" fill="#FFFFFF" fill-rule="nonzero"></path>
                <path d="M368.122699,58.0631152 C366.868027,58.0631152 365.864288,57.0593769 365.864288,55.804704 C365.864288,55.5537694 365.864288,55.4283021 365.989756,55.1773675 C366.115223,54.9264329 367.997232,48.1511993 373.64326,46.5201245 C374.772466,46.1437227 376.027139,46.8965264 376.403541,48.1511993 C376.654475,49.2804049 376.027139,50.5350778 374.897933,50.7860124 C371.761251,51.7897507 370.255643,56.3065731 370.255643,56.4320404 C370.004709,57.4357787 369.126438,58.0631152 368.122699,58.0631152" id="Shape" fill="#FFFFFF" fill-rule="nonzero"></path>
            </g>
            <path d="M298,307.49328 C302.336246,291.272979 307.311667,275.382785 312.926263,259.822698 C318.540859,244.26261 328.971409,231.374276 344.217913,221.157696 L350.370663,194.83126 C354.425082,196.476614 356.84417,198.222377 357.627928,200.068548 C358.411685,201.91472 356.957635,206.956171 353.265775,215.192901 C360.552414,211.687057 365.651329,208.98207 368.562519,207.077939 C376.283876,202.027609 381.758558,196.571394 386.994927,193.88031 C399.291593,187.560786 397.107187,193.274406 395.281968,195.582146 C392.752918,198.779784 386.952224,205.316702 377.879887,215.192901 C383.742267,211.531724 393.969363,205.795303 397.93271,205.055047 C403.040153,204.101102 404.318943,205.395058 401.769081,208.936912 C396.759182,212.148874 393.786143,214.234203 392.849964,215.192901 C391.913785,216.151598 387.694775,219.933327 380.192933,226.538089 C379.098192,227.651682 379.098192,228.097884 380.192933,227.876693 C381.165989,227.680088 388.13402,224.67989 399.564434,221.157696 C400.517394,220.864049 401.535687,220.864049 402.619312,221.157696 C402.404236,223.07107 401.880274,224.389286 401.047427,225.112343 C394.559836,230.744706 387.749269,231.893612 386.020636,233.834247 C384.958509,235.026635 403.973727,233.713666 401.769081,236.324878 C400.299316,238.065686 394.057997,240.510428 383.045123,243.659104 C373.077561,252.191166 366.221206,257.57903 362.476058,259.822698 C358.730911,262.066365 352.644862,262.066365 344.217913,259.822698 C342.356176,269.933587 341.024881,277.71363 340.22403,283.162828 C339.423178,288.612026 338.41914,296.722177 337.211916,307.49328 L298,307.49328 Z" id="Path-23" fill="#FBB9B9"></path>
            <path d="M750.211337,251.660115 C801.799311,246.629552 831.475265,241.246476 839.239198,235.510888 C847.003131,229.7753 850.940369,226.62913 851.050913,226.072379 C863.977592,220.544027 871.773815,218.039535 874.439581,218.558904 C877.105348,219.078273 875.049557,222.326819 868.272209,228.30454 C886.124863,230.37969 895.420182,232.308456 896.158164,234.090839 C896.896147,235.873223 894.067467,237.306335 887.672124,238.390175 C895.040572,239.140293 898.297024,240.341696 897.44148,241.994382 C896.158164,244.473412 873.323477,249.705135 857.349151,252.119644 C852.243044,252.891429 845.586611,253.28913 841.458229,254.966161 C832.671074,258.535677 835.980073,258.583004 810.41067,269.044667 C796.667624,274.667603 780.008781,280.299811 760.434143,285.941293 L750.211337,251.660115 Z" id="Path-24" fill="#FBB9B9" transform="translate(823.893160, 252.216646) scale(1, -1) rotate(65.000000) translate(-823.893160, -252.216646) "></path>
            <path d="M435.96948,308.878764 C433.538903,308.878764 426.218801,307.389185 426.218801,305.189563 C426.218801,304.789219 426.393765,304.400962 426.688523,304.118455 C427.285922,303.5474 428.348314,303.574593 428.909459,304.095794 C429.64872,304.487073 432.766541,305.857305 435.96948,305.857305 C439.330044,305.857305 442.763115,304.443262 443.541782,304.061048 C444.109232,303.570061 445.138523,303.559485 445.720159,304.116945 C446.016494,304.400962 446.189881,304.787708 446.189881,305.189563 C446.189881,307.389185 438.518275,308.878764 435.96948,308.878764" id="Fill-90" fill="#844747" transform="translate(436.204341, 306.287204) rotate(-23.000000) translate(-436.204341, -306.287204) "></path>
            <path d="M394.736404,273.692129 C392.808805,273.692129 387.003508,272.5108 387.003508,270.766363 C387.003508,270.448865 387.142265,270.140953 387.376027,269.916908 C387.849801,269.464025 388.692344,269.485591 389.137367,269.898936 C389.723647,270.209245 392.196274,271.295924 394.736404,271.295924 C397.401541,271.295924 400.12418,270.1745 400.741712,269.87138 C401.191735,269.481997 402.008027,269.47361 402.4693,269.91571 C402.704312,270.140953 402.841819,270.447667 402.841819,270.766363 C402.841819,272.5108 396.757758,273.692129 394.736404,273.692129" id="Fill-90-Copy" fill="#C78585" transform="translate(394.922664, 271.636861) rotate(151.000000) translate(-394.922664, -271.636861) "></path>
            <path d="M424.736404,258.692129 C422.808805,258.692129 417.003508,257.5108 417.003508,255.766363 C417.003508,255.448865 417.142265,255.140953 417.376027,254.916908 C417.849801,254.464025 418.692344,254.485591 419.137367,254.898936 C419.723647,255.209245 422.196274,256.295924 424.736404,256.295924 C427.401541,256.295924 430.12418,255.1745 430.741712,254.87138 C431.191735,254.481997 432.008027,254.47361 432.4693,254.91571 C432.704312,255.140953 432.841819,255.447667 432.841819,255.766363 C432.841819,257.5108 426.757758,258.692129 424.736404,258.692129" id="Fill-90-Copy-2" fill="#C78585" transform="translate(424.922664, 256.636861) rotate(151.000000) translate(-424.922664, -256.636861) "></path>
            <path d="M411,270 C415.719913,287.767108 421.231277,294.247802 427.534091,289.442082 C433.836904,284.636361 431.681621,284.110324 421.068241,287.86397 L411,270 Z" id="Path-25" fill="#C78585"></path>
            <path d="M392,281.156405 C395.587871,276.989503 398.520599,274.937846 400.798184,275.001434 C402.798208,275.057272 403.033298,277.141277 396.997787,280.263189 C396.439385,280.552027 394.773456,280.849765 392,281.156405 Z" id="Path-26" fill="#844747"></path>
            <path d="M421.155222,263.888211 C424.743093,259.721309 427.675821,257.669652 429.953406,257.73324 C431.953429,257.789078 431.581182,260.442117 425.545671,263.564029 C424.987268,263.852866 423.523785,263.960927 421.155222,263.888211 Z" id="Path-26-Copy" fill="#844747" transform="translate(426.098304, 260.820977) scale(-1, 1) rotate(61.000000) translate(-426.098304, -260.820977) "></path>
            <g id="Group-19" transform="translate(683.000000, 108.000000)">
                <path d="" id="Path-21" stroke="#979797"></path>
                <path d="M1.64991655,24.4607063 C-1.37881779,39.0980377 -0.237690467,55.9571235 5.07329851,75.0379637 C10.3842875,94.1188039 21.3071209,112.43138 37.8417986,129.975694 L109.425017,93.9084492 C93.2993851,77.0616035 83.267517,64.0289242 79.3294131,54.8104115 C75.3913092,45.5918988 72.050766,27.3217617 69.3077835,0 C49.0782911,3.70815544 34.4297904,7.20134535 25.3622817,10.4795697 C16.2947729,13.7577941 8.39065118,18.418173 1.64991655,24.4607063 Z" id="Path-22" fill="#FFFFFF"></path>
                <path d="M11.1217917,43.6330628 C25.354474,36.3494813 40.9445783,31.4440131 57.8921046,28.9166583" id="Path-27" stroke="#CFDAE7" stroke-width="2" stroke-linecap="round"></path>
                <path d="M15.5705083,57.0857206 C23.4420561,50.8850768 37.6724885,45.2026533 58.2618056,40.03845" id="Path-28" stroke="#CFDAE7" stroke-width="2" stroke-linecap="round"></path>
                <path d="M17.7948667,70.4551331 C27.2728221,63.6905218 41.9974762,57.2588913 61.9688288,51.1602416" id="Path-29" stroke="#CFDAE7" stroke-width="2" stroke-linecap="round"></path>
                <path d="M22.2435833,81.9976506 C39.9560657,72.4686981 55.7021611,65.8968256 69.4818694,62.2820333" id="Path-30" stroke="#CFDAE7" stroke-width="2" stroke-linecap="round"></path>
                <path d="M28.9166583,92.0237552 C40.1120151,83.8897225 55.0991541,77.6830791 73.8780752,73.403825" id="Path-31" stroke="#CFDAE7" stroke-width="2" stroke-linecap="round"></path>
                <path d="M35.5897333,102.479544 C39.5600052,99.0027433 49.118956,95.2424593 64.2665858,91.1986916" id="Path-32" stroke="#CFDAE7" stroke-width="2" stroke-linecap="round"></path>
            </g>
            <g id="Group-19-Copy-2" opacity="0.285835598" transform="translate(607.000000, 89.000000)">
                <path d="" id="Path-21" stroke="#979797"></path>
                <path d="M0.664268872,9.84806521 C-0.55512246,15.7411654 -0.095695978,22.5287607 2.04254832,30.2108512 C4.18079261,37.8929416 8.57840787,45.2657233 15.2353941,52.3291964 L44.0553388,37.8082513 C37.5630374,31.0255839 33.5241315,25.7785287 31.9386212,22.0670858 C30.3531108,18.355643 29.0081828,10.9999477 27.9038374,0 C19.7592908,1.4929314 13.8616938,2.89931606 10.2110462,4.21915396 C6.56039869,5.53899187 3.37813957,7.41529562 0.664268872,9.84806521 Z" id="Path-22" fill="#FFFFFF"></path>
                <path d="M4.47771736,17.5670008 C10.2079028,14.6345758 16.4845966,12.6595973 23.3077988,11.6420651" id="Path-27" stroke="#CFDAE7" stroke-width="2" stroke-linecap="round"></path>
                <path d="M6.26880431,22.9831425 C9.43794892,20.4867164 15.1672285,18.1989298 23.4566432,16.1197825" id="Path-28" stroke="#CFDAE7" stroke-width="2" stroke-linecap="round"></path>
                <path d="M7.16434778,28.365769 C10.9802443,25.6422853 16.9085013,23.0528623 24.9491187,20.5974999" id="Path-29" stroke="#CFDAE7" stroke-width="2" stroke-linecap="round"></path>
                <path d="M8.95543473,33.0128737 C16.086614,29.1764454 22.4261109,26.5305599 27.9739256,25.0752172" id="Path-30" stroke="#CFDAE7" stroke-width="2" stroke-linecap="round"></path>
                <path d="M11.6420651,37.0494592 C16.1494004,33.7746362 22.1833358,31.2757947 29.7438713,29.5529346" id="Path-31" stroke="#CFDAE7" stroke-width="2" stroke-linecap="round"></path>
                <path d="M14.3286956,41.2590386 C15.927157,39.8592525 19.7756629,38.3453338 25.8742131,36.7172824" id="Path-32" stroke="#CFDAE7" stroke-width="2" stroke-linecap="round"></path>
            </g>
            <g id="Group-19-Copy-3" opacity="0.623075181" transform="translate(533.000000, 86.000000)">
                <path d="" id="Path-21" stroke="#979797"></path>
                <path d="M1.10079546,16.3197554 C-0.919923107,26.0855268 -0.158582921,37.3336139 3.38481602,50.0640166 C6.92821495,62.7944194 14.2157383,75.0122502 25.2473861,86.7175089 L73.0064573,62.6540745 C62.2477176,51.4141537 55.5546307,42.7189781 52.9271966,36.5685477 C50.2997626,30.4181173 48.0710106,18.2286014 46.2409407,0 C32.7441772,2.47401644 22.9709539,4.80461164 16.9212706,6.9917856 C10.8715874,9.17895956 5.59809568,12.2882828 1.10079546,16.3197554 Z" id="Path-22" fill="#FFFFFF"></path>
                <path d="M7.42026483,29.1112162 C16.9160615,24.251738 27.3175063,20.9788955 38.6245994,19.2926886" id="Path-27" stroke="#CFDAE7" stroke-width="2" stroke-linecap="round"></path>
                <path d="M10.3883708,38.0865941 C15.6401297,33.9496331 25.1344253,30.1584195 38.8712575,26.7129534" id="Path-28" stroke="#CFDAE7" stroke-width="2" stroke-linecap="round"></path>
                <path d="M11.8724237,47.0064323 C18.1959498,42.4932019 28.0199814,38.2021306 41.3445185,34.1332182" id="Path-29" stroke="#CFDAE7" stroke-width="2" stroke-linecap="round"></path>
                <path d="M14.8405297,54.707398 C26.657988,48.3498476 37.1635074,43.9652093 46.3570877,41.5534831" id="Path-30" stroke="#CFDAE7" stroke-width="2" stroke-linecap="round"></path>
                <path d="M19.2926886,61.3966396 C26.7620348,55.9697553 36.7611917,51.8287914 49.2901593,48.9737479" id="Path-31" stroke="#CFDAE7" stroke-width="2" stroke-linecap="round"></path>
                <path d="M23.7448475,68.3725587 C26.3937434,66.0528984 32.7713082,63.5441027 42.8775417,60.8461716" id="Path-32" stroke="#CFDAE7" stroke-width="2" stroke-linecap="round"></path>
            </g>
            <g id="Group-19-Copy" opacity="0.391417572" transform="translate(653.000000, 151.000000)">
                <path d="" id="Path-21" stroke="#979797"></path>
                <path d="M1.19455851,17.709832 C-0.998279895,28.3074278 -0.172090625,40.5135993 3.67312632,54.3283465 C7.51834327,68.1430937 15.4265999,81.4016092 27.3978963,94.1038931 L79.2249678,67.9907945 C67.5498251,55.7934849 60.2866375,46.3576756 57.4354051,39.6833667 C54.5841727,33.0090578 52.1655811,19.7812689 50.1796303,0 C35.5332457,2.68474708 24.9275632,5.21385665 18.3625829,7.58732871 C11.7976025,9.96080077 6.07492771,13.3349685 1.19455851,17.709832 Z" id="Path-22" fill="#FFFFFF"></path>
                <path d="M8.05230475,31.590838 C18.35693,26.3174414 29.6443444,22.7658262 41.9145478,20.9359923" id="Path-27" stroke="#CFDAE7" stroke-width="2" stroke-linecap="round"></path>
                <path d="M11.2732266,41.3307166 C16.9723175,36.8413793 27.2753138,32.7272395 42.1822156,28.9882971" id="Path-28" stroke="#CFDAE7" stroke-width="2" stroke-linecap="round"></path>
                <path d="M12.8836876,51.0103246 C19.7458361,46.1126684 30.4066545,41.4560941 44.8661429,37.0406018" id="Path-29" stroke="#CFDAE7" stroke-width="2" stroke-linecap="round"></path>
                <path d="M16.1046095,59.3672397 C28.9286499,52.4681687 40.3290036,47.7100577 50.3056705,45.0929066" id="Path-30" stroke="#CFDAE7" stroke-width="2" stroke-linecap="round"></path>
                <path d="M20.9359923,66.6262544 C29.0415591,60.7371215 39.8924196,56.2434404 53.4885739,53.1452113" id="Path-31" stroke="#CFDAE7" stroke-width="2" stroke-linecap="round"></path>
                <path d="M25.7673752,74.1963651 C28.6418976,71.6791218 35.5626876,68.9566331 46.5297453,66.0288989" id="Path-32" stroke="#CFDAE7" stroke-width="2" stroke-linecap="round"></path>
            </g>
            <path d="M952,168.718683 L952,152" id="Stroke-1" stroke="#FFFFFF" stroke-width="7" opacity="0.346014493" stroke-linecap="round" stroke-linejoin="round"></path>
            <path d="M944,160 L960.718683,160" id="Stroke-3" stroke="#FFFFFF" stroke-width="7" opacity="0.346014493" stroke-linecap="round" stroke-linejoin="round"></path>
            <path d="M893,84.7186826 L893,68" id="Stroke-6" stroke="#FFFFFF" stroke-width="7" opacity="0.346014493" stroke-linecap="round" stroke-linejoin="round"></path>
            <path d="M885,77 L901.718683,77" id="Stroke-7" stroke="#FFFFFF" stroke-width="7" opacity="0.346014493" stroke-linecap="round" stroke-linejoin="round"></path>
            <path d="M793.547958,65.9963271 C792.778898,67.4341338 792.820695,69.1728768 793.664988,70.5688868 C794.500923,71.9648968 796.013963,72.8175496 797.644035,72.8175496 L836.615284,72.8175496 C838.245356,72.8175496 839.758396,71.9648968 840.59433,70.5688868 C841.430265,69.1728768 841.480421,67.4341338 840.711361,65.9963271 L821.225737,29.4576463 C820.414881,27.9446056 818.843324,27 817.129659,27 C815.415994,27 813.844438,27.9446056 813.033582,29.4576463 L793.547958,65.9963271 Z" id="Stroke-8" stroke="#FFFFFF" stroke-width="7" opacity="0.346014493" stroke-linecap="round" stroke-linejoin="round"></path>
            <path d="M835,189.544591 L835,181.553061 C835,176.219801 839.321779,171.914741 844.64668,171.914741 L852.629851,171.914741 C857.963111,171.914741 862.276531,167.592961 862.276531,162.259702 L862.276531,154.268171 C862.276531,148.95163 866.59831,144.629851 871.92321,144.629851 L879.914741,144.629851 C885.239641,144.629851 889.553061,140.308071 889.553061,134.99153 L889.553061,127" id="Stroke-10" stroke="#FFFFFF" stroke-width="7" opacity="0.346014493" stroke-linecap="round" stroke-linejoin="round"></path>
            <polygon id="Fill-4" fill="#FFFFFF" opacity="0.358695652" points="479.764972 108.418877 503.808641 108.418877 503.808641 88.382486 479.764972 88.382486"></polygon>
            <path d="M335,161.143172 L335,129.084947" id="Stroke-5" stroke="#FFFFFF" stroke-width="7" opacity="0.358695652" stroke-linecap="round" stroke-linejoin="round"></path>
            <path d="M319.280984,145 L351.33921,145" id="Stroke-7" stroke="#FFFFFF" stroke-width="7" opacity="0.358695652" stroke-linecap="round" stroke-linejoin="round"></path>
            <path d="M487,32.310097 L487,16.2809843" id="Stroke-8" stroke="#FFFFFF" stroke-width="7" opacity="0.358695652" stroke-linecap="round" stroke-linejoin="round"></path>
            <path d="M479.764972,25 L495.794085,25" id="Stroke-9" stroke="#FFFFFF" stroke-width="7" opacity="0.358695652" stroke-linecap="round" stroke-linejoin="round"></path>
            <path d="M311,88.1306145 L311,72.1015018" id="Stroke-10" stroke="#FFFFFF" stroke-width="7" opacity="0.358695652" stroke-linecap="round" stroke-linejoin="round"></path>
            <path d="M303,81 L319.029113,81" id="Stroke-12" stroke="#FFFFFF" stroke-width="7" opacity="0.358695652" stroke-linecap="round" stroke-linejoin="round"></path>
            <path d="M359.983445,0 L369.488709,0 C375.227131,0 379.883588,4.65645724 379.883588,10.3948796 L379.883588,19.0105277 C379.883588,24.74895 384.540046,29.4054073 390.278468,29.4054073 L398.894116,29.4054073 C404.632538,29.4054073 409.288996,34.05385 409.288996,39.8002869 L409.288996,48.4079204 C409.288996,54.1543573 413.937438,58.8108146 419.683875,58.8108146" id="Stroke-14" stroke="#FFFFFF" stroke-width="7" opacity="0.358695652" stroke-linecap="round" stroke-linejoin="round"></path>
        </g>
    </g>
</svg>