<?xml version="1.0" encoding="UTF-8"?>
<svg width="577px" height="314px" viewBox="0 0 577 314" version="1.1" xmlns="http://www.w3.org/2000/svg" xmlns:xlink="http://www.w3.org/1999/xlink">
    <!-- Generator: Sketch 45.1 (43504) - http://www.bohemiancoding.com/sketch -->
    <title>06</title>
    <desc>Created with Sketch.</desc>
    <defs>
        <path d="M75.079729,61 C63.5762445,61 54.2330012,69.0406944 54.2330012,78.9604642 C54.2330012,88.8802339 63.5668986,96.9197783 75.079729,96.9197783 L40.00051,96.9197783 C28.4943553,96.9197783 19.161793,104.960473 19.161793,114.880243 C19.161793,124.801162 28.491685,132.839557 40.00051,132.839557 L73.5323127,132.839557 C62.0274931,132.839557 52.6922606,140.880251 52.6922606,150.800021 C52.6922606,160.720941 62.0234877,168.759335 73.5323127,168.759335 L75.4308683,168.759335 L77.3294239,168.759335 L83.8502013,168.759335 C95.367037,168.759335 104.70227,176.798879 104.70227,186.719799 C104.70227,196.638419 95.3657019,204.679113 83.8502013,204.679113 L50.9726125,204.679113 L20.838717,204.679113 C9.33389738,204.679113 0,212.720958 0,222.639578 C0,232.561647 9.32989199,240.598892 20.838717,240.598892 L63.9500811,240.598892 C52.4465966,240.598892 43.1126992,248.640736 43.1126992,258.560506 C43.1126992,268.480276 52.4425912,276.51982 63.9500811,276.51982 L51.6455183,276.51982 C40.1393636,276.51982 30.7947852,284.560514 30.7947852,294.479134 C30.7947852,304.401204 40.1300177,312.439598 51.6455183,312.439598 L364.427877,312.439598 C375.934032,312.439598 385.278611,304.398904 385.278611,294.479134 C385.278611,284.558214 375.943378,276.51982 364.427877,276.51982 L405.499162,276.51982 C417.005317,276.51982 426.337879,268.479126 426.337879,258.560506 C426.337879,248.638436 417.009322,240.598892 405.499162,240.598892 L390.753981,240.598892 L390.753981,240.409144 C389.756638,240.534493 388.735263,240.598892 387.697867,240.598892 L337.009637,240.598892 C325.495472,240.598892 316.161574,232.561647 316.161574,222.639578 C316.161574,212.720958 325.484791,204.679113 337.009637,204.679113 L387.697867,204.679113 C388.735263,204.679113 389.756638,204.744662 390.753981,204.871161 L390.753981,204.679113 L437.663791,204.679113 C449.168611,204.679113 458.502508,196.638419 458.502508,186.719799 C458.502508,176.798879 449.172616,168.759335 437.663791,168.759335 L407.01053,168.759335 L389.374791,168.759335 C377.85395,168.759335 368.512042,160.720941 368.512042,150.800021 C368.512042,140.880251 377.860625,132.839557 389.374791,132.839557 L390.753981,132.839557 L398.804818,132.839557 L406.855655,132.839557 C418.36982,132.839557 427.706388,124.798862 427.706388,114.880243 C427.706388,104.959323 418.371155,96.9197783 406.855655,96.9197783 L347.354228,96.9197783 L434.233841,96.9197783 C445.73866,96.9197783 455.079234,88.8779339 455.079234,78.9604642 C455.079234,69.0383944 445.746671,61 434.233841,61 L75.079729,61 Z" id="path-1"></path>
    </defs>
    <g id="Page-1" stroke="none" stroke-width="1" fill="none" fill-rule="evenodd">
        <g id="06" transform="translate(0.000000, 1.000000)">
            <mask id="mask-2" fill="white">
                <use xlink:href="#path-1"></use>
            </mask>
            <use id="Clip-2-Copy" fill="#FFEBB7" xlink:href="#path-1"></use>
            <g id="Designer" transform="translate(58.000000, 0.000000)">
                <path d="M11.4446017,252.675532 L0,252.675532" id="Stroke-7" stroke="#504B46" stroke-linecap="round"></path>
                <path d="M320.448846,252.675532 L309.004245,252.675532" id="Stroke-8" stroke="#504B46" stroke-linecap="round"></path>
                <path d="M22.8892033,252.675532 L297.559643,252.675532" id="Stroke-9" stroke="#504B46" stroke-linecap="round"></path>
                <path d="M182.755983,152.535267 L148.422178,152.535267 C116.81791,152.535267 91.1991695,178.154008 91.1991695,209.758276 L91.1991695,212.619426 L119.810674,212.619426 L119.810674,252.675532 L211.367487,252.675532 L211.367487,212.619426 L239.978991,212.619426 L239.978991,209.758276 C239.978991,178.154008 214.36025,152.535267 182.755983,152.535267" id="Fill-10" fill="#3D9CC6"></path>
                <path d="M239.346677,201.708715 C239.197897,200.638645 239.066284,199.55713 238.860281,198.504227 C238.671445,198.881899 238.545555,199.293904 238.545555,199.745966 C238.545555,200.507032 238.860281,201.193708 239.346677,201.708715" id="Fill-12" fill="#FFFFFF"></path>
                <path d="M227.103814,182.577347 C225.524459,182.577347 224.242664,183.859142 224.242664,185.438497 C224.242664,187.017852 225.524459,188.299648 227.103814,188.299648 C228.683169,188.299648 229.964965,187.017852 229.964965,185.438497 C229.964965,183.859142 228.683169,182.577347 227.103814,182.577347" id="Fill-14" fill="#FFFFFF"></path>
                <path d="M227.103814,211.188851 C226.050911,211.188851 225.175399,211.78397 224.677559,212.625148 L229.53007,212.625148 C229.03223,211.78397 228.156717,211.188851 227.103814,211.188851" id="Fill-16" fill="#FFFFFF"></path>
                <path d="M195.63116,156.826993 C195.63116,158.406348 196.912955,159.688144 198.49231,159.688144 C200.071665,159.688144 201.35346,158.406348 201.35346,156.826993 C201.35346,156.374931 201.22757,155.957203 201.038734,155.579532 C199.728327,155.138914 198.395031,154.761243 197.044568,154.412182 C196.214834,154.915745 195.63116,155.785534 195.63116,156.826993" id="Fill-18" fill="#FFFFFF"></path>
                <path d="M212.798062,173.993896 C214.377417,173.993896 215.659212,172.7121 215.659212,171.132745 C215.659212,169.55339 214.377417,168.271595 212.798062,168.271595 C211.218707,168.271595 209.936912,169.55339 209.936912,171.132745 C209.936912,172.7121 211.218707,173.993896 212.798062,173.993896" id="Fill-20" fill="#FFFFFF"></path>
                <path d="M198.49231,188.299648 C200.071665,188.299648 201.35346,187.017852 201.35346,185.438497 C201.35346,183.859142 200.071665,182.577347 198.49231,182.577347 C196.912955,182.577347 195.63116,183.859142 195.63116,185.438497 C195.63116,187.017852 196.912955,188.299648 198.49231,188.299648" id="Fill-22" fill="#FFFFFF"></path>
                <path d="M212.798062,202.6054 C214.377417,202.6054 215.659212,201.323604 215.659212,199.744249 C215.659212,198.164894 214.377417,196.883099 212.798062,196.883099 C211.218707,196.883099 209.936912,198.164894 209.936912,199.744249 C209.936912,201.323604 211.218707,202.6054 212.798062,202.6054" id="Fill-24" fill="#FFFFFF"></path>
                <path d="M198.49231,216.911152 C200.071665,216.911152 201.35346,215.629356 201.35346,214.050001 C201.35346,212.470646 200.071665,211.188851 198.49231,211.188851 C196.912955,211.188851 195.63116,212.470646 195.63116,214.050001 C195.63116,215.629356 196.912955,216.911152 198.49231,216.911152" id="Fill-26" fill="#FFFFFF"></path>
                <path d="M209.936912,228.355753 C209.936912,229.402935 210.526309,230.278447 211.367487,230.776287 L211.367487,225.93522 C210.526309,226.43306 209.936912,227.308572 209.936912,228.355753" id="Fill-28" fill="#FFFFFF"></path>
                <path d="M198.49231,239.800355 C196.912955,239.800355 195.63116,241.082151 195.63116,242.661506 C195.63116,244.240861 196.912955,245.522656 198.49231,245.522656 C200.071665,245.522656 201.35346,244.240861 201.35346,242.661506 C201.35346,241.082151 200.071665,239.800355 198.49231,239.800355" id="Fill-30" fill="#FFFFFF"></path>
                <path d="M169.880806,159.688144 C171.460161,159.688144 172.741956,158.406348 172.741956,156.826993 C172.741956,155.247638 171.460161,153.965843 169.880806,153.965843 C168.301451,153.965843 167.019655,155.247638 167.019655,156.826993 C167.019655,158.406348 168.301451,159.688144 169.880806,159.688144" id="Fill-32" fill="#FFFFFF"></path>
                <path d="M184.186558,173.993896 C185.765913,173.993896 187.047708,172.7121 187.047708,171.132745 C187.047708,169.55339 185.765913,168.271595 184.186558,168.271595 C182.607203,168.271595 181.325408,169.55339 181.325408,171.132745 C181.325408,172.7121 182.607203,173.993896 184.186558,173.993896" id="Fill-34" fill="#FFFFFF"></path>
                <path d="M169.880806,188.299648 C171.460161,188.299648 172.741956,187.017852 172.741956,185.438497 C172.741956,183.859142 171.460161,182.577347 169.880806,182.577347 C168.301451,182.577347 167.019655,183.859142 167.019655,185.438497 C167.019655,187.017852 168.301451,188.299648 169.880806,188.299648" id="Fill-36" fill="#FFFFFF"></path>
                <path d="M184.186558,202.6054 C185.765913,202.6054 187.047708,201.323604 187.047708,199.744249 C187.047708,198.164894 185.765913,196.883099 184.186558,196.883099 C182.607203,196.883099 181.325408,198.164894 181.325408,199.744249 C181.325408,201.323604 182.607203,202.6054 184.186558,202.6054" id="Fill-38" fill="#FFFFFF"></path>
                <path d="M169.880806,211.188851 C168.301451,211.188851 167.019655,212.470646 167.019655,214.050001 C167.019655,215.629356 168.301451,216.911152 169.880806,216.911152 C171.460161,216.911152 172.741956,215.629356 172.741956,214.050001 C172.741956,212.470646 171.460161,211.188851 169.880806,211.188851" id="Fill-40" fill="#FFFFFF"></path>
                <path d="M184.186558,225.494603 C182.607203,225.494603 181.325408,226.776398 181.325408,228.355753 C181.325408,229.935108 182.607203,231.216904 184.186558,231.216904 C185.765913,231.216904 187.047708,229.935108 187.047708,228.355753 C187.047708,226.776398 185.765913,225.494603 184.186558,225.494603" id="Fill-42" fill="#FFFFFF"></path>
                <path d="M169.880806,239.800355 C168.301451,239.800355 167.019655,241.082151 167.019655,242.661506 C167.019655,244.240861 168.301451,245.522656 169.880806,245.522656 C171.460161,245.522656 172.741956,244.240861 172.741956,242.661506 C172.741956,241.082151 171.460161,239.800355 169.880806,239.800355" id="Fill-44" fill="#FFFFFF"></path>
                <path d="M141.269302,159.688144 C142.848657,159.688144 144.130452,158.406348 144.130452,156.826993 C144.130452,155.247638 142.848657,153.965843 141.269302,153.965843 C139.689947,153.965843 138.408151,155.247638 138.408151,156.826993 C138.408151,158.406348 139.689947,159.688144 141.269302,159.688144" id="Fill-46" fill="#FFFFFF"></path>
                <path d="M155.575054,173.993896 C157.154409,173.993896 158.436204,172.7121 158.436204,171.132745 C158.436204,169.55339 157.154409,168.271595 155.575054,168.271595 C153.995699,168.271595 152.713903,169.55339 152.713903,171.132745 C152.713903,172.7121 153.995699,173.993896 155.575054,173.993896" id="Fill-48" fill="#FFFFFF"></path>
                <path d="M141.269302,182.577347 C139.689947,182.577347 138.408151,183.859142 138.408151,185.438497 C138.408151,187.017852 139.689947,188.299648 141.269302,188.299648 C142.848657,188.299648 144.130452,187.017852 144.130452,185.438497 C144.130452,183.859142 142.848657,182.577347 141.269302,182.577347" id="Fill-50" fill="#FFFFFF"></path>
                <path d="M155.575054,196.883099 C153.995699,196.883099 152.713903,198.164894 152.713903,199.744249 C152.713903,201.323604 153.995699,202.6054 155.575054,202.6054 C157.154409,202.6054 158.436204,201.323604 158.436204,199.744249 C158.436204,198.164894 157.154409,196.883099 155.575054,196.883099" id="Fill-52" fill="#FFFFFF"></path>
                <path d="M141.269302,211.188851 C139.689947,211.188851 138.408151,212.470646 138.408151,214.050001 C138.408151,215.629356 139.689947,216.911152 141.269302,216.911152 C142.848657,216.911152 144.130452,215.629356 144.130452,214.050001 C144.130452,212.470646 142.848657,211.188851 141.269302,211.188851" id="Fill-54" fill="#FFFFFF"></path>
                <path d="M155.575054,225.494603 C153.995699,225.494603 152.713903,226.776398 152.713903,228.355753 C152.713903,229.935108 153.995699,231.216904 155.575054,231.216904 C157.154409,231.216904 158.436204,229.935108 158.436204,228.355753 C158.436204,226.776398 157.154409,225.494603 155.575054,225.494603" id="Fill-56" fill="#FFFFFF"></path>
                <path d="M141.269302,239.800355 C139.689947,239.800355 138.408151,241.082151 138.408151,242.661506 C138.408151,244.240861 139.689947,245.522656 141.269302,245.522656 C142.848657,245.522656 144.130452,244.240861 144.130452,242.661506 C144.130452,241.082151 142.848657,239.800355 141.269302,239.800355" id="Fill-58" fill="#FFFFFF"></path>
                <path d="M126.96355,168.271595 C125.384195,168.271595 124.102399,169.55339 124.102399,171.132745 C124.102399,172.7121 125.384195,173.993896 126.96355,173.993896 C128.542905,173.993896 129.8247,172.7121 129.8247,171.132745 C129.8247,169.55339 128.542905,168.271595 126.96355,168.271595" id="Fill-60" fill="#FFFFFF"></path>
                <path d="M112.657798,188.299648 C114.237153,188.299648 115.518948,187.017852 115.518948,185.438497 C115.518948,183.859142 114.237153,182.577347 112.657798,182.577347 C111.078443,182.577347 109.796647,183.859142 109.796647,185.438497 C109.796647,187.017852 111.078443,188.299648 112.657798,188.299648" id="Fill-62" fill="#FFFFFF"></path>
                <path d="M126.96355,196.883099 C125.384195,196.883099 124.102399,198.164894 124.102399,199.744249 C124.102399,201.323604 125.384195,202.6054 126.96355,202.6054 C128.542905,202.6054 129.8247,201.323604 129.8247,199.744249 C129.8247,198.164894 128.542905,196.883099 126.96355,196.883099" id="Fill-64" fill="#FFFFFF"></path>
                <path d="M112.657798,211.188851 C111.604894,211.188851 110.729382,211.78397 110.231542,212.625148 L115.084053,212.625148 C114.586213,211.78397 113.710701,211.188851 112.657798,211.188851" id="Fill-66" fill="#FFFFFF"></path>
                <path d="M126.96355,225.494603 C125.384195,225.494603 124.102399,226.776398 124.102399,228.355753 C124.102399,229.935108 125.384195,231.216904 126.96355,231.216904 C128.542905,231.216904 129.8247,229.935108 129.8247,228.355753 C129.8247,226.776398 128.542905,225.494603 126.96355,225.494603" id="Fill-68" fill="#FFFFFF"></path>
                <path d="M98.3520455,196.883099 C96.7726905,196.883099 95.4908951,198.164894 95.4908951,199.744249 C95.4908951,201.323604 96.7726905,202.6054 98.3520455,202.6054 C99.9314005,202.6054 101.213196,201.323604 101.213196,199.744249 C101.213196,198.164894 99.9314005,196.883099 98.3520455,196.883099" id="Fill-70" fill="#FFFFFF"></path>
                <path d="M239.978991,209.765143 C239.978991,178.160875 214.36025,152.542134 182.755983,152.542134 L148.422178,152.542134 C116.81791,152.542134 91.1991695,178.160875 91.1991695,209.765143 L91.1991695,215.487443 C91.1991695,183.883176 116.81791,175.431338 148.422178,175.431338 L182.755983,175.431338 C214.36025,175.431338 239.978991,183.883176 239.978991,215.487443 L239.978991,209.765143 Z" id="Fill-72" fill-opacity="0.2" fill="#FFFFFF"></path>
                <polyline id="Stroke-74" stroke="#504B46" stroke-width="2" stroke-linecap="round" stroke-linejoin="round" points="119.810674 206.903992 119.810674 252.682399 211.367487 252.682399 211.367487 206.903992"></polyline>
                <path d="M211.367487,212.626293 L211.367487,212.626293 L239.978991,212.626293 L239.978991,209.765143 C239.978991,178.160875 214.36025,152.542134 182.755983,152.542134 L148.422178,152.542134 C116.81791,152.542134 91.1991695,178.160875 91.1991695,209.765143 L91.1991695,212.626293 L119.810674,212.626293" id="Stroke-76" stroke="#504B46" stroke-width="3" stroke-linecap="round" stroke-linejoin="round"></path>
                <path d="M119.810674,218.348594 L119.810674,212.626293" id="Fill-78" fill="#EDF2F4"></path>
                <path d="M119.810674,218.348594 L119.810674,212.626293" id="Stroke-80" stroke="#504B46" stroke-linecap="round" stroke-linejoin="round"></path>
                <path d="M165.946724,218.341727 L165.946724,249.814382" id="Fill-82" fill="#FFD183"></path>
                <path d="M165,218.341727 L165,249.814382" id="Stroke-84" stroke="#504A45" stroke-width="3" stroke-linecap="round" stroke-linejoin="round"></path>
                <path d="M288.618548,264.120134 L280.035097,264.120134 L274.312796,264.120134 L268.22999,264.120134 C253.374897,264.120134 239.618486,258.924284 239.618486,221.2086 L239.618486,212.625148 L216.729283,212.625148 L216.729283,221.2086 C216.729283,275.593347 244.739945,287.009337 268.22999,287.009337 L274.312796,287.009337 L280.035097,287.009337 L288.618548,287.009337 C294.94169,287.009337 300.06315,281.882155 300.06315,275.564735 C300.06315,269.241593 294.94169,264.120134 288.618548,264.120134" id="Fill-86" fill="#FFD4C3"></path>
                <path d="M280.035097,264.120134 L274.312796,264.120134 L268.22999,264.120134 C253.374897,264.120134 239.618486,258.924284 239.618486,221.2086 L239.618486,212.625148 L216.729283,212.625148 L216.729283,221.2086 C216.729283,275.593347 244.739945,287.009337 268.22999,287.009337 L274.312796,287.009337 L280.035097,287.009337 L288.618548,287.009337 C294.94169,287.009337 300.06315,281.882155 300.06315,275.564735 C300.06315,269.241593 294.94169,264.120134 288.618548,264.120134 L280.035097,264.120134 Z" id="Stroke-88" stroke="#504A45" stroke-width="3"></path>
                <path d="M182.755983,157.660732 C182.755983,163.4002 179.88911,168.761996 175.110989,171.943595 C169.34291,175.788981 161.835251,175.788981 156.067172,171.943595 C151.28905,168.761996 148.422178,163.4002 148.422178,157.660732 L148.422178,132.516942 L182.755983,132.516942 L182.755983,157.660732 Z" id="Fill-90" fill="#FFDFD1"></path>
                <path d="M148.422178,151.928704 C148.857073,152.123262 149.263356,152.340709 149.72114,152.518101 C159.328883,156.363487 171.849277,156.363487 181.45702,152.518101 C181.914804,152.340709 182.321088,152.123262 182.755983,151.928704 L182.755983,132.512937 L148.422178,132.512937 L148.422178,151.928704 Z" id="Fill-92" fill="#FFCAB3"></path>
                <path d="M182.755983,157.660732 C182.755983,163.4002 179.88911,168.761996 175.110989,171.943595 C169.34291,175.788981 161.835251,175.788981 156.067172,171.943595 C151.28905,168.761996 148.422178,163.4002 148.422178,157.660732 L148.422178,132.516942 L182.755983,132.516942 L182.755983,157.660732 L182.755983,157.660732 Z" id="Stroke-94" stroke="#504B46" stroke-linecap="round" stroke-linejoin="round"></path>
                <path d="M222.812089,89.5968251 C222.812089,84.2693631 219.155538,79.8345799 214.228637,78.5585068 L214.228637,75.2910731 C214.228637,50.009948 190.870205,29.5126664 165.58908,29.5126664 C140.307955,29.5126664 116.949523,50.009948 116.949523,75.2910731 L116.949523,78.5585068 C112.022622,79.8345799 108.366072,84.2693631 108.366072,89.5968251 C108.366072,94.9700656 112.079845,99.4449049 117.075414,100.6752 C118.380098,124.788975 141.149133,143.958683 165.58908,143.958683 C190.029027,143.958683 212.798062,124.788975 214.102747,100.6752 C219.098315,99.4449049 222.812089,94.9700656 222.812089,89.5968251" id="Fill-96" fill="#FFD4C3"></path>
                <path d="M222.812089,89.5968251 C222.812089,84.2693631 219.155538,79.8345799 214.228637,78.5585068 L214.228637,75.2910731 C214.228637,50.009948 190.870205,29.5126664 165.58908,29.5126664 C140.307955,29.5126664 116.949523,50.009948 116.949523,75.2910731 L116.949523,78.5585068 C112.022622,79.8345799 108.366072,84.2693631 108.366072,89.5968251 C108.366072,94.9700656 112.079845,99.4449049 117.075414,100.6752 C118.380098,124.788975 141.149133,143.958683 165.58908,143.958683 C190.029027,143.958683 212.798062,124.788975 214.102747,100.6752 C219.098315,99.4449049 222.812089,94.9700656 222.812089,89.5968251 L222.812089,89.5968251 Z" id="Stroke-98" stroke="#504A45" stroke-width="3"></path>
                <path d="M157.005629,92.4579755 C155.237438,89.098985 152.135951,86.7356747 148.422178,86.7356747 C144.708405,86.7356747 141.606917,89.098985 139.838726,92.4579755" id="Stroke-100" stroke="#504B46" stroke-width="3" stroke-linecap="round" stroke-linejoin="round"></path>
                <path d="M191.339434,92.4579755 C189.571243,89.098985 186.469756,86.7356747 182.755983,86.7356747 C179.042209,86.7356747 175.940722,89.098985 174.172531,92.4579755" id="Stroke-102" stroke="#504B46" stroke-width="3" stroke-linecap="round" stroke-linejoin="round"></path>
                <path d="M168.807874,69.5619055 C185.01343,69.5619055 199.742633,65.6306848 210.901119,59.2274302 C203.61663,41.8831364 185.207989,29.511522 165.591941,29.511522 C147.189022,29.511522 129.856173,40.3953381 121.759117,56.0515532 C133.289553,64.3202779 150.067339,69.5619055 168.807874,69.5619055" id="Fill-104" fill="#F9BEAA"></path>
                <path d="M204.691278,53.3483383 C204.862947,59.0935283 218.607914,137.9125 165.94558,141.088377 C114.462039,144.201309 123.503274,52.3927141 131.611775,52.3927141 C145.917527,55.2538645 174.866647,62.2579607 205.646903,49.5315636 C223.168588,-21.9971967 98.4567636,-6.59276288 102.645488,52.3927141 C114.444872,46.6704132 116.95124,55.2538645 116.95124,63.8373157 C116.95124,91.1899137 118.381815,108.900435 116.95124,118.199174 C107.383553,180.360527 149.734301,183.530682 166.426253,216.908863 C185.023731,181.625156 228.661997,166.569782 214.230354,116.053311 C212.084491,108.545652 219.59215,53.3483383 204.691278,53.3483383" id="Fill-106" fill="#FFD183"></path>
                <path d="M214.88613,143.38302 C214.691571,143.377297 214.502735,143.342963 214.308177,143.331519 C214.903297,143.548966 215.504138,143.783581 216.082091,143.972417 C216.116424,143.783581 216.133591,143.5833 216.167925,143.394464 C215.73303,143.38302 215.332469,143.400186 214.88613,143.38302" id="Fill-108" fill="#FFC258"></path>
                <path d="M115.876592,143.388742 C115.893759,143.531799 115.916648,143.663412 115.933815,143.800747 C116.357265,143.65769 116.797882,143.491743 117.227055,143.331519 C117.038219,143.342963 116.849383,143.377297 116.654825,143.38302 C116.385877,143.394464 116.139818,143.38302 115.876592,143.388742" id="Fill-110" fill="#FFC258"></path>
                <path d="M162.152266,140.537319 C156.029404,140.359928 150.833555,138.763406 146.461717,136.091092 C137.918322,140.228315 127.86424,142.797628 117.232205,143.329802 C116.79731,143.490027 116.356693,143.655973 115.933243,143.804753 C116.597029,149.41833 117.861658,154.362398 119.589793,158.780014 C136.939809,157.406662 152.601746,150.71157 162.152266,140.537319" id="Fill-112" fill="#FFC258"></path>
                <path d="M214.310466,143.331519 C203.094757,142.765011 192.554278,139.915305 183.730491,135.366076 C179.610434,137.76372 174.763645,139.434632 169.0814,140.161364 C178.425918,150.352782 193.818907,157.133708 210.991532,158.695897 C213.32623,154.146667 215.105866,149.294156 216.078657,143.972417 C215.506427,143.783581 214.899863,143.548966 214.310466,143.331519" id="Fill-114" fill="#FFC258"></path>
                <path d="M113.883514,52.9786777 C128.143488,21.4373555 183.798586,10.5592616 206.001113,32.2925602 C201.71511,-19.9348795 97.6894031,-2.49902886 101.517622,51.4737126 C108.241326,48.2177234 111.937932,49.6025202 113.883514,52.9786777" id="Fill-116" fill="#FFEDD8"></path>
                <path d="M204.691278,53.3483383 C204.862947,59.0935283 218.607914,137.9125 165.94558,141.088377 C114.462039,144.201309 123.503274,52.3927141 131.611775,52.3927141 C145.917527,55.2538645 174.866647,62.2579607 205.646903,49.5315636 C223.168588,-21.9971967 98.4567636,-6.59276288 102.645488,52.3927141 C114.444872,46.6704132 116.95124,55.2538645 116.95124,63.8373157 C116.95124,91.1899137 118.381815,108.900435 116.95124,118.199174 C107.383553,180.360527 149.734301,183.530682 166.426253,216.908863 C185.023731,181.625156 229.966681,165.76866 212.799779,114.983241 C210.299133,107.584306 225.674956,53.3483383 204.691278,53.3483383 L204.691278,53.3483383 Z" id="Stroke-118" stroke="#504A45" stroke-width="3" stroke-linecap="round" stroke-linejoin="round"></path>
                <path d="M224.12364,118.67813 C231.991803,115.462197 236.75848,128.571988 226.744454,130.363068 C211.883638,133.018216 178.339511,104.692827 165.945007,112.480878 C153.556226,104.692827 120.012099,133.018216 105.145561,130.363068 C95.1315346,128.571988 99.9039335,115.462197 107.772097,118.67813 C87.2633709,102.106347 78.971757,145.590111 116.830499,143.953533 C137.768398,143.049409 156.646268,134.294289 165.945007,121.06433 C175.243746,134.294289 194.127339,143.049409 215.065238,143.953533 C252.92398,145.590111 244.626644,102.106347 224.12364,118.67813" id="Fill-120" fill="#FFD183"></path>
                <path d="M224.12364,118.67813 C231.991803,115.462197 236.75848,128.571988 226.744454,130.363068 C211.883638,133.018216 178.339511,104.692827 165.945007,112.480878 C153.556226,104.692827 120.012099,133.018216 105.145561,130.363068 C95.1315346,128.571988 99.9039335,115.462197 107.772097,118.67813 C87.2633709,102.106347 78.971757,145.590111 116.830499,143.953533 C137.768398,143.049409 156.646268,134.294289 165.945007,121.06433 C175.243746,134.294289 194.127339,143.049409 215.065238,143.953533 C252.92398,145.590111 244.626644,102.106347 224.12364,118.67813 L224.12364,118.67813 Z" id="Stroke-122" stroke="#504A45" stroke-width="3" stroke-linecap="round" stroke-linejoin="round"></path>
                <path d="M180.252476,275.564735 C180.252476,269.241593 175.131017,264.120134 168.807874,264.120134 L160.224423,264.120134 L154.502122,264.120134 L148.425039,264.120134 C133.564224,264.120134 119.813535,258.924284 119.813535,221.2086 L119.813535,212.625148 L96.9243314,212.625148 L96.9243314,221.2086 C96.9243314,275.593347 124.929272,287.009337 148.425039,287.009337 L154.502122,287.009337 L160.224423,287.009337 L168.807874,287.009337 C175.131017,287.009337 180.252476,281.882155 180.252476,275.564735" id="Fill-124" fill="#FFD4C3"></path>
                <path d="M180.252476,275.564735 C180.252476,269.241593 175.131017,264.120134 168.807874,264.120134 L160.224423,264.120134 L154.502122,264.120134 L148.425039,264.120134 C133.564224,264.120134 119.813535,258.924284 119.813535,221.2086 L119.813535,212.625148 L96.9243314,212.625148 L96.9243314,221.2086 C96.9243314,275.593347 124.929272,287.009337 148.425039,287.009337 L154.502122,287.009337 L160.224423,287.009337 L168.807874,287.009337 C175.131017,287.009337 180.252476,281.882155 180.252476,275.564735 L180.252476,275.564735 Z" id="Stroke-126" stroke="#504A45" stroke-width="3"></path>
                <path d="M351.921501,295.592788 C351.921501,300.330853 305.805479,304.176239 248.920086,304.176239 C192.034694,304.176239 145.918671,300.330853 145.918671,295.592788 C145.918671,290.854723 192.034694,287.009337 248.920086,287.009337 C305.805479,287.009337 351.921501,290.854723 351.921501,295.592788" id="Fill-128" fill="#E3D0B1"></path>
                <path d="M227.809374,275.564735 L216.364772,275.564735 L243.694481,190.834627 C244.461269,188.471317 246.658633,186.869072 249.142111,186.869072 L256.420878,186.869072" id="Fill-130" fill="#E3ECF1"></path>
                <path d="M227.809374,275.564735 L216.364772,275.564735 L243.694481,190.834627 C244.461269,188.471317 246.658633,186.869072 249.142111,186.869072 L256.420878,186.869072" id="Stroke-132" stroke="#504A45" stroke-width="3" stroke-linejoin="round"></path>
                <path d="M339.39424,275.564735 L227.809374,275.564735 L256.420878,186.869072 L360.149025,186.869072 C361.974439,186.869072 363.696852,187.744584 364.772644,189.220938 C365.848437,190.703014 366.157441,192.60854 365.590933,194.34812 L339.39424,275.564735 Z" id="Fill-134" fill="#ADBAC7"></path>
                <path d="M339.39424,275.564735 L227.809374,275.564735 L256.420878,186.869072 L360.149025,186.869072 C361.974439,186.869072 363.696852,187.744584 364.772644,189.220938 C365.848437,190.703014 366.157441,192.60854 365.590933,194.34812 L339.39424,275.564735 L339.39424,275.564735 Z" id="Stroke-136" stroke="#504A45" stroke-linejoin="round"></path>
                <polygon id="Fill-138" fill="#CAD7DE" points="331.893448 186.869072 256.422022 186.869072 227.810518 275.564735 243.197785 275.564735"></polygon>
                <path d="M339.39424,275.564735 L222.087073,275.564735 L222.087073,289.870487 L327.949638,289.870487 C334.272781,289.870487 339.39424,284.749028 339.39424,278.425886 L339.39424,275.564735 Z" id="Fill-140" fill="#CAD7DE"></path>
                <path d="M339.39424,275.564735 L222.087073,275.564735 L222.087073,289.870487 L327.949638,289.870487 C334.272781,289.870487 339.39424,284.749028 339.39424,278.425886 L339.39424,275.564735 L339.39424,275.564735 Z" id="Stroke-142" stroke="#504A45" stroke-width="3" stroke-linejoin="round"></path>
                <path d="M222.087073,275.564735 L164.864065,275.564735 L164.864065,278.425886 C164.864065,284.749028 169.985524,289.870487 176.308666,289.870487 L222.087073,289.870487 L222.087073,275.564735 Z" id="Fill-144" fill="#E3ECF1"></path>
                <path d="M222.087073,275.564735 L164.864065,275.564735 L164.864065,278.425886 C164.864065,284.749028 169.985524,289.870487 176.308666,289.870487 L222.087073,289.870487 L222.087073,275.564735 L222.087073,275.564735 Z" id="Stroke-146" stroke="#504A45" stroke-width="3" stroke-linejoin="round"></path>
                <path d="M307.011167,228.059338 C306.976834,224.500067 309.912374,222.789099 310.049709,222.708987 C308.395964,220.294176 305.820929,219.962283 304.905361,219.922226 C302.719442,219.699057 300.636524,221.209744 299.520676,221.209744 C298.416272,221.209744 296.699581,219.95656 294.885612,219.985172 C292.499412,220.025228 290.296327,221.375691 289.071754,223.510109 C286.588276,227.813279 288.436579,234.1822 290.85139,237.672804 C292.030184,239.383772 293.443592,241.300742 295.286173,241.226352 C297.071531,241.157685 297.74104,240.07617 299.892625,240.07617 C302.04421,240.07617 302.650774,241.226352 304.533411,241.192019 C306.450382,241.163407 307.66351,239.458162 308.836581,237.741471 C310.192767,235.761555 310.74783,233.844584 310.782164,233.741583 C310.736385,233.724416 307.051223,232.311008 307.011167,228.059338" id="Fill-148" fill="#EDF2F4"></path>
                <path d="M310.049709,222.708987 C308.395964,220.294176 305.820929,219.962283 304.905361,219.922226 C302.719442,219.699057 300.636524,221.209744 299.520676,221.209744 C298.416272,221.209744 296.699581,219.95656 294.885612,219.985172 C292.499412,220.025228 290.296327,221.375691 289.071754,223.510109 C286.588276,227.813279 288.436579,234.1822 290.85139,237.672804 C292.030184,239.383772 293.443592,241.300742 295.286173,241.226352 C297.071531,241.157685 297.74104,240.07617 299.892625,240.07617 C302.04421,240.07617 302.650774,241.226352 304.533411,241.192019 C306.450382,241.163407 307.66351,239.458162 308.836581,237.741471 C310.192767,235.761555 310.74783,233.844584 310.782164,233.741583 C310.736385,233.724416 307.051223,232.311008 307.011167,228.059338 C306.976834,224.500067 309.912374,222.789099 310.049709,222.708987 Z" id="Stroke-150" stroke="#504A45" stroke-width="2" stroke-linejoin="round"></path>
                <path d="M302.199857,212.619426 L304.780614,210.038669" id="Stroke-152" stroke="#504A45" stroke-width="2" stroke-linecap="round" stroke-linejoin="round"></path>
                <path d="M339.39424,275.564735 L227.809374,275.564735 L256.420878,186.869072 L360.149025,186.869072 C361.974439,186.869072 363.696852,187.744584 364.772644,189.220938 C365.848437,190.703014 366.157441,192.60854 365.590933,194.34812 L339.39424,275.564735 L339.39424,275.564735 Z" id="Stroke-154" stroke="#504A45" stroke-width="3" stroke-linejoin="round"></path>
                <path d="M45.1438035,166.146904 C41.7905352,169.500173 41.7905352,174.936359 45.1438035,178.283905 L50.1737059,183.313807 C53.5212519,186.667075 53.5212519,192.103261 50.1737059,195.450807 L45.1438035,200.480709 C41.7905352,203.833978 41.7905352,209.270164 45.1438035,212.617709" id="Stroke-156" stroke="#FFFFFF" stroke-linecap="round" stroke-linejoin="round"></path>
                <path d="M66.8479183,166.146904 C63.49465,169.500173 63.49465,174.936359 66.8479183,178.283905 L71.8778207,183.313807 C75.2253667,186.667075 75.2253667,192.103261 71.8778207,195.450807 L66.8479183,200.480709 C63.49465,203.833978 63.49465,209.270164 66.8479183,212.617709" id="Stroke-158" stroke="#FFFFFF" stroke-linecap="round" stroke-linejoin="round"></path>
                <path d="M94.4179637,298.453939 C94.4179637,301.612649 76.4842729,304.176239 54.3618579,304.176239 C32.2394429,304.176239 14.3057521,301.612649 14.3057521,298.453939 C14.3057521,295.295229 32.2394429,292.731638 54.3618579,292.731638 C76.4842729,292.731638 94.4179637,295.295229 94.4179637,298.453939" id="Fill-160" fill="#E3D0B1"></path>
                <path d="M28.6115041,284.148187 C15.9881085,284.148187 5.72230083,273.882379 5.72230083,261.258983 C5.72230083,248.635588 15.9881085,238.36978 28.6115041,238.36978 L28.6115041,249.814382 C22.2998063,249.814382 17.1669025,254.947285 17.1669025,261.258983 C17.1669025,267.570681 22.2998063,272.703585 28.6115041,272.703585 L28.6115041,284.148187 Z" id="Fill-162" fill="#FFFFFF"></path>
                <path d="M28.6115041,284.148187 C15.9881085,284.148187 5.72230083,273.882379 5.72230083,261.258983 C5.72230083,248.635588 15.9881085,238.36978 28.6115041,238.36978 L28.6115041,249.814382 C22.2998063,249.814382 17.1669025,254.947285 17.1669025,261.258983 C17.1669025,267.570681 22.2998063,272.703585 28.6115041,272.703585 L28.6115041,284.148187 L28.6115041,284.148187 Z" id="Stroke-164" stroke="#504A45" stroke-width="3" stroke-linejoin="round"></path>
                <path d="M85.4768686,289.870487 C85.4768686,293.029197 82.9132779,295.592788 79.7545678,295.592788 L34.6914488,295.592788 C31.5327387,295.592788 28.9691479,293.029197 28.9691479,289.870487 L28.9691479,229.786329 C28.9691479,226.627619 31.5327387,224.064028 34.6914488,224.064028 L79.7545678,224.064028 C82.9132779,224.064028 85.4768686,226.627619 85.4768686,229.786329 L85.4768686,289.870487 Z" id="Fill-166" fill="#FFFFFF"></path>
                <path d="M85.4768686,289.870487 C85.4768686,293.029197 82.9132779,295.592788 79.7545678,295.592788 L34.6914488,295.592788 C31.5327387,295.592788 28.9691479,293.029197 28.9691479,289.870487 L28.9691479,229.786329 C28.9691479,226.627619 31.5327387,224.064028 34.6914488,224.064028 L79.7545678,224.064028 C82.9132779,224.064028 85.4768686,226.627619 85.4768686,229.786329 L85.4768686,289.870487 L85.4768686,289.870487 Z" id="Stroke-168" stroke="#504A45" stroke-width="3" stroke-linejoin="round"></path>
                <path d="M65.4488157,258.397833 C65.4488157,258.397833 75.1652825,253.968772 75.1652825,246.855952 C75.1652825,239.731688 66.5474975,239.182347 65.4488157,246.306611 C64.350134,239.182347 55.7323489,239.731688 55.7323489,247.399571 C55.7323489,255.067454 65.4488157,258.397833 65.4488157,258.397833" id="Fill-170" fill="#E05C4A"></path>
                <path d="M47,244 L47,254.907919" id="Stroke-172" stroke="#504A45" stroke-width="2" stroke-linecap="round" stroke-linejoin="round"></path>
                <polyline id="Stroke-174" stroke="#504A45" stroke-width="2" stroke-linecap="round" stroke-linejoin="round" points="42.5596124 275.564735 42.5596124 264.120134 51.1430637 275.564735 51.1430637 264.120134"></polyline>
                <polyline id="Stroke-176" stroke="#504A45" stroke-width="2" stroke-linecap="round" stroke-linejoin="round" points="61.1570901 264.120134 65.4488157 269.842434 69.7405413 264.120134"></polyline>
                <path d="M65,275.564735 L65,269.842434" id="Stroke-178" stroke="#504A45" stroke-width="2" stroke-linecap="round" stroke-linejoin="round"></path>
                <path d="M43.9901876,244 L49.7124884,244" id="Stroke-180" stroke="#504A45" stroke-width="2" stroke-linecap="round" stroke-linejoin="round"></path>
                <path d="M43.9901876,255 L49.7124884,255" id="Stroke-182" stroke="#504A45" stroke-width="2" stroke-linecap="round" stroke-linejoin="round"></path>
            </g>
            <path d="M566,130.031641 L566,115" id="Stroke-1-Copy-2" stroke="#FFEBB7" stroke-width="7" stroke-linecap="round" stroke-linejoin="round"></path>
            <path d="M558,123 L573.031641,123" id="Stroke-3-Copy-2" stroke="#FFEBB7" stroke-width="7" stroke-linecap="round" stroke-linejoin="round"></path>
            <path d="M513,55.0316408 L513,40" id="Stroke-6-Copy-2" stroke="#FFEBB7" stroke-width="7" stroke-linecap="round" stroke-linejoin="round"></path>
            <path d="M506,48 L521.031641,48" id="Stroke-7-Copy-3" stroke="#FFEBB7" stroke-width="7" stroke-linecap="round" stroke-linejoin="round"></path>
            <path d="M424.492665,38.0613021 C423.801209,39.3540233 423.838788,40.9173139 424.597886,42.1724559 C425.349468,43.4275979 426.709832,44.1942116 428.175417,44.1942116 L463.214171,44.1942116 C464.679756,44.1942116 466.04012,43.4275979 466.791702,42.1724559 C467.543284,40.9173139 467.588379,39.3540233 466.896923,38.0613021 L449.377546,5.2096512 C448.648511,3.8492877 447.235537,3 445.694794,3 C444.154051,3 442.741077,3.8492877 442.012042,5.2096512 L424.492665,38.0613021 Z" id="Stroke-8-Copy-3" stroke="#FFEBB7" stroke-width="7" stroke-linecap="round" stroke-linejoin="round"></path>
            <path d="M460,149.233368 L460,142.048244 C460,137.25315 463.885679,133.382503 468.673257,133.382503 L475.850865,133.382503 C480.645959,133.382503 484.524122,129.496824 484.524122,124.70173 L484.524122,117.516606 C484.524122,112.736544 488.409801,108.850865 493.197379,108.850865 L500.382503,108.850865 C505.170081,108.850865 509.048244,104.965186 509.048244,100.185124 L509.048244,93" id="Stroke-10-Copy-3" stroke="#FFEBB7" stroke-width="7" stroke-linecap="round" stroke-linejoin="round"></path>
        </g>
    </g>
</svg>