<?xml version="1.0" encoding="utf-8"?>
<!-- Generator: Adobe Illustrator 21.1.0, SVG Export Plug-In . SVG Version: 6.00 Build 0)  -->
<svg version="1.1" id="Layer_1" xmlns="http://www.w3.org/2000/svg" xmlns:xlink="http://www.w3.org/1999/xlink" x="0px" y="0px"
	 viewBox="0 0 458 94.8" style="enable-background:new 0 0 458 94.8;" xml:space="preserve">
<style type="text/css">
	.st0{fill:#565656;}
	.st1{fill:none;stroke:#EA140A;stroke-width:2;stroke-miterlimit:10;}
	.st2{fill:#EA140A;}
</style>
<g>
	<g>
		<g>
			<path class="st0" d="M209.3,36.8h14.2v25.1c-3.4,2.5-7.5,4.4-12.4,6c-4.9,1.5-9.5,2.3-13.9,2.3c-6.4,0-12.1-1.4-17.2-4.3
				c-5.1-2.8-9.2-6.8-12.1-11.7c-2.9-5-4.4-10.5-4.4-16.7c0-6.1,1.5-11.6,4.5-16.6c3-4.9,7.2-8.8,12.5-11.6
				c5.3-2.8,11.2-4.2,17.8-4.2c4.7,0,9.3,0.9,14,2.6c4.7,1.7,8.6,4,11.9,6.9L214.9,26c-2.3-2.2-4.9-3.9-7.9-5.1
				c-3-1.3-5.9-1.9-8.8-1.9c-3.4,0-6.4,0.8-9.1,2.4c-2.7,1.6-4.8,3.8-6.4,6.7c-1.6,2.8-2.3,6-2.3,9.4c0,3.5,0.8,6.7,2.3,9.6
				c1.6,2.8,3.7,5.1,6.5,6.7c2.8,1.6,5.8,2.4,9.2,2.4c3.2,0,6.8-1,10.9-3.1V36.8z"/>
			<path class="st0" d="M246.6,52.6c2.3,2.4,5.3,3.6,8.9,3.6c3.5,0,6.4-1.2,8.6-3.6c2.2-2.4,3.3-5.6,3.3-9.6V6h16.5v37
				c0,5.5-1.2,10.2-3.5,14.3c-2.3,4.1-5.6,7.3-9.9,9.5c-4.3,2.2-9.3,3.3-15.1,3.3s-10.8-1.1-15.1-3.3c-4.3-2.2-7.7-5.4-10.1-9.5
				c-2.4-4.1-3.6-8.9-3.6-14.3V6h16.5v37C243.1,47,244.2,50.2,246.6,52.6z"/>
			<path class="st0" d="M326.1,69l-9.2-17.4h-0.4h-11.9V69h-16.5V6h28.3c8.3,0,14.8,1.9,19.4,5.8c4.6,3.9,6.9,9.3,6.9,16.3
				c0,4.7-1,8.8-2.9,12.3c-1.9,3.4-4.7,6.1-8.4,8L344.7,69H326.1z M304.7,38.5h12c3.4,0,5.9-0.8,7.8-2.5c1.8-1.7,2.7-4.1,2.7-7.3
				c0-3.1-0.9-5.4-2.7-7.1c-1.8-1.6-4.4-2.5-7.8-2.5h-12V38.5z"/>
			<path class="st0" d="M365.5,52.6c2.3,2.4,5.3,3.6,8.9,3.6c3.5,0,6.4-1.2,8.6-3.6c2.2-2.4,3.3-5.6,3.3-9.6V6h16.5v37
				c0,5.5-1.2,10.2-3.5,14.3c-2.3,4.1-5.6,7.3-9.9,9.5c-4.3,2.2-9.3,3.3-15.1,3.3s-10.8-1.1-15.1-3.3c-4.3-2.2-7.7-5.4-10.1-9.5
				c-2.4-4.1-3.6-8.9-3.6-14.3V6H362v37C362,47,363.2,50.2,365.5,52.6z"/>
			<path class="st0" d="M439.9,20.1c-3.8-1.3-7-1.9-9.6-1.9c-2,0-3.6,0.4-4.8,1.1c-1.2,0.8-1.8,1.8-1.8,3.3c0,1.4,0.5,2.5,1.5,3.5
				c1,0.9,2.3,1.7,3.8,2.2c1.5,0.6,3.7,1.3,6.7,2.2c4.4,1.3,8,2.5,10.8,3.8c2.8,1.3,5.3,3.2,7.3,5.8c2,2.6,3.1,6,3.1,10.2
				c0,4.2-1.1,7.8-3.3,10.7c-2.2,3-5.3,5.2-9.1,6.7c-3.9,1.5-8.2,2.2-12.9,2.2c-5.2,0-10.4-0.9-15.6-2.7c-5.2-1.8-9.7-4.3-13.4-7.5
				l6.4-12.9c3.2,2.8,6.9,5.1,11.3,6.9c4.3,1.8,8.2,2.7,11.6,2.7c2.5,0,4.4-0.4,5.8-1.3c1.4-0.9,2.1-2.2,2.1-4
				c0-1.4-0.5-2.6-1.6-3.6c-1-1-2.4-1.7-4-2.3c-1.6-0.6-3.8-1.2-6.7-2c-4.3-1.2-7.9-2.4-10.7-3.6c-2.8-1.2-5.2-3.1-7.2-5.6
				c-2-2.5-3-5.8-3-9.9c0-3.9,1-7.3,3.1-10.2c2.1-2.9,5-5.2,8.8-6.8c3.8-1.6,8.2-2.4,13.3-2.4c4.6,0,9,0.6,13.5,1.9
				c4.4,1.3,8.3,3,11.7,5.2L450.6,25C447.3,23,443.7,21.4,439.9,20.1z"/>
		</g>
	</g>
	<g>
		<path class="st0" d="M353.1,86.2c-0.5-0.2-0.9-0.3-1.4-0.3c-0.7,0-1.2,0.2-1.8,0.5s-1,0.7-1.3,1.3c-0.3,0.5-0.5,1.1-0.5,1.8
			c0,0.6,0.2,1.2,0.5,1.8c0.3,0.5,0.7,1,1.3,1.3s1.1,0.5,1.8,0.5c0.5,0,1-0.1,1.4-0.3c0.5-0.2,0.9-0.5,1.2-0.8l0.8,0.8
			c-0.5,0.5-1,0.8-1.6,1.1c-0.6,0.3-1.2,0.4-1.9,0.4c-0.9,0-1.7-0.2-2.4-0.6c-0.7-0.4-1.3-1-1.7-1.7c-0.4-0.7-0.6-1.5-0.6-2.4
			c0-0.9,0.2-1.6,0.6-2.4c0.4-0.7,1-1.3,1.7-1.7c0.7-0.4,1.6-0.6,2.4-0.6c0.6,0,1.3,0.1,1.9,0.4c0.6,0.2,1.1,0.6,1.6,1l-0.8,0.9
			C354,86.6,353.6,86.4,353.1,86.2z"/>
		<path class="st0" d="M363.8,85.3c0.7,0.4,1.3,1,1.8,1.7c0.4,0.7,0.6,1.5,0.6,2.4c0,0.9-0.2,1.7-0.6,2.4c-0.4,0.7-1,1.3-1.8,1.7
			c-0.7,0.4-1.6,0.6-2.4,0.6s-1.7-0.2-2.4-0.6c-0.7-0.4-1.3-1-1.8-1.7c-0.4-0.7-0.6-1.5-0.6-2.4c0-0.9,0.2-1.6,0.6-2.4
			c0.4-0.7,1-1.3,1.8-1.7c0.7-0.4,1.6-0.6,2.5-0.6C362.3,84.7,363.1,84.9,363.8,85.3z M359.6,86.3c-0.5,0.3-1,0.7-1.3,1.3
			c-0.3,0.5-0.5,1.1-0.5,1.8s0.2,1.2,0.5,1.8c0.3,0.5,0.8,1,1.3,1.3s1.1,0.5,1.8,0.5c0.6,0,1.2-0.2,1.8-0.5c0.5-0.3,1-0.8,1.3-1.3
			c0.3-0.5,0.5-1.1,0.5-1.8s-0.2-1.2-0.5-1.8c-0.3-0.5-0.8-1-1.3-1.3c-0.5-0.3-1.1-0.5-1.8-0.5C360.7,85.9,360.1,86,359.6,86.3z"/>
		<path class="st0" d="M375.3,84.8h1.3V94h-1.3l-5.3-7.1V94h-1.3v-9.2h1.3l5.3,7.2V84.8z"/>
		<path class="st0" d="M383.9,86.1c-0.5-0.1-0.9-0.2-1.3-0.2c-0.5,0-1,0.1-1.3,0.3c-0.3,0.2-0.5,0.5-0.5,0.8c0,0.3,0.1,0.6,0.3,0.8
			s0.4,0.4,0.7,0.5c0.3,0.1,0.7,0.3,1.2,0.4c0.6,0.2,1.1,0.4,1.5,0.6s0.7,0.4,1,0.8c0.3,0.3,0.4,0.8,0.4,1.4c0,0.5-0.1,1-0.4,1.4
			c-0.3,0.4-0.7,0.7-1.2,0.9c-0.5,0.2-1.1,0.3-1.8,0.3c-0.7,0-1.3-0.1-2-0.4s-1.2-0.6-1.7-1.1l0.6-1.1c0.4,0.4,0.9,0.8,1.5,1
			c0.5,0.2,1.1,0.3,1.6,0.3c0.6,0,1.1-0.1,1.5-0.4c0.4-0.2,0.5-0.6,0.5-1c0-0.3-0.1-0.6-0.3-0.8c-0.2-0.2-0.4-0.4-0.7-0.5
			c-0.3-0.1-0.7-0.3-1.2-0.4c-0.6-0.2-1.1-0.4-1.5-0.5s-0.7-0.4-1-0.8c-0.3-0.3-0.4-0.8-0.4-1.4c0-0.5,0.1-0.9,0.4-1.3
			c0.3-0.4,0.7-0.7,1.1-0.9c0.5-0.2,1.1-0.3,1.7-0.3c0.6,0,1.1,0.1,1.6,0.2c0.5,0.2,1,0.4,1.4,0.7l-0.5,1.1
			C384.8,86.5,384.3,86.3,383.9,86.1z"/>
		<path class="st0" d="M390.4,92.3c0.5,0.5,1.1,0.7,1.9,0.7c0.8,0,1.5-0.2,1.9-0.7c0.5-0.5,0.7-1.1,0.7-2v-5.5h1.3v5.5
			c0,1.2-0.3,2.1-1,2.8s-1.6,1-2.9,1c-1.2,0-2.2-0.3-2.9-1s-1-1.6-1-2.8v-5.5h1.3v5.5C389.7,91.1,389.9,91.8,390.4,92.3z"/>
		<path class="st0" d="M399.3,84.8h1.3v8.1h4V94h-5.3V84.8z"/>
		<path class="st0" d="M405.7,84.8h7.2V86h-3V94h-1.3V86h-3V84.8z"/>
		<path class="st0" d="M421,94l-1-2.2h-4.9l-1,2.2h-1.3l4.1-9.2h1.3l4.1,9.2H421z M415.6,90.6h3.9l-2-4.5L415.6,90.6z"/>
		<path class="st0" d="M430.9,84.8h1.3V94h-1.3l-5.3-7.1V94h-1.3v-9.2h1.3l5.3,7.2V84.8z"/>
		<path class="st0" d="M440.9,86.2c-0.5-0.2-0.9-0.3-1.4-0.3c-0.7,0-1.2,0.2-1.8,0.5c-0.5,0.3-1,0.7-1.3,1.3s-0.5,1.1-0.5,1.8
			c0,0.6,0.2,1.2,0.5,1.8s0.7,1,1.3,1.3c0.5,0.3,1.1,0.5,1.8,0.5c0.5,0,1-0.1,1.4-0.3c0.5-0.2,0.9-0.5,1.2-0.8l0.8,0.8
			c-0.5,0.5-1,0.8-1.6,1.1c-0.6,0.3-1.2,0.4-1.9,0.4c-0.9,0-1.7-0.2-2.4-0.6c-0.7-0.4-1.3-1-1.7-1.7c-0.4-0.7-0.6-1.5-0.6-2.4
			c0-0.9,0.2-1.6,0.6-2.4s1-1.3,1.7-1.7c0.7-0.4,1.5-0.6,2.4-0.6c0.6,0,1.3,0.1,1.9,0.4c0.6,0.2,1.1,0.6,1.6,1l-0.8,0.9
			C441.8,86.6,441.4,86.4,440.9,86.2z"/>
		<path class="st0" d="M452.3,84.8l-3.5,6.1V94h-1.3v-3.1l-3.5-6.1h1.3l2.8,4.7l2.8-4.7H452.3z"/>
	</g>
	<polyline class="st1" points="150.3,16.1 130,37 150.3,57 139.2,68.4 118.5,48 98.1,68.4 86.5,56.8 107.2,35.9 86.2,14.9 96.8,4.2 
		117.9,25.4 134.2,9.1 	"/>
	<circle class="st2" cx="132.6" cy="10.8" r="3.3"/>
	<circle class="st2" cx="97.4" cy="4.9" r="3.3"/>
	<circle class="st2" cx="86.8" cy="15" r="3.3"/>
	<circle class="st2" cx="4.8" cy="4.8" r="3.3"/>
	<circle class="st2" cx="23.3" cy="5.9" r="3.3"/>
	<circle class="st2" cx="86.8" cy="57.1" r="3.3"/>
	<circle class="st2" cx="71.1" cy="5.9" r="3.3"/>
	<circle class="st2" cx="37.9" cy="70.9" r="3.3"/>
	<circle class="st2" cx="37.9" cy="53.8" r="3.3"/>
	<circle class="st2" cx="51.8" cy="5.9" r="3.3"/>
	<circle class="st2" cx="97.4" cy="67.9" r="3.3"/>
	<circle class="st2" cx="139.2" cy="68.4" r="3.3"/>
	<circle class="st2" cx="149.8" cy="57.6" r="3.3"/>
	<circle class="st2" cx="150.3" cy="15.8" r="3.3"/>
	<path class="st1" d="M71.1,4.8v34.3c0,19.3-13.2,32.2-32.8,32.2c-8.9,0-17.1-2.8-23.1-7.9C8.4,57.6,4.8,49.2,4.8,39.1V4.8h18.8
		v34.3c0,10.6,7.7,14.4,14.8,14.4c8.6,0,13.9-5.5,13.9-14.4V6.3h18.1"/>
	<path class="st1" d="M51.8,5.8"/>
</g>
</svg>
