<?xml version="1.0" encoding="utf-8"?>
<!-- Generator: Adobe Illustrator 21.1.0, SVG Export Plug-In . SVG Version: 6.00 Build 0)  -->
<svg version="1.1" id="Layer_2" xmlns="http://www.w3.org/2000/svg" xmlns:xlink="http://www.w3.org/1999/xlink" x="0px" y="0px"
	 viewBox="0 0 924.1 619.6" style="enable-background:new 0 0 924.1 619.6;" xml:space="preserve">
<style type="text/css">
	.st0{opacity:0.8354;fill-rule:evenodd;clip-rule:evenodd;fill:#FCF9F8;}
	.st1{opacity:0.3643;enable-background:new    ;}
	.st2{fill:none;stroke:#F98F8F;stroke-width:16;stroke-linecap:round;stroke-miterlimit:10;}
	.st3{fill:#FFC258;}
	.st4{fill:#97AEBC;}
	.st5{fill:#7B848A;}
	.st6{fill:#DE5473;}
	.st7{fill:#F9BEAA;}
	.st8{fill:#5E524C;}
	.st9{fill:#EBC797;}
	.st10{fill:#FFD4C3;}
	.st11{fill:#574B47;}
	.st12{fill:#504B46;}
	.st13{fill:#914F49;}
	.st14{fill:#F16182;}
	.st15{fill:#FF7896;}
	.st16{fill:#FFADC0;}
	.st17{fill:#6B5D57;}
	.st18{fill:#FBD5A2;}
	.st19{fill:#CEE2FD;}
	.st20{opacity:0.39;}
	.st21{fill:#FFEDD8;}
	.st22{fill:#C3D6F0;}
	.st23{fill:#6F605B;}
	.st24{fill:#635551;}
	.st25{fill:#45627B;}
	.st26{fill:#473E3A;}
	.st27{fill:#A2BAC9;}
	.st28{fill:#B2CDDE;}
	.st29{fill:#9CB3C2;}
	.st30{opacity:0.2238;fill:#EA8686;}
	.st31{opacity:0.1354;fill:#EA8686;}
</style>
<path class="st0" d="M68.8,544.8c0-22.6,18.3-40.9,40.9-40.9H723c22.6,0,40.9,18.3,40.9,40.9c0,22.6-18.3,40.9-40.9,40.9H109.7
	C87.1,585.7,68.8,567.4,68.8,544.8z M774.6,340.8v-0.4h92c22.6,0,40.9-18.3,40.9-40.9c0-22.6-18.3-40.9-40.9-40.9h-60.1h-34.6
	c-22.6,0-40.9-18.3-40.9-40.9c0-22.6,18.3-40.9,40.9-40.9h2.7h15.8h15.8c22.6,0,40.9-18.3,40.9-40.9c0-22.6-18.3-40.9-40.9-40.9
	H689.5h170.4c22.6,0,40.9-18.3,40.9-40.9c0-22.6-18.3-40.9-40.9-40.9H155.6c-22.6,0-40.9,18.3-40.9,40.9c0,22.6,18.3,40.9,40.9,40.9
	h107.7H86.8C64.3,95.1,46,113.4,46,136c0,22.6,18.3,40.9,40.9,40.9H160h-7.4c-22.6,0-40.9,18.3-40.9,40.9
	c0,22.6,18.3,40.9,40.9,40.9h3.7h3.7h12.8c22.6,0,40.9,18.3,40.9,40.9c0,22.6-18.3,40.9-40.9,40.9h-64.5H49.2
	c-22.6,0-40.9,18.3-40.9,40.9c0,22.6,18.3,40.9,40.9,40.9H160h-26.2c-22.6,0-40.9,18.3-40.9,40.9c0,22.6,18.3,40.9,40.9,40.9h334.9
	h334.9c22.6,0,40.9-18.3,40.9-40.9c0-22.6-18.3-40.9-40.9-40.9h-28.9v-0.4c-2,0.3-4,0.4-6,0.4h-99.4c-22.6,0-40.9-18.3-40.9-40.9
	c0-22.6,18.3-40.9,40.9-40.9h99.4C770.6,340.4,772.6,340.5,774.6,340.8z"/>
<g>
	<g class="st1">
		<g>
			<g>
				<line class="st2" x1="453.4" y1="562" x2="435.5" y2="531.1"/>
				<line class="st2" x1="429" y1="555.5" x2="459.9" y2="537.6"/>
			</g>
		</g>
	</g>
</g>
<g>
	<g class="st1">
		<g>
			<g>
				<line class="st2" x1="766.9" y1="53.1" x2="749.1" y2="22.2"/>
				<line class="st2" x1="742.6" y1="46.6" x2="773.4" y2="28.7"/>
			</g>
		</g>
	</g>
</g>
<g>
	<path class="st3" d="M627,84.6l5,41.5c0,0-24.9,0.7-27.2-21.8S627,84.6,627,84.6z"/>
</g>
<g>
	<g>
		<path class="st4" d="M485,496.9c7.8,22.3,182.3,21,271.5,13.2c0,0,0,0,0,0c25-2.2,43.3-4.9,49.3-7.8
			c27.3-13.1,34.9-181.2,7.1-215.7c-27.8-34.5-93.9-42.7-118.6-21.9c-24.7,20.8-46.8,75.7-67,96.7c-129.8-22.2-134.9,7.7-134.9,7.7
			s-4.3,24.4-7.4,52.4c0,0,0,0.1,0,0.4c0,0.2,0,0.4-0.1,0.6c-0.1,1.1-0.2,2.2-0.4,3.4c-0.1,0.7-0.1,1.4-0.2,2.1c0,0.2,0,0.5-0.1,0.7
			C481.6,455.3,480.3,483.7,485,496.9z"/>
	</g>
	<g>
		<path class="st5" d="M624.9,390.3c-1.5,1.9-130,1.9-119.7-15.9s34.6-31.7,67.7-24.2C605.9,357.7,624.9,390.3,624.9,390.3z"/>
	</g>
	<g>
		<path class="st5" d="M748.6,262.5c0,0,12.4,42.1,7.9,55.3C752,331,736,335.5,736,335.5l38.7,14.7l-85.8-4.8l-5.3-33.4L748.6,262.5
			z"/>
	</g>
	<g>
		<path class="st5" d="M485,496.9c7.8,22.3,182.3,21,271.5,13.2c-3.3-0.1-185.6-5.1-226.7-29.1c-17.2-10.1-18.6-28.9-18.6-28.9
			s115.1,15.8,202.4-38.8c0,0-77.2-0.8-125.2,4.7c-48,5.5-99.6-26.8-99.6-26.8s-3.9,30.5-3.9,30.7c0,0.2,0,0.4-0.1,0.6
			c-0.1,1.1-0.3,3-0.6,5.5c0,0.2,0,0.5-0.1,0.7C481.6,455.3,480.3,483.7,485,496.9z"/>
	</g>
	<g>
		<polygon class="st6" points="614.1,197.2 612.7,284.2 556.8,310.8 567,322.8 633.2,300.9 633.2,204.5 		"/>
	</g>
	<g>
		<g>
			<path class="st7" d="M612.9,470.8c-4.2,4.4-2,12.9-8.5,30.2c-6.5,17.3-27.6,15.7-31.2,15.9c-3.6,0.1,15-51.4,13-57.7
				c-2-6.3-25.6-35.8-25.6-35.8l20.3-5.5l15.4,24c0,0,1.1,0.5,2.7,1.2c3.1,1.4,10.3,8.3,13.5,10.8
				C617.6,457.7,617.1,466.4,612.9,470.8z"/>
		</g>
		<g>
			<path class="st8" d="M653.2,342.8c0,0-80.4-31.9-125.9-32c-19.6,0-30.2,25.4-22.2,38.2c27,43.2,52.6,76.7,52.6,76.7l25.7-4.8
				l-40.8-66.2c0,0,93.7,55,115.6,32.5C680.2,364.7,653.2,342.8,653.2,342.8z"/>
		</g>
		<g>
			<path class="st9" d="M612.9,470.8c-4.2,4.4-2,12.9-8.5,30.2c-6.5,17.3-27.6,15.7-31.2,15.9c-3.6,0.1,15-51.4,13-57.7l14,3.7
				c0,0,3-5.7,3.1-9.8c0-2.1-3.2-8.5-4.3-9.9c3.1,1.4,10.3,8.3,13.5,10.8C617.6,457.7,617.1,466.4,612.9,470.8z"/>
		</g>
	</g>
	<g>
		<path class="st10" d="M625.9,88.9c0,0-8.1,3.6-11,14.3c-2.9,10.8-1.8,17-5.5,20.5c-3.6,3.5-10.1,5.7-7.6,10.4
			c1.8,3.4,6.9,4.2,6.9,4.2s-1.1,25.7,15.3,27.8c16.4,2.1,17.5-1.6,17.5-1.6l-0.8,70l56.1-64.1L678.2,131l-16.4-57.7L625.9,88.9z"/>
	</g>
	<g>
		
			<ellipse transform="matrix(0.1294 -0.9916 0.9916 0.1294 416.1223 721.0708)" class="st11" cx="618.7" cy="123.6" rx="5.1" ry="2.1"/>
	</g>
	<g>
		<path class="st12" d="M627,114.6c-0.2,0-0.5-0.1-0.7-0.3l0,0c0,0-1.5-1.4-4-2.2c-2.5-0.8-5,0.3-5.1,0.3c-0.5,0.2-1,0-1.3-0.5
			c-0.2-0.5,0-1,0.5-1.3c0.1-0.1,3.2-1.4,6.4-0.4c3.1,0.9,4.8,2.6,4.8,2.7c0.4,0.4,0.4,1,0,1.4C627.5,114.5,627.3,114.6,627,114.6z"
			/>
	</g>
	<g>
		<path class="st13" d="M622,152.3c-0.5,0-0.9-0.4-1-0.9c0-0.5,0.4-1,0.9-1c4.8-0.1,8.7-4.3,8.7-4.3c0.4-0.4,1-0.4,1.4-0.1
			s0.4,1,0.1,1.4C631.9,147.5,627.6,152.2,622,152.3C622,152.3,622,152.3,622,152.3z"/>
	</g>
	<g>
		<path class="st14" d="M662.2,171.7l52,20.1c0,0-14.6,58.6-19,98.7c-4.4,40.1-5.5,67.1-5.5,67.1l-61-2.2c0,0,4.5-58.4-2-97.7
			c-6.5-39.3-12.6-60.6-12.6-60.6l27.4-21.4l-0.3,26.9L662.2,171.7z"/>
	</g>
	<g>
		<path class="st15" d="M714.2,191.8l6.3,95.7l44.7,56.6l-10.9,15.8L700.1,298c0,0-2.8-13.7-1.5-44
			C700,223.7,714.2,191.8,714.2,191.8z"/>
	</g>
	<g>
		<polygon class="st16" points="664.1,167.1 641.2,202.6 674.9,178.9 		"/>
	</g>
	<g>
		<polygon class="st16" points="661.8,183.6 678.9,201.9 680.9,175.4 		"/>
	</g>
	<g>
		<polygon class="st16" points="633.2,184 627.8,199.5 626.7,184.9 		"/>
	</g>
	<g>
		<path class="st3" d="M625.9,88.9c7.9,4.3,16.9,5.7,17.7,20.7c0.7,15,14.1,13.5,15.1,24.6c1.9,20.3-7.1,14.9,0.7,34.1
			c12.8,31.5,57.1,24.4,57.1,24.4s6.5-16.5-1.7-32.6c-9.5-18.6-11-10.6-11-32c0-29.7,2-43.7-19-53.4
			C618.7,44.1,611.8,81.3,625.9,88.9z"/>
	</g>
	<g>
		<path class="st14" d="M630.2,212.5c0,0-17.5,24-17.5,33.8c0,9.8,22.2,16.2,22.2,16.2L630.2,212.5z"/>
	</g>
	<g>
		<g>
			<path class="st7" d="M625.8,484.2c-4.9,3.5-4.4,12.3-13.9,28.1c-9.5,15.8-30,10.4-33.6,9.8s24.3-47.7,23.5-54.3
				c-0.8-6.5-19.4-39.6-19.4-39.6l20.9-1.6l12.9,30.8c0,0,1,0.7,2.4,1.7c2.8,2,7.2,5.4,10,8.4C632.9,472.2,630.8,480.6,625.8,484.2z
				"/>
		</g>
		<g>
			<path class="st17" d="M690,351.1c0,0-103.6-36.4-114.1-40.3c-10.5-3.8-59.4-11.9-40.9,35.6c18.6,47.5,44.2,83.5,44.2,83.5h26.2
				l-27.8-72.6c0,0,82.9,60.6,108.6,42.6C711.8,381.9,690,351.1,690,351.1z"/>
		</g>
		<g>
			<path class="st18" d="M625.8,484.2c-4.9,3.5-4.4,12.3-13.9,28.1c-9.5,15.8-30,10.4-33.6,9.8s24.3-47.7,23.5-54.3l13.1,6.3
				c0,0,4-5.1,4.8-9.1c0.4-2.1-0.3-4.2-1-5.8c2.8,2,7.2,5.4,10,8.4C632.9,472.2,630.8,480.6,625.8,484.2z"/>
		</g>
	</g>
	<g>
		<path class="st4" d="M738.4,354.1c0,0-48.2-13.6-68.5-7.3c-20.3,6.4-55.7,58.3-55.7,58.3l58.7,0.6l32.4,2.2L738.4,354.1z"/>
	</g>
	<g>
		<polygon class="st16" points="641.6,169.4 626.7,184.7 641.2,202.6 		"/>
	</g>
	<g>
		
			<rect x="708.8" y="261.3" transform="matrix(0.9667 0.2559 -0.2559 0.9667 104.468 -179.2062)" class="st19" width="64" height="101"/>
	</g>
	<g>
		<path class="st10" d="M739.1,339.2c0.7-1.4,4.9-0.1,4.9-0.1s-2.5-2.9,1-3.2c3.4-0.3,29.9,8.1,31.5,9.7c2.1,2.1-1.3,6-2,5.9
			s2.1,2.3,0,4.6c-0.9,0.9-2.8,2.1-2.8,2.1s0.5,2.3-0.5,3.6c-1,1.4-2.4,1.8-2.4,1.8s-0.2,2.5-1.7,3.4c-3.6,2.2-23.5-13-25.9-16
			c-2.4-3-0.3-3.4-0.3-3.4s-3.3-3.1-2.5-4.2c0.8-1.2,1.9-1.1,1.9-1.1S738.3,341,739.1,339.2z"/>
	</g>
	<g>
		<polygon class="st7" points="744,339.2 767.7,347 766.9,348.5 		"/>
	</g>
	<g>
		<polygon class="st7" points="740.2,342.5 766,353.8 765.8,355.2 		"/>
	</g>
	<g>
		<polygon class="st7" points="740.8,347.7 762,359 761.3,360.3 		"/>
	</g>
	<g class="st20">
		<path class="st21" d="M703.8,128.1c0-29.7,2-43.7-19-53.4c-66.1-30.6-73,6.6-58.8,14.2c0,0,28.9-8.1,55,21L703.8,128.1z"/>
	</g>
</g>
<g>
	<g>
		<path class="st19" d="M344,339.1l59.9-65.4c2.6-2.8,6.9-2.9,9.6,0l25.4,28.1c2.6,2.8,1.7,6.1-1.1,8.8L391.8,354L344,339.1z"/>
	</g>
	<g>
		<path class="st22" d="M346.9,342.6l59.9-65.4c2.6-2.8,6.9-2.9,9.6,0L441,304c2.6,2.8,2.5,7.4-0.3,10.1l-46.1,43.4L346.9,342.6z"/>
	</g>
	<g>
		<path class="st10" d="M421.4,339.5c0,0-1.9-18.7-5.1-18.4c-3.2,0.4,1.5,18.4,1.5,18.4H421.4z"/>
	</g>
	<g>
		<path class="st10" d="M414.4,338.8c0,0-3-18.6-6.9-18.7c-3.9-0.1,2.8,18.7,2.8,18.7H414.4z"/>
	</g>
	<g>
		<path class="st10" d="M391.4,330.3l10.5,9.2l-7,0.7C394.9,340.2,385.9,332.4,391.4,330.3z"/>
	</g>
	<g>
		<path class="st23" d="M453.2,497.7c-7.8,22.3-182.3,21-271.5,13.2c0,0,0,0,0,0c-25-2.2-43.3-4.9-49.3-7.8
			C105,490,97.4,321.9,125.2,287.4s78-31.5,78-31.5l107.6,106.3l134.9,7.7c0,0,4.3,24.4,7.4,52.4c0,0,0,0.1,0,0.4
			c0,0.2,0,0.4,0.1,0.6c0.1,1.1,0.2,2.2,0.4,3.4c0.1,0.7,0.1,1.4,0.2,2.1c0,0.2,0,0.5,0.1,0.7C456.6,456.2,457.8,484.5,453.2,497.7z
			"/>
	</g>
	<g>
		<path class="st24" d="M377.9,378.4l19.6,28c0,0,49.1-6.5,48.3-8.2c-0.8-1.6-23.7-40.9-23.7-40.9L377.9,378.4z"/>
	</g>
	<g>
		<path class="st24" d="M189.5,263.3c0,0-12.4,42.1-7.9,55.3c4.5,13.2,20.5,17.7,20.5,17.7L163.4,351l85.8-4.8l5.3-33.4L189.5,263.3
			z"/>
	</g>
	<g>
		<polygon class="st7" points="556.8,475.4 568,486.4 551.3,499.8 535.5,485.1 		"/>
	</g>
	<g>
		<path class="st24" d="M568,481.8c0,0,15.3,13.4,31.4,18c16.1,4.6,45,10.9,41.7,19.9c-3.3,9-31.4,11.7-43.4,10.1
			c-12-1.6-5.5-4.9-23.2-4.6c-17.7,0.3-18.6-0.8-21-7.6c-2.5-6.8-5.2-20.5-5.2-20.5s7.7-0.8,8.5-7.1
			C557.7,483.7,568,481.8,568,481.8z"/>
	</g>
	<g>
		<path class="st9" d="M445.8,353.6c0,0,45,1.9,47.7,15.8c2.7,13.9-7.9,118.2-7.9,118.2h-21l-8.7-114.7L445.8,353.6z"/>
	</g>
	<g>
		<polygon class="st5" points="291.1,205.8 334.4,272.4 344,339 322.9,351 293,261.6 		"/>
	</g>
	<g>
		<path class="st10" d="M247.4,101.8c-4.9,25.5,8.5,25.3,9.6,45.4c1,20.1-6.6,34-6.6,34l22.7,30.2l16.1,3.1l8.6-41.5
			c0,0,15.2,7.3,22.6,4.9c9.5-3.1,11.2-23.7,11.2-23.7c-0.1,0.5,11.1-3,7.2-9.6c-3.3-5.7-9.2-4.1-7.9-16.7c1.3-12.6,2.6-23-7.9-34.9
			c-10.4-11.9-33.3-17-45.2-15.7C266,78.6,249.8,89.5,247.4,101.8z"/>
	</g>
	<g>
		<polygon class="st25" points="268.2,191 288.7,209.3 293,208.5 307.7,291.6 344,364.2 289.7,379.5 		"/>
	</g>
	<g>
		<ellipse class="st26" cx="320.4" cy="130.6" rx="2.5" ry="6"/>
	</g>
	<g>
		<path class="st11" d="M312.5,117.8c-0.3,0-0.6-0.1-0.8-0.4c-0.4-0.5-0.4-1.2,0.1-1.6c0.1-0.1,2.2-2,5.8-3c3.8-1,7.3,0.7,7.5,0.7
			c0.6,0.3,0.8,0.9,0.5,1.5c-0.3,0.6-0.9,0.8-1.5,0.5c0,0-3-1.4-5.9-0.6c-3.1,0.8-4.8,2.4-4.9,2.4
			C313.1,117.7,312.8,117.8,312.5,117.8z"/>
	</g>
	<g>
		<path class="st13" d="M321.6,166.5c-1.2,0-2.6-0.2-4.1-0.8c-6.4-2.5-6.7-7.6-6.7-7.8c0-0.6,0.4-1.1,1.1-1.2c0.6,0,1.1,0.4,1.2,1.1
			c0,0.2,0.3,3.9,5.3,5.8c5,1.9,7.6-0.9,7.7-1c0.4-0.5,1.1-0.5,1.6-0.1c0.5,0.4,0.5,1.1,0.1,1.6
			C327.5,164.2,325.4,166.5,321.6,166.5z"/>
	</g>
	<g>
		<path class="st26" d="M282.8,133.8l16.5-17.7l-10.1-16.8c0,0,6.8-6,15.4-8c8.6-2,17.4,0.6,17.4,0.6s-7.3-14.3-35.9-16.6
			c-28.6-2.3-47.4,21.9-40.5,44.1c7.4,23.7-8.5,21-8.9,20.9c-0.4-0.1,1.1,8.6,5.2,12.9c7.3,7.8,14.8,6.5,14.8,6.5s14,1.7,17.4-11.8
			c-7.2-4.4-17.1-23.3-4-25.6C283.2,119.9,282.8,133.8,282.8,133.8z"/>
	</g>
	<g>
		<path class="st26" d="M254.5,92.5c0,0-5.5-20.1-12.1-20.1c-6.7,0-16.9,29.6-10.9,30.7c6,1.1,20.3-3.5,20.3-3.5L254.5,92.5z"/>
	</g>
	<g>
		<path class="st4" d="M254.5,170.3c0,0,22.5,22.7,24.7,52.9c3.9,51.2,6,56.2,6,56.2L318.5,387l-72.1,11.3c0,0-5.5-6.7-24-86.8
			c-18.6-80.1-4-129.6-4-129.6L254.5,170.3z"/>
	</g>
	<g>
		<path class="st18" d="M231.4,347.7c0,0,113.2-9.4,152.2-10.5c39.1-1.1,54-3.6,68.5,11c14.6,14.6,104.6,127.2,104.6,127.2
			L535,491.8L415.9,383.4c0,0-102.8,31.3-169.5,14.9L231.4,347.7z"/>
	</g>
	<g>
		<path class="st27" d="M248.9,230.6l-27.3,63.7l69.5,22.6l-5.8,28l-82.2-19.3c0,0-26-5.6-20.7-34.2c6.2-33.8,36-109.5,36-109.5
			S246.4,193.9,248.9,230.6z"/>
	</g>
	<g>
		<polygon class="st19" points="254.5,167.5 283.1,194.4 274.1,209.3 249.2,172 		"/>
	</g>
	<g>
		<polygon class="st28" points="293.4,194.7 306.1,205.8 299.8,217.7 291.1,205.8 		"/>
	</g>
	<g>
		<polygon class="st29" points="283.1,194.4 288.7,209.3 276.9,204.7 		"/>
	</g>
	<g>
		<polygon class="st19" points="288.7,209.3 306.1,205.8 293.4,194.7 		"/>
	</g>
	<g>
		<path class="st10" d="M290.8,318.2l30.2,6.8l30.1-8.7c0,0,3.1-7.2,5.9-8.9c2.7-1.6,9.5-4.6,12.8-5.2c3.3-0.5,14.3,2.7,13.4,5.5
			c-1,2.7-12,0-12,0l-9.7,3.3l-1.4,7.2c0,0,5.3-1.1,13,0.9s11.1,6.8,10.5,9.6s-4.8,0-4.8,0s1.7,2.9-0.4,4.2
			c-2.1,1.3-8.5-0.1-8.5-0.1s1.1,2.9-1.3,3.7c-2.5,0.8-21.9,2.4-21.9,2.4s-5.2,4.2-17.1,6c-11.9,1.8-13.3-3.6-13.3-3.6l-30.3-0.4
			L290.8,318.2z"/>
	</g>
	<g>
		<path class="st24" d="M485.6,487.6c0,0,20.1,10.5,24.5,13.8c10.9,8.4,28.5,10.2,31.6,12.9c3.2,2.7,4.8,8-0.5,9.1
			c-5.4,1.1-28.6,3.1-42.4-2c-4.9-1.8-9.1-4-15.4-3.5c-6.3,0.5-21.6,4-23.2-1.8c-1.6-5.8,4.4-28.6,4.4-28.6H485.6z"/>
	</g>
	<g>
		<path class="st23" d="M163.4,351c0,0,100.4-18.6,142.7-9.9c42.3,8.7,116,79.5,116,79.5l-4.9,27.4L231.4,437L163.4,351z"/>
	</g>
	<g>
		<path class="st24" d="M453.2,497.7c-7.8,22.3-182.3,21-271.5,13.2c3.3-0.1,185.6-5.1,226.7-29.1c17.2-10.1,18.6-28.9,18.6-28.9
			s-115.1,15.8-202.4-38.8c0,0,67.1,16.4,115.1,21.9c48,5.5,113.5-13.6,113.5-13.6s0,0.1,0,0.4c0,0.2,0,0.4,0.1,0.6
			c0.1,1.1,0.3,3,0.6,5.5c0,0.2,0,0.5,0.1,0.7C456.6,456.2,457.8,484.5,453.2,497.7z"/>
	</g>
	<g>
		<path class="st7" d="M378.9,328.7c0,0-2.5-3-6.9-3.9c-4.4-0.8-14.6-1.2-14.6-1.2l-1.7,1.7C355.7,325.4,370.7,323.8,378.9,328.7z"
			/>
	</g>
	<g>
		<path class="st7" d="M369.9,332.8c0,0-2.4-1.5-5.7-2c-3.4-0.5-13.6,0.5-13.6,0.5l-0.5,1.5C350.1,332.8,362.6,330.1,369.9,332.8z"
			/>
	</g>
</g>
<ellipse transform="matrix(0.6909 -0.723 0.723 0.6909 194.0398 658.2634)" class="st30" cx="866.8" cy="102.2" rx="10.7" ry="10.7"/>
<ellipse transform="matrix(0.6909 -0.723 0.723 0.6909 76.229 272.9242)" class="st30" cx="357.3" cy="47.3" rx="10.7" ry="10.7"/>
<ellipse transform="matrix(0.6633 -0.7484 0.7484 0.6633 176.9081 720.5336)" class="st31" cx="889.2" cy="163.7" rx="5" ry="5"/>
<ellipse transform="matrix(0.6633 -0.7484 0.7484 0.6633 61.2565 321.1686)" class="st31" cx="387.5" cy="92.5" rx="5" ry="5"/>
<ellipse transform="matrix(0.8114 -0.5845 0.5845 0.8114 -250.5665 418.1155)" class="st30" cx="522.6" cy="597.3" rx="11.6" ry="11.6"/>
<ellipse transform="matrix(0.8114 -0.5845 0.5845 0.8114 -196.1385 433.5733)" class="st31" cx="573.8" cy="520.7" rx="6.6" ry="6.6"/>
</svg>
